<svg width="334" height="455" viewBox="0 0 334 455" fill="none" xmlns="http://www.w3.org/2000/svg">
<rect width="334" height="455" rx="10" fill="#1F1216" fill-opacity="0.8"/>
<path d="M53.7898 340.624C54.8878 340.624 55.7878 339.724 55.7878 338.644C55.7878 337.546 54.8878 336.646 53.7898 336.646C52.6918 336.646 51.7918 337.546 51.7918 338.644C51.7918 339.724 52.6918 340.624 53.7898 340.624ZM62.9736 343H67.2576C71.0016 343 73.4856 340.48 73.4856 337.006C73.4856 333.55 71.0016 330.994 67.2576 330.994H62.9736V343ZM64.7736 341.416V332.578H67.2576C70.0836 332.578 71.6316 334.54 71.6316 337.006C71.6316 339.436 70.0296 341.416 67.2576 341.416H64.7736ZM75.089 338.644C75.089 341.38 76.997 343.216 79.589 343.216C80.993 343.216 82.217 342.766 83.081 341.92L82.325 340.858C81.677 341.524 80.669 341.884 79.751 341.884C78.005 341.884 76.925 340.66 76.799 339.184H83.675V338.788C83.675 336.124 82.055 334.09 79.445 334.09C76.907 334.09 75.089 336.124 75.089 338.644ZM79.445 335.422C81.281 335.422 82.055 336.862 82.091 338.014H76.781C76.871 336.826 77.699 335.422 79.445 335.422ZM84.9453 341.866C85.8273 342.766 87.1053 343.216 88.5633 343.216C90.8493 343.216 92.0733 342.046 92.0733 340.552C92.0733 338.554 90.2733 338.14 88.7613 337.798C87.6813 337.546 86.7453 337.294 86.7453 336.538C86.7453 335.836 87.4293 335.404 88.5273 335.404C89.6253 335.404 90.5973 335.854 91.1013 336.466L91.8213 335.332C91.0833 334.63 90.0033 334.09 88.5093 334.09C86.3853 334.09 85.1973 335.278 85.1973 336.664C85.1973 338.536 86.9253 338.932 88.4013 339.274C89.5173 339.526 90.5073 339.814 90.5073 340.678C90.5073 341.416 89.8593 341.92 88.6353 341.92C87.4653 341.92 86.3133 341.326 85.7193 340.678L84.9453 341.866ZM94.9132 332.848C95.4892 332.848 95.9572 332.398 95.9572 331.822C95.9572 331.246 95.4892 330.778 94.9132 330.778C94.3552 330.778 93.8692 331.246 93.8692 331.822C93.8692 332.398 94.3552 332.848 94.9132 332.848ZM94.1212 343H95.7412V334.306H94.1212V343ZM98.2504 345.232C99.2944 346.222 100.356 346.528 101.814 346.528C103.956 346.528 106.134 345.646 106.134 342.658V334.306H104.514V335.566C103.812 334.63 102.786 334.09 101.652 334.09C99.4024 334.09 97.7824 335.782 97.7824 338.572C97.7824 341.416 99.4024 343.072 101.652 343.072C102.822 343.072 103.848 342.442 104.514 341.578V342.712C104.514 344.548 103.164 345.196 101.814 345.196C100.626 345.196 99.7444 344.872 99.0244 344.044L98.2504 345.232ZM104.514 340.336C104.064 341.038 103.074 341.632 102.102 341.632C100.482 341.632 99.4744 340.372 99.4744 338.572C99.4744 336.79 100.482 335.53 102.102 335.53C103.074 335.53 104.064 336.106 104.514 336.808V340.336ZM114.579 343H116.199V336.898C116.199 335.062 115.245 334.09 113.409 334.09C112.059 334.09 110.907 334.828 110.331 335.53V334.306H108.711V343H110.331V336.79C110.799 336.142 111.717 335.53 112.725 335.53C113.841 335.53 114.579 335.998 114.579 337.438V343ZM128.77 343H130.39V337.132C130.39 334.918 128.788 334.09 126.898 334.09C125.494 334.09 124.306 334.558 123.334 335.512L124.036 336.628C124.81 335.854 125.656 335.476 126.646 335.476C127.888 335.476 128.77 336.124 128.77 337.204V338.644C128.104 337.87 127.096 337.492 125.926 337.492C124.468 337.492 122.902 338.356 122.902 340.336C122.902 342.244 124.486 343.216 125.926 343.216C127.096 343.216 128.086 342.802 128.77 342.046V343ZM128.77 341.092C128.284 341.74 127.438 342.082 126.538 342.082C125.368 342.082 124.54 341.38 124.54 340.354C124.54 339.328 125.368 338.626 126.538 338.626C127.438 338.626 128.284 338.968 128.77 339.616V341.092ZM138.854 343H140.474V336.898C140.474 335.062 139.52 334.09 137.684 334.09C136.334 334.09 135.182 334.828 134.606 335.53V334.306H132.986V343H134.606V336.79C135.074 336.142 135.992 335.53 137 335.53C138.116 335.53 138.854 335.998 138.854 337.438V343ZM149.233 343H150.853V330.994H149.233V335.566C148.531 334.63 147.505 334.09 146.389 334.09C144.121 334.09 142.501 335.872 142.501 338.662C142.501 341.506 144.121 343.216 146.389 343.216C147.541 343.216 148.585 342.622 149.233 341.758V343ZM149.233 340.516C148.783 341.218 147.811 341.776 146.821 341.776C145.201 341.776 144.193 340.462 144.193 338.662C144.193 336.844 145.201 335.53 146.821 335.53C147.811 335.53 148.783 336.106 149.233 336.808V340.516ZM158.124 343H166.188V341.416H159.924V337.672H166.062V336.088H159.924V332.578H166.188V330.994H158.124V343ZM174.274 343H175.894V336.898C175.894 335.062 174.94 334.09 173.104 334.09C171.754 334.09 170.602 334.828 170.026 335.53V334.306H168.406V343H170.026V336.79C170.494 336.142 171.412 335.53 172.42 335.53C173.536 335.53 174.274 335.998 174.274 337.438V343ZM178.389 345.232C179.433 346.222 180.495 346.528 181.953 346.528C184.095 346.528 186.273 345.646 186.273 342.658V334.306H184.653V335.566C183.951 334.63 182.925 334.09 181.791 334.09C179.541 334.09 177.921 335.782 177.921 338.572C177.921 341.416 179.541 343.072 181.791 343.072C182.961 343.072 183.987 342.442 184.653 341.578V342.712C184.653 344.548 183.303 345.196 181.953 345.196C180.765 345.196 179.883 344.872 179.163 344.044L178.389 345.232ZM184.653 340.336C184.203 341.038 183.213 341.632 182.241 341.632C180.621 341.632 179.613 340.372 179.613 338.572C179.613 336.79 180.621 335.53 182.241 335.53C183.213 335.53 184.203 336.106 184.653 336.808V340.336ZM189.642 332.848C190.218 332.848 190.686 332.398 190.686 331.822C190.686 331.246 190.218 330.778 189.642 330.778C189.084 330.778 188.598 331.246 188.598 331.822C188.598 332.398 189.084 332.848 189.642 332.848ZM188.85 343H190.47V334.306H188.85V343ZM198.919 343H200.539V336.898C200.539 335.062 199.585 334.09 197.749 334.09C196.399 334.09 195.247 334.828 194.671 335.53V334.306H193.051V343H194.671V336.79C195.139 336.142 196.057 335.53 197.065 335.53C198.181 335.53 198.919 335.998 198.919 337.438V343ZM202.566 338.644C202.566 341.38 204.474 343.216 207.066 343.216C208.47 343.216 209.694 342.766 210.558 341.92L209.802 340.858C209.154 341.524 208.146 341.884 207.228 341.884C205.482 341.884 204.402 340.66 204.276 339.184H211.152V338.788C211.152 336.124 209.532 334.09 206.922 334.09C204.384 334.09 202.566 336.124 202.566 338.644ZM206.922 335.422C208.758 335.422 209.532 336.862 209.568 338.014H204.258C204.348 336.826 205.176 335.422 206.922 335.422ZM212.638 338.644C212.638 341.38 214.546 343.216 217.138 343.216C218.542 343.216 219.766 342.766 220.63 341.92L219.874 340.858C219.226 341.524 218.218 341.884 217.3 341.884C215.554 341.884 214.474 340.66 214.348 339.184H221.224V338.788C221.224 336.124 219.604 334.09 216.994 334.09C214.456 334.09 212.638 336.124 212.638 338.644ZM216.994 335.422C218.83 335.422 219.604 336.862 219.64 338.014H214.33C214.42 336.826 215.248 335.422 216.994 335.422ZM223.25 343H224.87V336.952C225.248 336.304 226.346 335.692 227.156 335.692C227.372 335.692 227.552 335.71 227.714 335.746V334.108C226.562 334.108 225.536 334.774 224.87 335.638V334.306H223.25V343ZM230.124 332.848C230.7 332.848 231.168 332.398 231.168 331.822C231.168 331.246 230.7 330.778 230.124 330.778C229.566 330.778 229.08 331.246 229.08 331.822C229.08 332.398 229.566 332.848 230.124 332.848ZM229.332 343H230.952V334.306H229.332V343ZM239.401 343H241.021V336.898C241.021 335.062 240.067 334.09 238.231 334.09C236.881 334.09 235.729 334.828 235.153 335.53V334.306H233.533V343H235.153V336.79C235.621 336.142 236.539 335.53 237.547 335.53C238.663 335.53 239.401 335.998 239.401 337.438V343ZM243.516 345.232C244.56 346.222 245.622 346.528 247.08 346.528C249.222 346.528 251.4 345.646 251.4 342.658V334.306H249.78V335.566C249.078 334.63 248.052 334.09 246.918 334.09C244.668 334.09 243.048 335.782 243.048 338.572C243.048 341.416 244.668 343.072 246.918 343.072C248.088 343.072 249.114 342.442 249.78 341.578V342.712C249.78 344.548 248.43 345.196 247.08 345.196C245.892 345.196 245.01 344.872 244.29 344.044L243.516 345.232ZM249.78 340.336C249.33 341.038 248.34 341.632 247.368 341.632C245.748 341.632 244.74 340.372 244.74 338.572C244.74 336.79 245.748 335.53 247.368 335.53C248.34 335.53 249.33 336.106 249.78 336.808V340.336ZM266.159 343H267.833L270.569 334.306H268.877L266.897 340.93L264.719 334.306H263.315L261.137 340.93L259.157 334.306H257.465L260.201 343H261.875L264.017 336.322L266.159 343ZM275.864 343.216C278.582 343.216 280.256 341.164 280.256 338.644C280.256 336.142 278.582 334.09 275.864 334.09C273.164 334.09 271.472 336.142 271.472 338.644C271.472 341.164 273.164 343.216 275.864 343.216ZM275.864 341.776C274.136 341.776 273.164 340.3 273.164 338.644C273.164 337.006 274.136 335.53 275.864 335.53C277.61 335.53 278.564 337.006 278.564 338.644C278.564 340.3 277.61 341.776 275.864 341.776ZM282.313 343H283.933V336.952C284.311 336.304 285.409 335.692 286.219 335.692C286.435 335.692 286.615 335.71 286.777 335.746V334.108C285.625 334.108 284.599 334.774 283.933 335.638V334.306H282.313V343ZM294.227 343H296.279L292.499 338.248L296.243 334.306H294.209L290.015 338.716V330.994H288.395V343H290.015V340.588L291.329 339.256L294.227 343ZM128.782 367H130.402V360.862C130.402 359.026 129.466 358.09 127.612 358.09C126.28 358.09 125.11 358.828 124.534 359.53V354.994H122.914V367H124.534V360.79C125.002 360.142 125.92 359.53 126.928 359.53C128.044 359.53 128.782 359.962 128.782 361.402V367ZM138.35 367H139.97V361.132C139.97 358.918 138.368 358.09 136.478 358.09C135.074 358.09 133.886 358.558 132.914 359.512L133.616 360.628C134.39 359.854 135.236 359.476 136.226 359.476C137.468 359.476 138.35 360.124 138.35 361.204V362.644C137.684 361.87 136.676 361.492 135.506 361.492C134.048 361.492 132.482 362.356 132.482 364.336C132.482 366.244 134.066 367.216 135.506 367.216C136.676 367.216 137.666 366.802 138.35 366.046V367ZM138.35 365.092C137.864 365.74 137.018 366.082 136.118 366.082C134.948 366.082 134.12 365.38 134.12 364.354C134.12 363.328 134.948 362.626 136.118 362.626C137.018 362.626 137.864 362.968 138.35 363.616V365.092ZM148.435 367H150.055V360.898C150.055 359.062 149.101 358.09 147.265 358.09C145.915 358.09 144.763 358.828 144.187 359.53V358.306H142.567V367H144.187V360.79C144.655 360.142 145.573 359.53 146.581 359.53C147.697 359.53 148.435 359.998 148.435 361.438V367ZM158.813 367H160.433V354.994H158.813V359.566C158.111 358.63 157.085 358.09 155.969 358.09C153.701 358.09 152.081 359.872 152.081 362.662C152.081 365.506 153.701 367.216 155.969 367.216C157.121 367.216 158.165 366.622 158.813 365.758V367ZM158.813 364.516C158.363 365.218 157.391 365.776 156.401 365.776C154.781 365.776 153.773 364.462 153.773 362.662C153.773 360.844 154.781 359.53 156.401 359.53C157.391 359.53 158.363 360.106 158.813 360.808V364.516ZM168.46 356.848C169.036 356.848 169.504 356.398 169.504 355.822C169.504 355.246 169.036 354.778 168.46 354.778C167.902 354.778 167.416 355.246 167.416 355.822C167.416 356.398 167.902 356.848 168.46 356.848ZM167.668 367H169.288V358.306H167.668V367ZM177.737 367H179.357V360.898C179.357 359.062 178.403 358.09 176.567 358.09C175.217 358.09 174.065 358.828 173.489 359.53V358.306H171.869V367H173.489V360.79C173.957 360.142 174.875 359.53 175.883 359.53C176.999 359.53 177.737 359.998 177.737 361.438V367ZM192.433 367H194.053V360.862C194.053 359.026 193.117 358.09 191.263 358.09C189.931 358.09 188.761 358.828 188.185 359.53V354.994H186.565V367H188.185V360.79C188.653 360.142 189.571 359.53 190.579 359.53C191.695 359.53 192.433 359.962 192.433 361.402V367ZM202.001 367H203.621V361.132C203.621 358.918 202.019 358.09 200.129 358.09C198.725 358.09 197.537 358.558 196.565 359.512L197.267 360.628C198.041 359.854 198.887 359.476 199.877 359.476C201.119 359.476 202.001 360.124 202.001 361.204V362.644C201.335 361.87 200.327 361.492 199.157 361.492C197.699 361.492 196.133 362.356 196.133 364.336C196.133 366.244 197.717 367.216 199.157 367.216C200.327 367.216 201.317 366.802 202.001 366.046V367ZM202.001 365.092C201.515 365.74 200.669 366.082 199.769 366.082C198.599 366.082 197.771 365.38 197.771 364.354C197.771 363.328 198.599 362.626 199.769 362.626C200.669 362.626 201.515 362.968 202.001 363.616V365.092ZM212.085 367H213.705V360.898C213.705 359.062 212.751 358.09 210.915 358.09C209.565 358.09 208.413 358.828 207.837 359.53V358.306H206.217V367H207.837V360.79C208.305 360.142 209.223 359.53 210.231 359.53C211.347 359.53 212.085 359.998 212.085 361.438V367ZM222.464 367H224.084V354.994H222.464V359.566C221.762 358.63 220.736 358.09 219.62 358.09C217.352 358.09 215.732 359.872 215.732 362.662C215.732 365.506 217.352 367.216 219.62 367.216C220.772 367.216 221.816 366.622 222.464 365.758V367ZM222.464 364.516C222.014 365.218 221.042 365.776 220.052 365.776C218.432 365.776 217.424 364.462 217.424 362.662C217.424 360.844 218.432 359.53 220.052 359.53C221.042 359.53 222.014 360.106 222.464 360.808V364.516ZM56.8308 392.624C57.9288 392.624 58.8288 391.724 58.8288 390.644C58.8288 389.546 57.9288 388.646 56.8308 388.646C55.7328 388.646 54.8328 389.546 54.8328 390.644C54.8328 391.724 55.7328 392.624 56.8308 392.624ZM66.0146 395H67.8146V390.374H71.0726C73.5206 390.374 74.9066 388.682 74.9066 386.684C74.9066 384.686 73.5386 382.994 71.0726 382.994H66.0146V395ZM73.0526 386.684C73.0526 387.944 72.1346 388.79 70.8386 388.79H67.8146V384.578H70.8386C72.1346 384.578 73.0526 385.424 73.0526 386.684ZM81.7313 395H83.3513V389.132C83.3513 386.918 81.7493 386.09 79.8593 386.09C78.4553 386.09 77.2673 386.558 76.2953 387.512L76.9973 388.628C77.7713 387.854 78.6173 387.476 79.6073 387.476C80.8493 387.476 81.7313 388.124 81.7313 389.204V390.644C81.0653 389.87 80.0573 389.492 78.8873 389.492C77.4293 389.492 75.8633 390.356 75.8633 392.336C75.8633 394.244 77.4473 395.216 78.8873 395.216C80.0573 395.216 81.0473 394.802 81.7313 394.046V395ZM81.7313 393.092C81.2453 393.74 80.3993 394.082 79.4993 394.082C78.3293 394.082 77.5013 393.38 77.5013 392.354C77.5013 391.328 78.3293 390.626 79.4993 390.626C80.3993 390.626 81.2453 390.968 81.7313 391.616V393.092ZM85.9474 395H87.5674V388.952C87.9454 388.304 89.0434 387.692 89.8534 387.692C90.0694 387.692 90.2494 387.71 90.4114 387.746V386.108C89.2594 386.108 88.2334 386.774 87.5674 387.638V386.306H85.9474V395ZM94.4234 395.216C95.2694 395.216 95.7734 394.982 96.1154 394.658L95.7014 393.434C95.5394 393.614 95.1974 393.776 94.8194 393.776C94.2614 393.776 93.9734 393.326 93.9734 392.714V387.728H95.7374V386.306H93.9734V383.93H92.3534V386.306H90.9134V387.728H92.3534V393.074C92.3534 394.442 93.0554 395.216 94.4234 395.216ZM98.3234 384.848C98.8994 384.848 99.3674 384.398 99.3674 383.822C99.3674 383.246 98.8994 382.778 98.3234 382.778C97.7654 382.778 97.2794 383.246 97.2794 383.822C97.2794 384.398 97.7654 384.848 98.3234 384.848ZM97.5314 395H99.1514V386.306H97.5314V395ZM101.193 390.644C101.193 393.254 102.993 395.216 105.621 395.216C107.259 395.216 108.249 394.532 108.879 393.686L107.799 392.696C107.277 393.416 106.575 393.776 105.693 393.776C103.983 393.776 102.885 392.444 102.885 390.644C102.885 388.844 103.983 387.53 105.693 387.53C106.575 387.53 107.277 387.872 107.799 388.61L108.879 387.62C108.249 386.774 107.259 386.09 105.621 386.09C102.993 386.09 101.193 388.034 101.193 390.644ZM111.454 384.848C112.03 384.848 112.498 384.398 112.498 383.822C112.498 383.246 112.03 382.778 111.454 382.778C110.896 382.778 110.41 383.246 110.41 383.822C110.41 384.398 110.896 384.848 111.454 384.848ZM110.662 395H112.282V386.306H110.662V395ZM116.483 398.312V393.74C117.185 394.694 118.193 395.216 119.327 395.216C121.595 395.216 123.197 393.488 123.197 390.644C123.197 387.8 121.595 386.09 119.327 386.09C118.157 386.09 117.113 386.684 116.483 387.548V386.306H114.863V398.312H116.483ZM121.505 390.644C121.505 392.462 120.515 393.776 118.895 393.776C117.905 393.776 116.915 393.182 116.483 392.498V388.808C116.915 388.106 117.905 387.53 118.895 387.53C120.515 387.53 121.505 388.844 121.505 390.644ZM130.616 395H132.236V389.132C132.236 386.918 130.634 386.09 128.744 386.09C127.34 386.09 126.152 386.558 125.18 387.512L125.882 388.628C126.656 387.854 127.502 387.476 128.492 387.476C129.734 387.476 130.616 388.124 130.616 389.204V390.644C129.95 389.87 128.942 389.492 127.772 389.492C126.314 389.492 124.748 390.356 124.748 392.336C124.748 394.244 126.332 395.216 127.772 395.216C128.942 395.216 129.932 394.802 130.616 394.046V395ZM130.616 393.092C130.13 393.74 129.284 394.082 128.384 394.082C127.214 394.082 126.386 393.38 126.386 392.354C126.386 391.328 127.214 390.626 128.384 390.626C129.284 390.626 130.13 390.968 130.616 391.616V393.092ZM137.226 395.216C138.072 395.216 138.576 394.982 138.918 394.658L138.504 393.434C138.342 393.614 138 393.776 137.622 393.776C137.064 393.776 136.776 393.326 136.776 392.714V387.728H138.54V386.306H136.776V383.93H135.156V386.306H133.716V387.728H135.156V393.074C135.156 394.442 135.858 395.216 137.226 395.216ZM139.794 390.644C139.794 393.38 141.702 395.216 144.294 395.216C145.698 395.216 146.922 394.766 147.786 393.92L147.03 392.858C146.382 393.524 145.374 393.884 144.456 393.884C142.71 393.884 141.63 392.66 141.504 391.184H148.38V390.788C148.38 388.124 146.76 386.09 144.15 386.09C141.612 386.09 139.794 388.124 139.794 390.644ZM144.15 387.422C145.986 387.422 146.76 388.862 146.796 390.014H141.486C141.576 388.826 142.404 387.422 144.15 387.422ZM155.839 384.848C156.415 384.848 156.883 384.398 156.883 383.822C156.883 383.246 156.415 382.778 155.839 382.778C155.281 382.778 154.795 383.246 154.795 383.822C154.795 384.398 155.281 384.848 155.839 384.848ZM155.047 395H156.667V386.306H155.047V395ZM165.116 395H166.736V388.898C166.736 387.062 165.782 386.09 163.946 386.09C162.596 386.09 161.444 386.828 160.868 387.53V386.306H159.248V395H160.868V388.79C161.336 388.142 162.254 387.53 163.262 387.53C164.378 387.53 165.116 387.998 165.116 389.438V395ZM173.241 393.308C174.267 394.442 175.833 395.216 177.975 395.216C181.215 395.216 182.511 393.47 182.511 391.598C182.511 389.042 180.225 388.43 178.263 387.908C176.769 387.53 175.473 387.188 175.473 386.108C175.473 385.1 176.391 384.416 177.723 384.416C179.019 384.416 180.279 384.848 181.197 385.82L182.241 384.488C181.179 383.408 179.721 382.814 177.867 382.814C175.365 382.814 173.619 384.254 173.619 386.234C173.619 388.682 175.851 389.24 177.777 389.744C179.307 390.14 180.675 390.5 180.675 391.76C180.675 392.624 179.991 393.614 178.047 393.614C176.373 393.614 175.077 392.822 174.267 391.922L173.241 393.308ZM186.181 398.312V393.74C186.883 394.694 187.891 395.216 189.025 395.216C191.293 395.216 192.895 393.488 192.895 390.644C192.895 387.8 191.293 386.09 189.025 386.09C187.855 386.09 186.811 386.684 186.181 387.548V386.306H184.561V398.312H186.181ZM191.203 390.644C191.203 392.462 190.213 393.776 188.593 393.776C187.603 393.776 186.613 393.182 186.181 392.498V388.808C186.613 388.106 187.603 387.53 188.593 387.53C190.213 387.53 191.203 388.844 191.203 390.644ZM194.949 395H196.569V388.952C196.947 388.304 198.045 387.692 198.855 387.692C199.071 387.692 199.251 387.71 199.413 387.746V386.108C198.261 386.108 197.235 386.774 196.569 387.638V386.306H194.949V395ZM201.823 384.848C202.399 384.848 202.867 384.398 202.867 383.822C202.867 383.246 202.399 382.778 201.823 382.778C201.265 382.778 200.779 383.246 200.779 383.822C200.779 384.398 201.265 384.848 201.823 384.848ZM201.031 395H202.651V386.306H201.031V395ZM211.101 395H212.721V388.898C212.721 387.062 211.767 386.09 209.931 386.09C208.581 386.09 207.429 386.828 206.853 387.53V386.306H205.233V395H206.853V388.79C207.321 388.142 208.239 387.53 209.247 387.53C210.363 387.53 211.101 387.998 211.101 389.438V395ZM217.681 395.216C218.527 395.216 219.031 394.982 219.373 394.658L218.959 393.434C218.797 393.614 218.455 393.776 218.077 393.776C217.519 393.776 217.231 393.326 217.231 392.714V387.728H218.995V386.306H217.231V383.93H215.611V386.306H214.171V387.728H215.611V393.074C215.611 394.442 216.313 395.216 217.681 395.216ZM225.466 395H227.266V390.374H230.524C232.972 390.374 234.358 388.682 234.358 386.684C234.358 384.686 232.99 382.994 230.524 382.994H225.466V395ZM232.504 386.684C232.504 387.944 231.586 388.79 230.29 388.79H227.266V384.578H230.29C231.586 384.578 232.504 385.424 232.504 386.684ZM236.17 395H237.79V382.994H236.17V395ZM245.735 395H247.355V389.132C247.355 386.918 245.753 386.09 243.863 386.09C242.459 386.09 241.271 386.558 240.299 387.512L241.001 388.628C241.775 387.854 242.621 387.476 243.611 387.476C244.853 387.476 245.735 388.124 245.735 389.204V390.644C245.069 389.87 244.061 389.492 242.891 389.492C241.433 389.492 239.867 390.356 239.867 392.336C239.867 394.244 241.451 395.216 242.891 395.216C244.061 395.216 245.051 394.802 245.735 394.046V395ZM245.735 393.092C245.249 393.74 244.403 394.082 243.503 394.082C242.333 394.082 241.505 393.38 241.505 392.354C241.505 391.328 242.333 390.626 243.503 390.626C244.403 390.626 245.249 390.968 245.735 391.616V393.092ZM255.819 395H257.439V388.898C257.439 387.062 256.485 386.09 254.649 386.09C253.299 386.09 252.147 386.828 251.571 387.53V386.306H249.951V395H251.571V388.79C252.039 388.142 252.957 387.53 253.965 387.53C255.081 387.53 255.819 387.998 255.819 389.438V395ZM265.874 395H267.494V388.898C267.494 387.062 266.54 386.09 264.704 386.09C263.354 386.09 262.202 386.828 261.626 387.53V386.306H260.006V395H261.626V388.79C262.094 388.142 263.012 387.53 264.02 387.53C265.136 387.53 265.874 387.998 265.874 389.438V395ZM270.853 384.848C271.429 384.848 271.897 384.398 271.897 383.822C271.897 383.246 271.429 382.778 270.853 382.778C270.295 382.778 269.809 383.246 269.809 383.822C269.809 384.398 270.295 384.848 270.853 384.848ZM270.061 395H271.681V386.306H270.061V395ZM280.13 395H281.75V388.898C281.75 387.062 280.796 386.09 278.96 386.09C277.61 386.09 276.458 386.828 275.882 387.53V386.306H274.262V395H275.882V388.79C276.35 388.142 277.268 387.53 278.276 387.53C279.392 387.53 280.13 387.998 280.13 389.438V395ZM284.245 397.232C285.289 398.222 286.351 398.528 287.809 398.528C289.951 398.528 292.129 397.646 292.129 394.658V386.306H290.509V387.566C289.807 386.63 288.781 386.09 287.647 386.09C285.397 386.09 283.777 387.782 283.777 390.572C283.777 393.416 285.397 395.072 287.647 395.072C288.817 395.072 289.843 394.442 290.509 393.578V394.712C290.509 396.548 289.159 397.196 287.809 397.196C286.621 397.196 285.739 396.872 285.019 396.044L284.245 397.232ZM290.509 392.336C290.059 393.038 289.069 393.632 288.097 393.632C286.477 393.632 285.469 392.372 285.469 390.572C285.469 388.79 286.477 387.53 288.097 387.53C289.069 387.53 290.059 388.106 290.509 388.808V392.336ZM111.103 420.624C112.201 420.624 113.101 419.724 113.101 418.644C113.101 417.546 112.201 416.646 111.103 416.646C110.005 416.646 109.105 417.546 109.105 418.644C109.105 419.724 110.005 420.624 111.103 420.624ZM120.287 423H122.087V418.374H125.345C127.793 418.374 129.179 416.682 129.179 414.684C129.179 412.686 127.811 410.994 125.345 410.994H120.287V423ZM127.325 414.684C127.325 415.944 126.407 416.79 125.111 416.79H122.087V412.578H125.111C126.407 412.578 127.325 413.424 127.325 414.684ZM130.205 418.644C130.205 421.38 132.113 423.216 134.705 423.216C136.109 423.216 137.333 422.766 138.197 421.92L137.441 420.858C136.793 421.524 135.785 421.884 134.867 421.884C133.121 421.884 132.041 420.66 131.915 419.184H138.791V418.788C138.791 416.124 137.171 414.09 134.561 414.09C132.023 414.09 130.205 416.124 130.205 418.644ZM134.561 415.422C136.397 415.422 137.171 416.862 137.207 418.014H131.897C131.987 416.826 132.815 415.422 134.561 415.422ZM140.277 418.644C140.277 421.38 142.185 423.216 144.777 423.216C146.181 423.216 147.405 422.766 148.269 421.92L147.513 420.858C146.865 421.524 145.857 421.884 144.939 421.884C143.193 421.884 142.113 420.66 141.987 419.184H148.863V418.788C148.863 416.124 147.243 414.09 144.633 414.09C142.095 414.09 140.277 416.124 140.277 418.644ZM144.633 415.422C146.469 415.422 147.243 416.862 147.279 418.014H141.969C142.059 416.826 142.887 415.422 144.633 415.422ZM150.89 423H152.51V416.952C152.888 416.304 153.986 415.692 154.796 415.692C155.012 415.692 155.192 415.71 155.354 415.746V414.108C154.202 414.108 153.176 414.774 152.51 415.638V414.306H150.89V423ZM161.648 423H163.448V417.672H169.586V416.088H163.448V412.578H169.712V410.994H161.648V423ZM171.074 418.644C171.074 421.38 172.982 423.216 175.574 423.216C176.978 423.216 178.202 422.766 179.066 421.92L178.31 420.858C177.662 421.524 176.654 421.884 175.736 421.884C173.99 421.884 172.91 420.66 172.784 419.184H179.66V418.788C179.66 416.124 178.04 414.09 175.43 414.09C172.892 414.09 171.074 416.124 171.074 418.644ZM175.43 415.422C177.266 415.422 178.04 416.862 178.076 418.014H172.766C172.856 416.826 173.684 415.422 175.43 415.422ZM181.147 418.644C181.147 421.38 183.055 423.216 185.647 423.216C187.051 423.216 188.275 422.766 189.139 421.92L188.383 420.858C187.735 421.524 186.727 421.884 185.809 421.884C184.063 421.884 182.983 420.66 182.857 419.184H189.733V418.788C189.733 416.124 188.113 414.09 185.503 414.09C182.965 414.09 181.147 416.124 181.147 418.644ZM185.503 415.422C187.339 415.422 188.113 416.862 188.149 418.014H182.839C182.929 416.826 183.757 415.422 185.503 415.422ZM197.951 423H199.571V410.994H197.951V415.566C197.249 414.63 196.223 414.09 195.107 414.09C192.839 414.09 191.219 415.872 191.219 418.662C191.219 421.506 192.839 423.216 195.107 423.216C196.259 423.216 197.303 422.622 197.951 421.758V423ZM197.951 420.516C197.501 421.218 196.529 421.776 195.539 421.776C193.919 421.776 192.911 420.462 192.911 418.662C192.911 416.844 193.919 415.53 195.539 415.53C196.529 415.53 197.501 416.106 197.951 416.808V420.516ZM202.165 423H203.785V421.758C204.433 422.622 205.459 423.216 206.629 423.216C208.879 423.216 210.499 421.506 210.499 418.662C210.499 415.872 208.897 414.09 206.629 414.09C205.495 414.09 204.469 414.63 203.785 415.566V410.994H202.165V423ZM203.785 420.516V416.826C204.217 416.124 205.207 415.53 206.197 415.53C207.817 415.53 208.825 416.844 208.825 418.662C208.825 420.48 207.817 421.776 206.197 421.776C205.207 421.776 204.217 421.218 203.785 420.516ZM217.935 423H219.555V417.132C219.555 414.918 217.953 414.09 216.063 414.09C214.659 414.09 213.471 414.558 212.499 415.512L213.201 416.628C213.975 415.854 214.821 415.476 215.811 415.476C217.053 415.476 217.935 416.124 217.935 417.204V418.644C217.269 417.87 216.261 417.492 215.091 417.492C213.633 417.492 212.067 418.356 212.067 420.336C212.067 422.244 213.651 423.216 215.091 423.216C216.261 423.216 217.251 422.802 217.935 422.046V423ZM217.935 421.092C217.449 421.74 216.603 422.082 215.703 422.082C214.533 422.082 213.705 421.38 213.705 420.354C213.705 419.328 214.533 418.626 215.703 418.626C216.603 418.626 217.449 418.968 217.935 419.616V421.092ZM221.611 418.644C221.611 421.254 223.411 423.216 226.039 423.216C227.677 423.216 228.667 422.532 229.297 421.686L228.217 420.696C227.695 421.416 226.993 421.776 226.111 421.776C224.401 421.776 223.303 420.444 223.303 418.644C223.303 416.844 224.401 415.53 226.111 415.53C226.993 415.53 227.695 415.872 228.217 416.61L229.297 415.62C228.667 414.774 227.677 414.09 226.039 414.09C223.411 414.09 221.611 416.034 221.611 418.644ZM236.913 423H238.965L235.185 418.248L238.929 414.306H236.895L232.701 418.716V410.994H231.081V423H232.701V420.588L234.015 419.256L236.913 423Z" fill="#FEFEFE"/>
<path d="M113.052 287.288C116.7 287.288 118.716 285.344 119.868 283.352L116.94 281.936C116.268 283.256 114.828 284.264 113.052 284.264C110.268 284.264 108.156 282.032 108.156 279.008C108.156 275.984 110.268 273.752 113.052 273.752C114.828 273.752 116.268 274.784 116.94 276.08L119.868 274.64C118.74 272.648 116.7 270.728 113.052 270.728C108.372 270.728 104.652 274.088 104.652 279.008C104.652 283.928 108.372 287.288 113.052 287.288ZM127.201 287.288C131.041 287.288 133.345 284.504 133.345 281.192C133.345 277.904 131.041 275.12 127.201 275.12C123.385 275.12 121.081 277.904 121.081 281.192C121.081 284.504 123.385 287.288 127.201 287.288ZM127.201 284.576C125.305 284.576 124.249 283.016 124.249 281.192C124.249 279.392 125.305 277.832 127.201 277.832C129.097 277.832 130.177 279.392 130.177 281.192C130.177 283.016 129.097 284.576 127.201 284.576ZM135.606 287H138.654V270.992H135.606V287ZM141.676 287H144.724V270.992H141.676V287ZM154.706 287H157.754V279.512C157.754 276.176 155.33 275.12 152.69 275.12C150.866 275.12 149.042 275.696 147.626 276.944L148.778 278.984C149.762 278.072 150.914 277.616 152.162 277.616C153.698 277.616 154.706 278.384 154.706 279.56V281.168C153.938 280.232 152.57 279.752 151.034 279.752C149.186 279.752 147.002 280.736 147.002 283.448C147.002 286.04 149.186 287.288 151.034 287.288C152.546 287.288 153.914 286.736 154.706 285.8V287ZM154.706 284.216C154.202 284.888 153.242 285.224 152.258 285.224C151.058 285.224 150.074 284.6 150.074 283.52C150.074 282.416 151.058 281.768 152.258 281.768C153.242 281.768 154.202 282.104 154.706 282.776V284.216ZM160.778 287H163.826V285.536C164.738 286.664 166.01 287.288 167.402 287.288C170.33 287.288 172.538 285.08 172.538 281.216C172.538 277.424 170.354 275.12 167.402 275.12C166.034 275.12 164.738 275.72 163.826 276.896V270.992H160.778V287ZM163.826 283.28V279.176C164.33 278.408 165.458 277.832 166.442 277.832C168.218 277.832 169.394 279.2 169.394 281.216C169.394 283.232 168.218 284.576 166.442 284.576C165.458 284.576 164.33 284.024 163.826 283.28ZM180.216 287.288C184.056 287.288 186.36 284.504 186.36 281.192C186.36 277.904 184.056 275.12 180.216 275.12C176.4 275.12 174.096 277.904 174.096 281.192C174.096 284.504 176.4 287.288 180.216 287.288ZM180.216 284.576C178.32 284.576 177.264 283.016 177.264 281.192C177.264 279.392 178.32 277.832 180.216 277.832C182.112 277.832 183.192 279.392 183.192 281.192C183.192 283.016 182.112 284.576 180.216 284.576ZM188.621 287H191.669V279.344C192.173 278.6 193.517 278.048 194.525 278.048C194.861 278.048 195.149 278.072 195.365 278.12V275.144C193.925 275.144 192.485 275.96 191.669 276.992V275.408H188.621V287ZM204.23 287H207.278V279.512C207.278 276.176 204.854 275.12 202.214 275.12C200.39 275.12 198.566 275.696 197.15 276.944L198.302 278.984C199.286 278.072 200.438 277.616 201.686 277.616C203.222 277.616 204.23 278.384 204.23 279.56V281.168C203.462 280.232 202.094 279.752 200.558 279.752C198.71 279.752 196.526 280.736 196.526 283.448C196.526 286.04 198.71 287.288 200.558 287.288C202.07 287.288 203.438 286.736 204.23 285.8V287ZM204.23 284.216C203.726 284.888 202.766 285.224 201.782 285.224C200.582 285.224 199.598 284.6 199.598 283.52C199.598 282.416 200.582 281.768 201.782 281.768C202.766 281.768 203.726 282.104 204.23 282.776V284.216ZM214.189 287.288C215.461 287.288 216.277 286.952 216.733 286.544L216.085 284.24C215.917 284.408 215.485 284.576 215.029 284.576C214.357 284.576 213.973 284.024 213.973 283.304V278.072H216.325V275.408H213.973V272.24H210.901V275.408H208.981V278.072H210.901V284.12C210.901 286.184 212.053 287.288 214.189 287.288ZM217.666 281.192C217.666 284.912 220.33 287.288 223.858 287.288C225.658 287.288 227.458 286.76 228.634 285.68L227.29 283.712C226.546 284.432 225.274 284.864 224.194 284.864C222.226 284.864 221.05 283.64 220.858 282.176H229.474V281.504C229.474 277.712 227.122 275.12 223.666 275.12C220.138 275.12 217.666 277.832 217.666 281.192ZM223.666 277.544C225.682 277.544 226.45 279.008 226.522 280.112H220.81C220.954 278.96 221.77 277.544 223.666 277.544Z" fill="#FEFEFE"/>
<line x1="0.5" y1="-0.5" x2="163.855" y2="-0.5" transform="matrix(0.999926 -0.0121688 0.00413314 0.999991 84 309.572)" stroke="#FEFEFE" stroke-linecap="square" stroke-dasharray="6 12"/>
<path d="M133.564 175.973H159.23C161.781 175.973 164.183 175.211 166.284 173.838L193.6 155.386C195.702 154.014 196.902 151.574 196.902 149.134V148.676C196.902 144.559 193.6 141.204 189.548 141.204C188.197 141.204 186.846 141.661 185.646 142.424L158.329 159.503H149.774C149.174 159.503 148.723 159.198 148.273 158.741L146.172 155.844H155.177C159.23 155.844 162.382 152.489 162.382 148.524C162.382 144.406 159.08 141.204 155.177 141.204H138.367C134.915 141.204 131.463 141.966 128.461 143.644C126.36 144.711 124.409 146.084 122.758 147.914L110 160.571V187.105H116.004L128.011 177.956C129.662 176.736 131.613 175.973 133.564 175.973ZM114.803 183.293H113.602V161.943L125.159 150.201C126.51 148.829 128.161 147.609 129.962 146.694C132.514 145.321 135.365 144.711 138.217 144.711H155.177C157.128 144.711 158.779 146.389 158.779 148.371C158.779 150.354 157.128 152.031 155.177 152.031H141.969L134.315 157.978L136.416 160.876L142.269 156.454L145.571 160.876C146.622 162.248 148.273 163.011 149.924 163.011H159.53L187.597 145.169C188.197 144.711 188.947 144.559 189.548 144.559C191.649 144.559 193.3 146.236 193.3 148.371V148.829C193.3 150.201 192.7 151.269 191.649 152.031L164.183 170.788C162.682 171.856 161.031 172.313 159.23 172.313H133.564C130.863 172.313 128.161 173.228 125.91 174.906L114.803 183.293Z" fill="#FEFEFE"/>
<path d="M128.011 120.007L143.62 102.317C145.271 100.487 146.172 98.1997 146.172 95.7598C146.172 90.4224 141.819 86 136.566 86H135.966C134.014 86 132.213 86.61 130.562 87.6775L128.011 89.3549L125.609 87.6775C124.108 86.61 122.157 86 120.356 86H119.606C114.353 86 110 90.4224 110 95.7598C110 98.1997 110.901 100.487 112.552 102.317L128.011 120.007ZM119.606 89.6599H120.206C121.407 89.6599 122.608 89.9649 123.508 90.7274L128.011 93.7773L132.514 90.7274C133.564 90.1174 134.615 89.6599 135.816 89.6599H136.416C139.718 89.6599 142.42 92.4049 142.42 95.7598C142.42 97.2847 141.819 98.6572 140.919 99.8772L128.011 114.517L115.103 99.8772C114.052 98.8097 113.602 97.2847 113.602 95.7598C113.602 92.4049 116.304 89.6599 119.606 89.6599Z" fill="#FEFEFE"/>
<path d="M212.512 164.993H211.911C209.96 164.993 208.159 165.603 206.508 166.671L203.957 168.348L201.555 166.671C199.904 165.603 198.103 164.993 196.152 164.993H195.551C190.298 164.993 185.946 169.416 185.946 174.753C185.946 177.193 186.846 179.481 188.497 181.311L204.107 199L219.566 181.311C221.217 179.481 222.117 177.193 222.117 174.753C222.117 169.416 217.765 164.993 212.512 164.993ZM216.864 178.871L203.957 193.51L191.049 178.871C189.998 177.803 189.548 176.278 189.548 174.753C189.548 171.398 192.249 168.653 195.551 168.653H196.152C197.353 168.653 198.553 168.958 199.454 169.721L203.957 172.771L208.459 169.721C209.51 169.111 210.56 168.653 211.761 168.653H212.362C215.664 168.653 218.365 171.398 218.365 174.753C218.515 176.278 217.915 177.803 216.864 178.871Z" fill="#FEFEFE"/>
<path d="M164.183 185.123H160.58V188.783H164.183V185.123Z" fill="#FEFEFE"/>
<path d="M164.183 192.595H160.58V196.255H164.183V192.595Z" fill="#FEFEFE"/>
<path d="M167.785 188.935H164.183V192.595H167.785V188.935Z" fill="#FEFEFE"/>
<path d="M160.58 188.935H156.978V192.595H160.58V188.935Z" fill="#FEFEFE"/>
<path d="M120.807 128.241H117.204V131.901H120.807V128.241Z" fill="#FEFEFE"/>
<path d="M120.807 135.562H117.204V139.221H120.807V135.562Z" fill="#FEFEFE"/>
<path d="M124.409 131.902H120.807V135.562H124.409V131.902Z" fill="#FEFEFE"/>
<path d="M117.204 131.902H113.602V135.562H117.204V131.902Z" fill="#FEFEFE"/>
<path d="M211.161 142.881H207.559V146.541H211.161V142.881Z" fill="#FEFEFE"/>
<path d="M211.161 150.354H207.559V154.013H211.161V150.354Z" fill="#FEFEFE"/>
<path d="M214.913 146.694H211.311V150.354H214.913V146.694Z" fill="#FEFEFE"/>
<path d="M207.559 146.694H203.957V150.354H207.559V146.694Z" fill="#FEFEFE"/>
<path d="M196.752 86H193.15V89.6599H196.752V86Z" fill="#FEFEFE"/>
<path d="M196.752 93.3198H193.15V96.9797H196.752V93.3198Z" fill="#FEFEFE"/>
<path d="M200.354 89.6599H196.752V93.3198H200.354V89.6599Z" fill="#FEFEFE"/>
<path d="M193.15 89.6599H189.548V93.3198H193.15V89.6599Z" fill="#FEFEFE"/>
<path d="M135.365 181.463H131.763V185.123H135.365V181.463Z" fill="#FEFEFE"/>
<path d="M135.365 188.935H131.763V192.595H135.365V188.935Z" fill="#FEFEFE"/>
<path d="M138.967 185.123H135.365V188.783H138.967V185.123Z" fill="#FEFEFE"/>
<path d="M131.613 185.123H128.011V188.783H131.613V185.123Z" fill="#FEFEFE"/>
<path d="M216.114 91.49L204.107 100.64C202.606 101.86 200.654 102.47 198.703 102.47H172.888C170.336 102.47 167.935 103.232 165.834 104.605L138.667 123.209C136.566 124.582 135.365 127.022 135.365 129.462V129.919C135.365 134.037 138.667 137.391 142.72 137.391C144.07 137.391 145.421 136.934 146.622 136.172L173.788 118.939H182.343C182.944 118.939 183.394 119.244 183.844 119.702L185.946 122.599H176.94C172.888 122.599 169.736 125.954 169.736 129.919C169.736 133.884 173.038 137.239 176.94 137.239H193.9C197.353 137.239 200.805 136.476 203.806 134.799C205.908 133.732 207.859 132.359 209.51 130.529L222.117 117.719V91.49H216.114ZM218.515 116.499L206.958 128.242C205.607 129.614 203.956 130.834 202.155 131.749C199.604 133.122 196.752 133.732 193.9 133.732H176.94C174.989 133.732 173.338 132.054 173.338 130.072C173.338 128.089 174.989 126.412 176.94 126.412H190.148L197.803 120.464L195.702 117.567L189.848 121.989L186.546 117.567C185.495 116.194 183.844 115.432 182.193 115.432H172.588L144.821 133.122C144.221 133.579 143.47 133.732 142.87 133.732C140.768 133.732 139.117 132.054 139.117 129.919V129.462C139.117 128.089 139.718 127.022 140.768 126.259L168.085 107.807C169.586 106.74 171.237 106.282 173.038 106.282H198.553C201.255 106.282 203.956 105.367 206.208 103.69L217.315 95.1499H218.515V116.499Z" fill="#FEFEFE"/>
</svg>
