<svg width="333" height="453" viewBox="0 0 333 453" fill="none" xmlns="http://www.w3.org/2000/svg">
<rect width="333" height="453" rx="10" fill="#1F1216" fill-opacity="0.8"/>
<path d="M107.158 340.624C108.256 340.624 109.156 339.724 109.156 338.644C109.156 337.546 108.256 336.646 107.158 336.646C106.06 336.646 105.16 337.546 105.16 338.644C105.16 339.724 106.06 340.624 107.158 340.624ZM116.342 343H120.626C124.37 343 126.854 340.48 126.854 337.006C126.854 333.55 124.37 330.994 120.626 330.994H116.342V343ZM118.142 341.416V332.578H120.626C123.452 332.578 125 334.54 125 337.006C125 339.436 123.398 341.416 120.626 341.416H118.142ZM128.457 338.644C128.457 341.38 130.365 343.216 132.957 343.216C134.361 343.216 135.585 342.766 136.449 341.92L135.693 340.858C135.045 341.524 134.037 341.884 133.119 341.884C131.373 341.884 130.293 340.66 130.167 339.184H137.043V338.788C137.043 336.124 135.423 334.09 132.813 334.09C130.275 334.09 128.457 336.124 128.457 338.644ZM132.813 335.422C134.649 335.422 135.423 336.862 135.459 338.014H130.149C130.239 336.826 131.067 335.422 132.813 335.422ZM138.313 341.866C139.195 342.766 140.473 343.216 141.931 343.216C144.217 343.216 145.441 342.046 145.441 340.552C145.441 338.554 143.641 338.14 142.129 337.798C141.049 337.546 140.113 337.294 140.113 336.538C140.113 335.836 140.797 335.404 141.895 335.404C142.993 335.404 143.965 335.854 144.469 336.466L145.189 335.332C144.451 334.63 143.371 334.09 141.877 334.09C139.753 334.09 138.565 335.278 138.565 336.664C138.565 338.536 140.293 338.932 141.769 339.274C142.885 339.526 143.875 339.814 143.875 340.678C143.875 341.416 143.227 341.92 142.003 341.92C140.833 341.92 139.681 341.326 139.087 340.678L138.313 341.866ZM148.281 332.848C148.857 332.848 149.325 332.398 149.325 331.822C149.325 331.246 148.857 330.778 148.281 330.778C147.723 330.778 147.237 331.246 147.237 331.822C147.237 332.398 147.723 332.848 148.281 332.848ZM147.489 343H149.109V334.306H147.489V343ZM151.619 345.232C152.663 346.222 153.725 346.528 155.183 346.528C157.325 346.528 159.503 345.646 159.503 342.658V334.306H157.883V335.566C157.181 334.63 156.155 334.09 155.021 334.09C152.771 334.09 151.151 335.782 151.151 338.572C151.151 341.416 152.771 343.072 155.021 343.072C156.191 343.072 157.217 342.442 157.883 341.578V342.712C157.883 344.548 156.533 345.196 155.183 345.196C153.995 345.196 153.113 344.872 152.393 344.044L151.619 345.232ZM157.883 340.336C157.433 341.038 156.443 341.632 155.471 341.632C153.851 341.632 152.843 340.372 152.843 338.572C152.843 336.79 153.851 335.53 155.471 335.53C156.443 335.53 157.433 336.106 157.883 336.808V340.336ZM167.947 343H169.567V336.898C169.567 335.062 168.613 334.09 166.777 334.09C165.427 334.09 164.275 334.828 163.699 335.53V334.306H162.079V343H163.699V336.79C164.167 336.142 165.085 335.53 166.093 335.53C167.209 335.53 167.947 335.998 167.947 337.438V343ZM176.073 341.308C177.099 342.442 178.665 343.216 180.807 343.216C184.047 343.216 185.343 341.47 185.343 339.598C185.343 337.042 183.057 336.43 181.095 335.908C179.601 335.53 178.305 335.188 178.305 334.108C178.305 333.1 179.223 332.416 180.555 332.416C181.851 332.416 183.111 332.848 184.029 333.82L185.073 332.488C184.011 331.408 182.553 330.814 180.699 330.814C178.197 330.814 176.451 332.254 176.451 334.234C176.451 336.682 178.683 337.24 180.609 337.744C182.139 338.14 183.507 338.5 183.507 339.76C183.507 340.624 182.823 341.614 180.879 341.614C179.205 341.614 177.909 340.822 177.099 339.922L176.073 341.308ZM187.071 344.944L186.819 346.402C187.071 346.474 187.557 346.528 187.827 346.528C189.087 346.51 190.041 346.024 190.599 344.656L194.883 334.306H193.137L190.419 341.128L187.701 334.306H185.973L189.555 343.09L189.051 344.242C188.781 344.89 188.385 345.088 187.791 345.088C187.575 345.088 187.269 345.034 187.071 344.944ZM195.442 341.866C196.324 342.766 197.602 343.216 199.06 343.216C201.346 343.216 202.57 342.046 202.57 340.552C202.57 338.554 200.77 338.14 199.258 337.798C198.178 337.546 197.242 337.294 197.242 336.538C197.242 335.836 197.926 335.404 199.024 335.404C200.122 335.404 201.094 335.854 201.598 336.466L202.318 335.332C201.58 334.63 200.5 334.09 199.006 334.09C196.882 334.09 195.694 335.278 195.694 336.664C195.694 338.536 197.422 338.932 198.898 339.274C200.014 339.526 201.004 339.814 201.004 340.678C201.004 341.416 200.356 341.92 199.132 341.92C197.962 341.92 196.81 341.326 196.216 340.678L195.442 341.866ZM207.012 343.216C207.858 343.216 208.362 342.982 208.704 342.658L208.29 341.434C208.128 341.614 207.786 341.776 207.408 341.776C206.85 341.776 206.562 341.326 206.562 340.714V335.728H208.326V334.306H206.562V331.93H204.942V334.306H203.502V335.728H204.942V341.074C204.942 342.442 205.644 343.216 207.012 343.216ZM209.58 338.644C209.58 341.38 211.488 343.216 214.08 343.216C215.484 343.216 216.708 342.766 217.572 341.92L216.816 340.858C216.168 341.524 215.16 341.884 214.242 341.884C212.496 341.884 211.416 340.66 211.29 339.184H218.166V338.788C218.166 336.124 216.546 334.09 213.936 334.09C211.398 334.09 209.58 336.124 209.58 338.644ZM213.936 335.422C215.772 335.422 216.546 336.862 216.582 338.014H211.272C211.362 336.826 212.19 335.422 213.936 335.422ZM230.758 343H232.378V336.718C232.378 334.972 231.514 334.09 229.912 334.09C228.634 334.09 227.482 334.9 226.978 335.71C226.708 334.774 225.934 334.09 224.62 334.09C223.324 334.09 222.172 334.99 221.812 335.53V334.306H220.192V343H221.812V336.79C222.244 336.16 223.09 335.53 223.936 335.53C225.034 335.53 225.466 336.196 225.466 337.204V343H227.086V336.772C227.5 336.142 228.364 335.53 229.246 335.53C230.308 335.53 230.758 336.196 230.758 337.204V343ZM234.202 341.866C235.084 342.766 236.362 343.216 237.82 343.216C240.106 343.216 241.33 342.046 241.33 340.552C241.33 338.554 239.53 338.14 238.018 337.798C236.938 337.546 236.002 337.294 236.002 336.538C236.002 335.836 236.686 335.404 237.784 335.404C238.882 335.404 239.854 335.854 240.358 336.466L241.078 335.332C240.34 334.63 239.26 334.09 237.766 334.09C235.642 334.09 234.454 335.278 234.454 336.664C234.454 338.536 236.182 338.932 237.658 339.274C238.774 339.526 239.764 339.814 239.764 340.678C239.764 341.416 239.116 341.92 237.892 341.92C236.722 341.92 235.57 341.326 234.976 340.678L234.202 341.866ZM107.501 368.624C108.599 368.624 109.499 367.724 109.499 366.644C109.499 365.546 108.599 364.646 107.501 364.646C106.403 364.646 105.503 365.546 105.503 366.644C105.503 367.724 106.403 368.624 107.501 368.624ZM116.685 371H123.939V369.416H118.485V358.994H116.685V371ZM131.03 371H132.65V365.132C132.65 362.918 131.048 362.09 129.158 362.09C127.754 362.09 126.566 362.558 125.594 363.512L126.296 364.628C127.07 363.854 127.916 363.476 128.906 363.476C130.148 363.476 131.03 364.124 131.03 365.204V366.644C130.364 365.87 129.356 365.492 128.186 365.492C126.728 365.492 125.162 366.356 125.162 368.336C125.162 370.244 126.746 371.216 128.186 371.216C129.356 371.216 130.346 370.802 131.03 370.046V371ZM131.03 369.092C130.544 369.74 129.698 370.082 128.798 370.082C127.628 370.082 126.8 369.38 126.8 368.354C126.8 367.328 127.628 366.626 128.798 366.626C129.698 366.626 130.544 366.968 131.03 367.616V369.092ZM135.246 371H136.866V364.952C137.244 364.304 138.342 363.692 139.152 363.692C139.368 363.692 139.548 363.71 139.71 363.746V362.108C138.558 362.108 137.532 362.774 136.866 363.638V362.306H135.246V371ZM141.256 373.232C142.3 374.222 143.362 374.528 144.82 374.528C146.962 374.528 149.14 373.646 149.14 370.658V362.306H147.52V363.566C146.818 362.63 145.792 362.09 144.658 362.09C142.408 362.09 140.788 363.782 140.788 366.572C140.788 369.416 142.408 371.072 144.658 371.072C145.828 371.072 146.854 370.442 147.52 369.578V370.712C147.52 372.548 146.17 373.196 144.82 373.196C143.632 373.196 142.75 372.872 142.03 372.044L141.256 373.232ZM147.52 368.336C147.07 369.038 146.08 369.632 145.108 369.632C143.488 369.632 142.48 368.372 142.48 366.572C142.48 364.79 143.488 363.53 145.108 363.53C146.08 363.53 147.07 364.106 147.52 364.808V368.336ZM151.177 366.644C151.177 369.38 153.085 371.216 155.677 371.216C157.081 371.216 158.305 370.766 159.169 369.92L158.413 368.858C157.765 369.524 156.757 369.884 155.839 369.884C154.093 369.884 153.013 368.66 152.887 367.184H159.763V366.788C159.763 364.124 158.143 362.09 155.533 362.09C152.995 362.09 151.177 364.124 151.177 366.644ZM155.533 363.422C157.369 363.422 158.143 364.862 158.179 366.014H152.869C152.959 364.826 153.787 363.422 155.533 363.422ZM166.466 371H170.75C174.494 371 176.978 368.48 176.978 365.006C176.978 361.55 174.494 358.994 170.75 358.994H166.466V371ZM168.266 369.416V360.578H170.75C173.576 360.578 175.124 362.54 175.124 365.006C175.124 367.436 173.522 369.416 170.75 369.416H168.266ZM184.485 371H186.105V365.132C186.105 362.918 184.503 362.09 182.613 362.09C181.209 362.09 180.021 362.558 179.049 363.512L179.751 364.628C180.525 363.854 181.371 363.476 182.361 363.476C183.603 363.476 184.485 364.124 184.485 365.204V366.644C183.819 365.87 182.811 365.492 181.641 365.492C180.183 365.492 178.617 366.356 178.617 368.336C178.617 370.244 180.201 371.216 181.641 371.216C182.811 371.216 183.801 370.802 184.485 370.046V371ZM184.485 369.092C183.999 369.74 183.153 370.082 182.253 370.082C181.083 370.082 180.255 369.38 180.255 368.354C180.255 367.328 181.083 366.626 182.253 366.626C183.153 366.626 183.999 366.968 184.485 367.616V369.092ZM191.095 371.216C191.941 371.216 192.445 370.982 192.787 370.658L192.373 369.434C192.211 369.614 191.869 369.776 191.491 369.776C190.933 369.776 190.645 369.326 190.645 368.714V363.728H192.409V362.306H190.645V359.93H189.025V362.306H187.585V363.728H189.025V369.074C189.025 370.442 189.727 371.216 191.095 371.216ZM199.567 371H201.187V365.132C201.187 362.918 199.585 362.09 197.695 362.09C196.291 362.09 195.103 362.558 194.131 363.512L194.833 364.628C195.607 363.854 196.453 363.476 197.443 363.476C198.685 363.476 199.567 364.124 199.567 365.204V366.644C198.901 365.87 197.893 365.492 196.723 365.492C195.265 365.492 193.699 366.356 193.699 368.336C193.699 370.244 195.283 371.216 196.723 371.216C197.893 371.216 198.883 370.802 199.567 370.046V371ZM199.567 369.092C199.081 369.74 198.235 370.082 197.335 370.082C196.165 370.082 195.337 369.38 195.337 368.354C195.337 367.328 196.165 366.626 197.335 366.626C198.235 366.626 199.081 366.968 199.567 367.616V369.092ZM207.722 369.308C208.748 370.442 210.314 371.216 212.456 371.216C215.696 371.216 216.992 369.47 216.992 367.598C216.992 365.042 214.706 364.43 212.744 363.908C211.25 363.53 209.954 363.188 209.954 362.108C209.954 361.1 210.872 360.416 212.204 360.416C213.5 360.416 214.76 360.848 215.678 361.82L216.722 360.488C215.66 359.408 214.202 358.814 212.348 358.814C209.846 358.814 208.1 360.254 208.1 362.234C208.1 364.682 210.332 365.24 212.258 365.744C213.788 366.14 215.156 366.5 215.156 367.76C215.156 368.624 214.472 369.614 212.528 369.614C210.854 369.614 209.558 368.822 208.748 367.922L207.722 369.308ZM218.501 366.644C218.501 369.38 220.409 371.216 223.001 371.216C224.405 371.216 225.629 370.766 226.493 369.92L225.737 368.858C225.089 369.524 224.081 369.884 223.163 369.884C221.417 369.884 220.337 368.66 220.211 367.184H227.087V366.788C227.087 364.124 225.467 362.09 222.857 362.09C220.319 362.09 218.501 364.124 218.501 366.644ZM222.857 363.422C224.693 363.422 225.467 364.862 225.503 366.014H220.193C220.283 364.826 221.111 363.422 222.857 363.422ZM231.507 371.216C232.353 371.216 232.857 370.982 233.199 370.658L232.785 369.434C232.623 369.614 232.281 369.776 231.903 369.776C231.345 369.776 231.057 369.326 231.057 368.714V363.728H232.821V362.306H231.057V359.93H229.437V362.306H227.997V363.728H229.437V369.074C229.437 370.442 230.139 371.216 231.507 371.216ZM233.859 369.866C234.741 370.766 236.019 371.216 237.477 371.216C239.763 371.216 240.987 370.046 240.987 368.552C240.987 366.554 239.187 366.14 237.675 365.798C236.595 365.546 235.659 365.294 235.659 364.538C235.659 363.836 236.343 363.404 237.441 363.404C238.539 363.404 239.511 363.854 240.015 364.466L240.735 363.332C239.997 362.63 238.917 362.09 237.423 362.09C235.299 362.09 234.111 363.278 234.111 364.664C234.111 366.536 235.839 366.932 237.315 367.274C238.431 367.526 239.421 367.814 239.421 368.678C239.421 369.416 238.773 369.92 237.549 369.92C236.379 369.92 235.227 369.326 234.633 368.678L233.859 369.866ZM85.0886 396.624C86.1866 396.624 87.0866 395.724 87.0866 394.644C87.0866 393.546 86.1866 392.646 85.0886 392.646C83.9906 392.646 83.0906 393.546 83.0906 394.644C83.0906 395.724 83.9906 396.624 85.0886 396.624ZM93.5344 397.308C94.5604 398.442 96.1264 399.216 98.2684 399.216C101.508 399.216 102.804 397.47 102.804 395.598C102.804 393.042 100.518 392.43 98.5564 391.908C97.0624 391.53 95.7664 391.188 95.7664 390.108C95.7664 389.1 96.6844 388.416 98.0164 388.416C99.3124 388.416 100.572 388.848 101.49 389.82L102.534 388.488C101.472 387.408 100.014 386.814 98.1604 386.814C95.6584 386.814 93.9124 388.254 93.9124 390.234C93.9124 392.682 96.1444 393.24 98.0704 393.744C99.6004 394.14 100.968 394.5 100.968 395.76C100.968 396.624 100.284 397.614 98.3404 397.614C96.6664 397.614 95.3704 396.822 94.5604 395.922L93.5344 397.308ZM108.706 399.216C111.424 399.216 113.098 397.164 113.098 394.644C113.098 392.142 111.424 390.09 108.706 390.09C106.006 390.09 104.314 392.142 104.314 394.644C104.314 397.164 106.006 399.216 108.706 399.216ZM108.706 397.776C106.978 397.776 106.006 396.3 106.006 394.644C106.006 393.006 106.978 391.53 108.706 391.53C110.452 391.53 111.406 393.006 111.406 394.644C111.406 396.3 110.452 397.776 108.706 397.776ZM115.55 399H117.17V391.728H118.934V390.306H117.17V389.73C117.17 388.686 117.656 388.146 118.466 388.146C118.754 388.146 119.024 388.218 119.24 388.344L119.618 387.138C119.24 386.922 118.754 386.814 118.196 386.814C116.648 386.814 115.55 387.858 115.55 389.73V390.306H114.11V391.728H115.55V399ZM122.875 399.216C123.721 399.216 124.225 398.982 124.567 398.658L124.153 397.434C123.991 397.614 123.649 397.776 123.271 397.776C122.713 397.776 122.425 397.326 122.425 396.714V391.728H124.189V390.306H122.425V387.93H120.805V390.306H119.365V391.728H120.805V397.074C120.805 398.442 121.507 399.216 122.875 399.216ZM133.525 399H135.199L137.935 390.306H136.243L134.263 396.93L132.085 390.306H130.681L128.503 396.93L126.523 390.306H124.831L127.567 399H129.241L131.383 392.322L133.525 399ZM144.741 399H146.361V393.132C146.361 390.918 144.759 390.09 142.869 390.09C141.465 390.09 140.277 390.558 139.305 391.512L140.007 392.628C140.781 391.854 141.627 391.476 142.617 391.476C143.859 391.476 144.741 392.124 144.741 393.204V394.644C144.075 393.87 143.067 393.492 141.897 393.492C140.439 393.492 138.873 394.356 138.873 396.336C138.873 398.244 140.457 399.216 141.897 399.216C143.067 399.216 144.057 398.802 144.741 398.046V399ZM144.741 397.092C144.255 397.74 143.409 398.082 142.509 398.082C141.339 398.082 140.511 397.38 140.511 396.354C140.511 395.328 141.339 394.626 142.509 394.626C143.409 394.626 144.255 394.968 144.741 395.616V397.092ZM148.957 399H150.577V392.952C150.955 392.304 152.053 391.692 152.863 391.692C153.079 391.692 153.259 391.71 153.421 391.746V390.108C152.269 390.108 151.243 390.774 150.577 391.638V390.306H148.957V399ZM154.499 394.644C154.499 397.38 156.407 399.216 158.999 399.216C160.403 399.216 161.627 398.766 162.491 397.92L161.735 396.858C161.087 397.524 160.079 397.884 159.161 397.884C157.415 397.884 156.335 396.66 156.209 395.184H163.085V394.788C163.085 392.124 161.465 390.09 158.855 390.09C156.317 390.09 154.499 392.124 154.499 394.644ZM158.855 391.422C160.691 391.422 161.465 392.862 161.501 394.014H156.191C156.281 392.826 157.109 391.422 158.855 391.422ZM170.148 399H171.768V391.728H173.532V390.306H171.768V389.73C171.768 388.686 172.254 388.146 173.064 388.146C173.352 388.146 173.622 388.218 173.838 388.344L174.216 387.138C173.838 386.922 173.352 386.814 172.794 386.814C171.246 386.814 170.148 387.858 170.148 389.73V390.306H168.708V391.728H170.148V399ZM178.93 399.216C181.648 399.216 183.322 397.164 183.322 394.644C183.322 392.142 181.648 390.09 178.93 390.09C176.23 390.09 174.538 392.142 174.538 394.644C174.538 397.164 176.23 399.216 178.93 399.216ZM178.93 397.776C177.202 397.776 176.23 396.3 176.23 394.644C176.23 393.006 177.202 391.53 178.93 391.53C180.676 391.53 181.63 393.006 181.63 394.644C181.63 396.3 180.676 397.776 178.93 397.776ZM185.379 399H186.999V392.952C187.377 392.304 188.475 391.692 189.285 391.692C189.501 391.692 189.681 391.71 189.843 391.746V390.108C188.691 390.108 187.665 390.774 186.999 391.638V390.306H185.379V399ZM196.138 399H203.392V397.416H197.938V386.994H196.138V399ZM204.474 394.644C204.474 397.38 206.382 399.216 208.974 399.216C210.378 399.216 211.602 398.766 212.466 397.92L211.71 396.858C211.062 397.524 210.054 397.884 209.136 397.884C207.39 397.884 206.31 396.66 206.184 395.184H213.06V394.788C213.06 392.124 211.44 390.09 208.83 390.09C206.292 390.09 204.474 392.124 204.474 394.644ZM208.83 391.422C210.666 391.422 211.44 392.862 211.476 394.014H206.166C206.256 392.826 207.084 391.422 208.83 391.422ZM220.45 399H222.07V393.132C222.07 390.918 220.468 390.09 218.578 390.09C217.174 390.09 215.986 390.558 215.014 391.512L215.716 392.628C216.49 391.854 217.336 391.476 218.326 391.476C219.568 391.476 220.45 392.124 220.45 393.204V394.644C219.784 393.87 218.776 393.492 217.606 393.492C216.148 393.492 214.582 394.356 214.582 396.336C214.582 398.244 216.166 399.216 217.606 399.216C218.776 399.216 219.766 398.802 220.45 398.046V399ZM220.45 397.092C219.964 397.74 219.118 398.082 218.218 398.082C217.048 398.082 216.22 397.38 216.22 396.354C216.22 395.328 217.048 394.626 218.218 394.626C219.118 394.626 219.964 394.968 220.45 395.616V397.092ZM224.666 399H226.286V392.952C226.664 392.304 227.762 391.692 228.572 391.692C228.788 391.692 228.968 391.71 229.13 391.746V390.108C227.978 390.108 226.952 390.774 226.286 391.638V390.306H224.666V399ZM236.616 399H238.236V392.898C238.236 391.062 237.282 390.09 235.446 390.09C234.096 390.09 232.944 390.828 232.368 391.53V390.306H230.748V399H232.368V392.79C232.836 392.142 233.754 391.53 234.762 391.53C235.878 391.53 236.616 391.998 236.616 393.438V399ZM241.595 388.848C242.171 388.848 242.639 388.398 242.639 387.822C242.639 387.246 242.171 386.778 241.595 386.778C241.037 386.778 240.551 387.246 240.551 387.822C240.551 388.398 241.037 388.848 241.595 388.848ZM240.803 399H242.423V390.306H240.803V399ZM250.872 399H252.492V392.898C252.492 391.062 251.538 390.09 249.702 390.09C248.352 390.09 247.2 390.828 246.624 391.53V390.306H245.004V399H246.624V392.79C247.092 392.142 248.01 391.53 249.018 391.53C250.134 391.53 250.872 391.998 250.872 393.438V399ZM254.987 401.232C256.031 402.222 257.093 402.528 258.551 402.528C260.693 402.528 262.871 401.646 262.871 398.658V390.306H261.251V391.566C260.549 390.63 259.523 390.09 258.389 390.09C256.139 390.09 254.519 391.782 254.519 394.572C254.519 397.416 256.139 399.072 258.389 399.072C259.559 399.072 260.585 398.442 261.251 397.578V398.712C261.251 400.548 259.901 401.196 258.551 401.196C257.363 401.196 256.481 400.872 255.761 400.044L254.987 401.232ZM261.251 396.336C260.801 397.038 259.811 397.632 258.839 397.632C257.219 397.632 256.211 396.372 256.211 394.572C256.211 392.79 257.219 391.53 258.839 391.53C259.811 391.53 260.801 392.106 261.251 392.808V396.336Z" fill="#FEFEFE"/>
<path d="M36.1223 263.288C39.7703 263.288 41.7863 261.344 42.9383 259.352L40.0103 257.936C39.3383 259.256 37.8983 260.264 36.1223 260.264C33.3383 260.264 31.2263 258.032 31.2263 255.008C31.2263 251.984 33.3383 249.752 36.1223 249.752C37.8983 249.752 39.3383 250.784 40.0103 252.08L42.9383 250.64C41.8103 248.648 39.7703 246.728 36.1223 246.728C31.4423 246.728 27.7223 250.088 27.7223 255.008C27.7223 259.928 31.4423 263.288 36.1223 263.288ZM50.2708 263.288C54.1108 263.288 56.4148 260.504 56.4148 257.192C56.4148 253.904 54.1108 251.12 50.2708 251.12C46.4548 251.12 44.1508 253.904 44.1508 257.192C44.1508 260.504 46.4548 263.288 50.2708 263.288ZM50.2708 260.576C48.3748 260.576 47.3188 259.016 47.3188 257.192C47.3188 255.392 48.3748 253.832 50.2708 253.832C52.1668 253.832 53.2468 255.392 53.2468 257.192C53.2468 259.016 52.1668 260.576 50.2708 260.576ZM66.5001 263H69.5481V254.816C69.5481 252.56 68.3241 251.12 65.7801 251.12C63.8841 251.12 62.4681 252.032 61.7241 252.92V251.408H58.6761V263H61.7241V255.2C62.2281 254.504 63.1641 253.832 64.3641 253.832C65.6601 253.832 66.5001 254.384 66.5001 255.992V263ZM76.4625 263.288C77.7345 263.288 78.5505 262.952 79.0065 262.544L78.3585 260.24C78.1905 260.408 77.7585 260.576 77.3025 260.576C76.6305 260.576 76.2465 260.024 76.2465 259.304V254.072H78.5985V251.408H76.2465V248.24H73.1745V251.408H71.2545V254.072H73.1745V260.12C73.1745 262.184 74.3265 263.288 76.4625 263.288ZM80.6839 263H83.7319V255.344C84.2359 254.6 85.5799 254.048 86.5879 254.048C86.9239 254.048 87.2119 254.072 87.4279 254.12V251.144C85.9879 251.144 84.5479 251.96 83.7319 252.992V251.408H80.6839V263ZM90.8443 249.704C91.8523 249.704 92.6683 248.888 92.6683 247.88C92.6683 246.872 91.8523 246.056 90.8443 246.056C89.8603 246.056 89.0203 246.872 89.0203 247.88C89.0203 248.888 89.8603 249.704 90.8443 249.704ZM89.3323 263H92.3803V251.408H89.3323V263ZM95.4026 263H98.4506V261.536C99.3626 262.664 100.635 263.288 102.027 263.288C104.955 263.288 107.163 261.08 107.163 257.216C107.163 253.424 104.979 251.12 102.027 251.12C100.659 251.12 99.3626 251.72 98.4506 252.896V246.992H95.4026V263ZM98.4506 259.28V255.176C98.9546 254.408 100.083 253.832 101.067 253.832C102.843 253.832 104.019 255.2 104.019 257.216C104.019 259.232 102.843 260.576 101.067 260.576C100.083 260.576 98.9546 260.024 98.4506 259.28ZM117.289 263H120.337V251.408H117.289V259.256C116.761 259.928 115.825 260.576 114.649 260.576C113.353 260.576 112.513 260.048 112.513 258.44V251.408H109.465V259.64C109.465 261.896 110.665 263.288 113.209 263.288C115.105 263.288 116.497 262.424 117.289 261.536V263ZM127.252 263.288C128.524 263.288 129.34 262.952 129.796 262.544L129.148 260.24C128.98 260.408 128.548 260.576 128.092 260.576C127.42 260.576 127.036 260.024 127.036 259.304V254.072H129.388V251.408H127.036V248.24H123.964V251.408H122.044V254.072H123.964V260.12C123.964 262.184 125.116 263.288 127.252 263.288ZM130.729 257.192C130.729 260.912 133.393 263.288 136.921 263.288C138.721 263.288 140.521 262.76 141.697 261.68L140.353 259.712C139.609 260.432 138.337 260.864 137.257 260.864C135.289 260.864 134.113 259.64 133.921 258.176H142.537V257.504C142.537 253.712 140.185 251.12 136.729 251.12C133.201 251.12 130.729 253.832 130.729 257.192ZM136.729 253.544C138.745 253.544 139.513 255.008 139.585 256.112H133.873C134.017 254.96 134.833 253.544 136.729 253.544ZM154.767 263.288C156.039 263.288 156.855 262.952 157.311 262.544L156.663 260.24C156.495 260.408 156.063 260.576 155.607 260.576C154.935 260.576 154.551 260.024 154.551 259.304V254.072H156.903V251.408H154.551V248.24H151.479V251.408H149.559V254.072H151.479V260.12C151.479 262.184 152.631 263.288 154.767 263.288ZM164.365 263.288C168.205 263.288 170.509 260.504 170.509 257.192C170.509 253.904 168.205 251.12 164.365 251.12C160.549 251.12 158.245 253.904 158.245 257.192C158.245 260.504 160.549 263.288 164.365 263.288ZM164.365 260.576C162.469 260.576 161.413 259.016 161.413 257.192C161.413 255.392 162.469 253.832 164.365 253.832C166.261 253.832 167.341 255.392 167.341 257.192C167.341 259.016 166.261 260.576 164.365 260.576ZM199.043 263H202.475V246.992H197.675L193.787 256.976L189.899 246.992H185.123V263H188.531V251.48L193.043 263H194.531L199.043 251.48V263ZM204.838 257.192C204.838 260.912 207.502 263.288 211.03 263.288C212.83 263.288 214.63 262.76 215.806 261.68L214.462 259.712C213.718 260.432 212.446 260.864 211.366 260.864C209.398 260.864 208.222 259.64 208.03 258.176H216.646V257.504C216.646 253.712 214.294 251.12 210.838 251.12C207.31 251.12 204.838 253.832 204.838 257.192ZM210.838 253.544C212.854 253.544 213.622 255.008 213.694 256.112H207.982C208.126 254.96 208.942 253.544 210.838 253.544ZM225.808 263H228.856V255.512C228.856 252.176 226.432 251.12 223.792 251.12C221.968 251.12 220.144 251.696 218.728 252.944L219.88 254.984C220.864 254.072 222.016 253.616 223.264 253.616C224.8 253.616 225.808 254.384 225.808 255.56V257.168C225.04 256.232 223.672 255.752 222.136 255.752C220.288 255.752 218.104 256.736 218.104 259.448C218.104 262.04 220.288 263.288 222.136 263.288C223.648 263.288 225.016 262.736 225.808 261.8V263ZM225.808 260.216C225.304 260.888 224.344 261.224 223.36 261.224C222.16 261.224 221.176 260.6 221.176 259.52C221.176 258.416 222.16 257.768 223.36 257.768C224.344 257.768 225.304 258.104 225.808 258.776V260.216ZM239.703 263H242.751V254.816C242.751 252.56 241.527 251.12 238.983 251.12C237.087 251.12 235.671 252.032 234.927 252.92V251.408H231.879V263H234.927V255.2C235.431 254.504 236.367 253.832 237.567 253.832C238.863 253.832 239.703 254.384 239.703 255.992V263ZM247.29 249.704C248.298 249.704 249.114 248.888 249.114 247.88C249.114 246.872 248.298 246.056 247.29 246.056C246.306 246.056 245.466 246.872 245.466 247.88C245.466 248.888 246.306 249.704 247.29 249.704ZM245.778 263H248.826V251.408H245.778V263ZM259.672 263H262.72V254.816C262.72 252.56 261.496 251.12 258.952 251.12C257.056 251.12 255.64 252.032 254.896 252.92V251.408H251.848V263H254.896V255.2C255.4 254.504 256.336 253.832 257.536 253.832C258.832 253.832 259.672 254.384 259.672 255.992V263ZM265.506 265.976C266.946 267.248 268.506 267.704 270.498 267.704C273.354 267.704 276.762 266.624 276.762 262.208V251.408H273.69V252.896C272.754 251.72 271.506 251.12 270.114 251.12C267.186 251.12 265.002 253.232 265.002 257.024C265.002 260.888 267.21 262.928 270.114 262.928C271.53 262.928 272.778 262.256 273.69 261.104V262.28C273.69 264.56 271.962 265.208 270.498 265.208C269.034 265.208 267.81 264.8 266.874 263.768L265.506 265.976ZM273.69 258.896C273.186 259.64 272.082 260.216 271.074 260.216C269.346 260.216 268.146 259.016 268.146 257.024C268.146 255.032 269.346 253.832 271.074 253.832C272.082 253.832 273.186 254.384 273.69 255.152V258.896ZM280.457 263H283.529V254.072H285.881V251.408H283.529V250.832C283.529 249.728 284.105 249.152 284.969 249.152C285.329 249.152 285.689 249.224 285.953 249.392L286.577 247.232C286.025 246.944 285.233 246.752 284.369 246.752C282.089 246.752 280.457 248.264 280.457 250.784V251.408H278.537V254.072H280.457V263ZM295.461 263H298.509V251.408H295.461V259.256C294.933 259.928 293.997 260.576 292.821 260.576C291.525 260.576 290.685 260.048 290.685 258.44V251.408H287.637V259.64C287.637 261.896 288.837 263.288 291.381 263.288C293.277 263.288 294.669 262.424 295.461 261.536V263ZM301.535 263H304.583V246.992H301.535V263ZM119.639 287H123.047V281.264H127.127C130.583 281.264 132.503 278.936 132.503 276.152C132.503 273.344 130.607 270.992 127.127 270.992H119.639V287ZM129.023 276.128C129.023 277.472 128.015 278.336 126.671 278.336H123.047V273.92H126.671C128.015 273.92 129.023 274.808 129.023 276.128ZM134.543 287H137.591V279.344C138.095 278.6 139.439 278.048 140.447 278.048C140.783 278.048 141.071 278.072 141.287 278.12V275.144C139.847 275.144 138.407 275.96 137.591 276.992V275.408H134.543V287ZM148.568 287.288C152.408 287.288 154.712 284.504 154.712 281.192C154.712 277.904 152.408 275.12 148.568 275.12C144.752 275.12 142.448 277.904 142.448 281.192C142.448 284.504 144.752 287.288 148.568 287.288ZM148.568 284.576C146.672 284.576 145.616 283.016 145.616 281.192C145.616 279.392 146.672 277.832 148.568 277.832C150.464 277.832 151.544 279.392 151.544 281.192C151.544 283.016 150.464 284.576 148.568 284.576ZM164.941 287H168.013V270.992H164.941V276.896C164.029 275.72 162.733 275.12 161.365 275.12C158.413 275.12 156.229 277.424 156.229 281.216C156.229 285.08 158.437 287.288 161.365 287.288C162.757 287.288 164.029 286.664 164.941 285.536V287ZM164.941 283.256C164.413 284.024 163.333 284.576 162.301 284.576C160.573 284.576 159.373 283.208 159.373 281.216C159.373 279.2 160.573 277.832 162.301 277.832C163.333 277.832 164.413 278.384 164.941 279.152V283.256ZM178.859 287H181.907V275.408H178.859V283.256C178.331 283.928 177.395 284.576 176.219 284.576C174.923 284.576 174.083 284.048 174.083 282.44V275.408H171.035V283.64C171.035 285.896 172.235 287.288 174.779 287.288C176.675 287.288 178.067 286.424 178.859 285.536V287ZM184.19 281.192C184.19 284.768 186.758 287.288 190.334 287.288C192.71 287.288 194.15 286.256 194.918 285.176L192.926 283.328C192.374 284.096 191.534 284.576 190.478 284.576C188.63 284.576 187.334 283.208 187.334 281.192C187.334 279.176 188.63 277.832 190.478 277.832C191.534 277.832 192.374 278.288 192.926 279.08L194.918 277.232C194.15 276.152 192.71 275.12 190.334 275.12C186.758 275.12 184.19 277.64 184.19 281.192ZM200.798 287.288C202.07 287.288 202.886 286.952 203.342 286.544L202.694 284.24C202.526 284.408 202.094 284.576 201.638 284.576C200.966 284.576 200.582 284.024 200.582 283.304V278.072H202.934V275.408H200.582V272.24H197.51V275.408H195.59V278.072H197.51V284.12C197.51 286.184 198.662 287.288 200.798 287.288ZM204.012 285.488C205.236 286.616 207.18 287.288 209.196 287.288C212.412 287.288 214.212 285.704 214.212 283.568C214.212 280.688 211.548 280.16 209.556 279.776C208.26 279.512 207.348 279.248 207.348 278.528C207.348 277.856 208.068 277.448 209.172 277.448C210.588 277.448 211.908 278.048 212.604 278.792L213.804 276.704C212.676 275.792 211.116 275.12 209.148 275.12C206.1 275.12 204.396 276.824 204.396 278.768C204.396 281.528 206.964 282.008 208.956 282.392C210.276 282.656 211.284 282.944 211.284 283.76C211.284 284.48 210.66 284.936 209.34 284.936C207.9 284.936 206.172 284.144 205.332 283.352L204.012 285.488Z" fill="#FEFEFE"/>
<line x1="0.5" y1="-0.5" x2="162.855" y2="-0.5" transform="matrix(0.999925 -0.0122432 0.00410799 0.999992 84 309.572)" stroke="#FEFEFE" stroke-linecap="square" stroke-dasharray="6 12"/>
<path d="M230.597 139.093L221.195 119.374C220.787 118.547 220.105 117.857 219.151 117.582L185.223 105.585L193.126 97.5869C196.26 94.4153 197.895 90.1406 197.759 85.728C197.622 81.1774 195.715 77.1785 192.308 74.1448C186.04 68.629 176.366 69.0427 170.234 75.1101L169.962 75.5238L169.144 74.6964C166.01 71.5248 161.65 69.8701 157.426 70.008C152.929 70.1459 148.978 72.0764 145.98 75.5238C140.53 81.8669 140.938 91.6574 146.934 97.8627L154.564 105.585L120.772 117.582C119.818 117.857 119.137 118.547 118.728 119.374L109.326 139.093C108.917 140.058 108.917 141.024 109.19 141.989C109.735 142.954 110.416 143.782 111.37 144.057L118.319 146.54V180.324C118.319 181.841 119.273 183.22 120.772 183.771L168.735 200.87C169.144 201.008 169.553 201.008 169.962 201.008C170.37 201.008 170.779 201.008 171.188 200.87L219.151 183.771C220.514 183.22 221.604 181.841 221.604 180.324V146.54L228.553 144.057C229.507 143.782 230.325 142.954 230.733 141.989C231.006 141.162 231.006 140.058 230.597 139.093ZM151.294 80.2122C152.929 78.2817 155.109 77.3164 157.562 77.1785C157.698 77.1785 157.698 77.1785 157.835 77.1785C160.151 77.1785 162.331 78.1438 163.966 79.7985L167.236 83.108C168.599 84.4869 170.916 84.4869 172.278 83.108L175.412 80.0743C178.819 76.6269 184.269 76.3511 187.675 79.3848C189.583 81.0396 190.537 83.2459 190.673 85.728C190.809 88.2101 189.856 90.5543 188.084 92.3469L169.962 110.825L151.975 92.6227C148.569 89.1753 148.296 83.7974 151.294 80.2122ZM117.502 138.68L123.77 125.442L164.92 140.058L158.652 153.296L117.502 138.68ZM166.419 192.321L125.541 177.842V149.16L159.333 161.156C159.742 161.294 160.151 161.294 160.56 161.294C161.922 161.294 163.149 160.467 163.83 159.226L166.419 153.71V192.321ZM169.962 134.129L132.763 120.891L160.151 111.101L165.056 116.065C166.419 117.444 168.19 118.133 169.825 118.133C171.461 118.133 173.368 117.444 174.595 116.065L179.5 111.101L207.024 120.891L169.962 134.129ZM214.382 177.842L173.504 192.321V153.848L176.093 159.364C176.638 160.605 178.001 161.432 179.364 161.432C179.772 161.432 180.181 161.432 180.59 161.294L214.382 149.297V177.842ZM181.135 153.296L174.867 140.058L216.017 125.442L222.285 138.68L181.135 153.296Z" fill="#FEFEFE"/>
</svg>
