<svg width="428" height="253" viewBox="0 0 428 253" fill="none" xmlns="http://www.w3.org/2000/svg">
<path opacity="0.4" d="M425.9 94.3656H73.552C67.7562 37.287 141.703 23.5704 141.703 23.5704L134.708 2.00001C105.329 2.00001 82.4457 6.9778 64.6584 14.4998C33.4807 27.7739 11.0967 57.4194 4.00175 92.4851C1.7034 103.989 1.40361 115.825 3.00247 127.44L18.991 244.031C19.4907 248.013 22.5885 251 26.2858 251H426V94.3656H425.9Z" stroke="#00C9B1" stroke-width="3" stroke-miterlimit="10"/>
<path d="M43.0287 125.52L42.4287 132.27H40.2087L40.3587 125.52H43.0287ZM38.5587 125.52L37.9287 132.27H35.7387L35.8587 125.52H38.5587ZM51.5175 147.24L46.9875 131.13C46.7675 130.43 46.5775 129.81 46.4175 129.27C46.2575 128.71 46.1775 128.25 46.1775 127.89C45.8575 127.91 45.5675 127.93 45.3075 127.95C45.0475 127.95 44.7975 127.96 44.5575 127.98L44.6475 126H52.8975L52.7775 127.65C51.8975 127.65 51.2975 127.83 50.9775 128.19C50.6575 128.55 50.6075 129.23 50.8275 130.23L52.4475 137.13C52.6075 137.89 52.7675 138.61 52.9275 139.29C53.0875 139.95 53.2575 140.75 53.4375 141.69H53.4975C53.5775 141.39 53.7075 140.99 53.8875 140.49C54.0675 139.97 54.2475 139.42 54.4275 138.84C54.6275 138.26 54.8075 137.74 54.9675 137.28C55.1275 136.8 55.2475 136.45 55.3275 136.23L59.0475 125.97H61.1175L64.0275 137.1C64.2275 137.86 64.4075 138.64 64.5675 139.44C64.7475 140.22 64.9175 141.01 65.0775 141.81H65.1375C65.3575 141.19 65.5875 140.54 65.8275 139.86C66.0675 139.18 66.3075 138.47 66.5475 137.73C66.8475 136.89 67.1175 136.13 67.3575 135.45C67.5975 134.77 67.8075 134.15 67.9875 133.59C68.1875 133.01 68.3675 132.47 68.5275 131.97C68.7075 131.45 68.8875 130.94 69.0675 130.44C69.2075 130 69.3775 129.55 69.5775 129.09C69.7975 128.61 70.0475 128.2 70.3275 127.86C69.9675 127.88 69.5575 127.9 69.0975 127.92C68.6375 127.94 68.2675 127.96 67.9875 127.98L68.0775 126H74.6175L74.5275 127.65C74.1275 127.69 73.7675 127.77 73.4475 127.89C73.1275 128.01 72.8275 128.2 72.5475 128.46C72.2875 128.72 72.0275 129.08 71.7675 129.54C71.5075 130 71.2475 130.58 70.9875 131.28L65.0775 147.24H63.0675L59.9475 136.14C59.6875 135.26 59.4875 134.46 59.3475 133.74C59.2075 133.02 59.0775 132.34 58.9575 131.7H58.8975C58.7175 132.36 58.5275 133.01 58.3275 133.65C58.1475 134.29 57.9275 134.95 57.6675 135.63L53.4375 147.24H51.5175ZM80.3304 131.67C81.1504 131.67 81.8904 131.8 82.5504 132.06C83.2304 132.3 83.7604 132.69 84.1404 133.23C84.5204 133.77 84.7104 134.47 84.7104 135.33C84.7104 136.15 84.4504 136.85 83.9304 137.43C83.4304 138.01 82.7604 138.49 81.9204 138.87C81.1004 139.23 80.2104 139.53 79.2504 139.77C78.2904 140.01 77.3604 140.18 76.4604 140.28C76.4604 141.46 76.5904 142.4 76.8504 143.1C77.1104 143.78 77.4604 144.27 77.9004 144.57C78.3604 144.85 78.8604 144.99 79.4004 144.99C79.8204 144.99 80.2804 144.91 80.7804 144.75C81.3004 144.57 81.8104 144.25 82.3104 143.79C82.8104 143.33 83.2504 142.69 83.6304 141.87L85.0704 142.59C84.5104 143.81 83.8904 144.77 83.2104 145.47C82.5304 146.15 81.8104 146.63 81.0504 146.91C80.2904 147.19 79.5004 147.33 78.6804 147.33C76.8204 147.35 75.3804 146.8 74.3604 145.68C73.3404 144.56 72.8304 142.94 72.8304 140.82C72.8304 139.78 72.9804 138.73 73.2804 137.67C73.5804 136.59 74.0304 135.6 74.6304 134.7C75.2504 133.8 76.0304 133.07 76.9704 132.51C77.9104 131.95 79.0304 131.67 80.3304 131.67ZM79.9704 133.32C79.2104 133.32 78.5904 133.59 78.1104 134.13C77.6304 134.65 77.2604 135.32 77.0004 136.14C76.7604 136.94 76.6004 137.77 76.5204 138.63C77.6004 138.45 78.5104 138.19 79.2504 137.85C79.9904 137.49 80.5604 137.07 80.9604 136.59C81.3604 136.11 81.5604 135.58 81.5604 135C81.5404 134.46 81.3804 134.05 81.0804 133.77C80.7804 133.47 80.4104 133.32 79.9704 133.32ZM91.0629 125.52L90.4329 132.27H88.0629L88.1829 125.52H91.0629ZM94.5844 147C94.5444 146.68 94.5244 146.45 94.5244 146.31C94.5244 146.15 94.5244 145.97 94.5244 145.77C94.5244 145.39 94.5444 144.93 94.5844 144.39C94.6244 143.83 94.6744 143.19 94.7344 142.47C94.8144 141.75 94.9044 140.96 95.0044 140.1C95.1244 139.2 95.2244 138.42 95.3044 137.76C95.4044 137.1 95.4744 136.56 95.5144 136.14C95.5544 135.7 95.5744 135.36 95.5744 135.12C95.5944 134.76 95.5544 134.49 95.4544 134.31C95.3744 134.13 95.2344 134.04 95.0344 134.04C94.7744 134.04 94.4944 134.23 94.1944 134.61C93.8944 134.97 93.6144 135.63 93.3544 136.59L91.9744 136.2C92.0544 135.8 92.1844 135.34 92.3644 134.82C92.5444 134.3 92.7944 133.8 93.1144 133.32C93.4344 132.84 93.8244 132.45 94.2844 132.15C94.7444 131.83 95.2944 131.67 95.9344 131.67C96.6744 131.67 97.2644 131.9 97.7044 132.36C98.1444 132.82 98.3644 133.58 98.3644 134.64C98.3444 135 98.3044 135.42 98.2444 135.9C98.1844 136.36 98.1044 136.88 98.0044 137.46H98.0644C98.6044 135.86 99.1644 134.65 99.7444 133.83C100.344 132.99 100.934 132.42 101.514 132.12C102.114 131.82 102.684 131.67 103.224 131.67C103.924 131.67 104.494 131.86 104.934 132.24C105.374 132.62 105.594 133.13 105.594 133.77C105.594 134.23 105.424 134.65 105.084 135.03C104.764 135.41 104.334 135.6 103.794 135.6C103.394 135.6 103.034 135.47 102.714 135.21C102.394 134.95 102.234 134.6 102.234 134.16C101.834 134.08 101.424 134.27 101.004 134.73C100.604 135.17 100.214 135.79 99.8344 136.59C99.4744 137.39 99.1544 138.28 98.8744 139.26C98.5944 140.24 98.3644 141.24 98.1844 142.26C98.0244 143.28 97.9444 144.24 97.9444 145.14C97.9444 145.4 97.9544 145.72 97.9744 146.1C97.9944 146.46 98.0144 146.76 98.0344 147H94.5844ZM113.7 131.67C114.52 131.67 115.26 131.8 115.92 132.06C116.6 132.3 117.13 132.69 117.51 133.23C117.89 133.77 118.08 134.47 118.08 135.33C118.08 136.15 117.82 136.85 117.3 137.43C116.8 138.01 116.13 138.49 115.29 138.87C114.47 139.23 113.58 139.53 112.62 139.77C111.66 140.01 110.73 140.18 109.83 140.28C109.83 141.46 109.96 142.4 110.22 143.1C110.48 143.78 110.83 144.27 111.27 144.57C111.73 144.85 112.23 144.99 112.77 144.99C113.19 144.99 113.65 144.91 114.15 144.75C114.67 144.57 115.18 144.25 115.68 143.79C116.18 143.33 116.62 142.69 117 141.87L118.44 142.59C117.88 143.81 117.26 144.77 116.58 145.47C115.9 146.15 115.18 146.63 114.42 146.91C113.66 147.19 112.87 147.33 112.05 147.33C110.19 147.35 108.75 146.8 107.73 145.68C106.71 144.56 106.2 142.94 106.2 140.82C106.2 139.78 106.35 138.73 106.65 137.67C106.95 136.59 107.4 135.6 108 134.7C108.62 133.8 109.4 133.07 110.34 132.51C111.28 131.95 112.4 131.67 113.7 131.67ZM113.34 133.32C112.58 133.32 111.96 133.59 111.48 134.13C111 134.65 110.63 135.32 110.37 136.14C110.13 136.94 109.97 137.77 109.89 138.63C110.97 138.45 111.88 138.19 112.62 137.85C113.36 137.49 113.93 137.07 114.33 136.59C114.73 136.11 114.93 135.58 114.93 135C114.91 134.46 114.75 134.05 114.45 133.77C114.15 133.47 113.78 133.32 113.34 133.32ZM134.291 124.35C134.231 124.93 134.161 125.52 134.081 126.12C134.001 126.72 133.921 127.3 133.841 127.86C133.781 128.42 133.721 128.95 133.661 129.45C133.481 131.01 133.311 132.45 133.151 133.77C133.011 135.07 132.881 136.26 132.761 137.34C132.661 138.4 132.571 139.35 132.491 140.19C132.411 141.01 132.351 141.73 132.311 142.35C132.271 142.95 132.251 143.46 132.251 143.88C132.251 144.24 132.291 144.51 132.371 144.69C132.471 144.87 132.611 144.96 132.791 144.96C133.071 144.96 133.361 144.78 133.661 144.42C133.961 144.04 134.241 143.37 134.501 142.41L135.881 142.8C135.781 143.26 135.621 143.75 135.401 144.27C135.181 144.79 134.891 145.29 134.531 145.77C134.191 146.23 133.771 146.61 133.271 146.91C132.771 147.19 132.181 147.33 131.501 147.33C130.741 147.33 130.121 147.12 129.641 146.7C129.161 146.26 128.911 145.56 128.891 144.6C128.891 143.96 128.921 143.19 128.981 142.29C129.041 141.39 129.111 140.41 129.191 139.35C129.291 138.29 129.401 137.2 129.521 136.08C129.641 134.94 129.761 133.81 129.881 132.69C130.021 131.55 130.151 130.47 130.271 129.45C130.331 128.99 130.391 128.57 130.451 128.19C130.511 127.79 130.571 127.41 130.631 127.05C130.291 127.07 129.921 127.09 129.521 127.11C129.121 127.11 128.791 127.12 128.531 127.14L128.651 125.22C129.551 125.22 130.291 125.18 130.871 125.1C131.451 125 131.901 124.88 132.221 124.74C132.561 124.6 132.801 124.47 132.941 124.35H134.291ZM144.608 131.67C145.728 131.67 146.728 131.93 147.608 132.45C148.508 132.97 149.218 133.73 149.738 134.73C150.278 135.71 150.548 136.91 150.548 138.33C150.548 139.91 150.248 141.39 149.648 142.77C149.048 144.15 148.188 145.26 147.068 146.1C145.968 146.92 144.638 147.33 143.078 147.33C141.738 147.33 140.628 147.03 139.748 146.43C138.868 145.81 138.208 144.99 137.768 143.97C137.348 142.93 137.138 141.79 137.138 140.55C137.138 138.95 137.438 137.48 138.038 136.14C138.638 134.78 139.498 133.7 140.618 132.9C141.738 132.08 143.068 131.67 144.608 131.67ZM144.158 133.35C143.478 133.33 142.878 133.61 142.358 134.19C141.838 134.75 141.438 135.51 141.158 136.47C140.878 137.43 140.738 138.49 140.738 139.65C140.718 140.29 140.748 140.96 140.828 141.66C140.908 142.34 141.048 142.98 141.248 143.58C141.468 144.18 141.758 144.67 142.118 145.05C142.478 145.43 142.928 145.62 143.468 145.62C144.088 145.64 144.608 145.44 145.028 145.02C145.468 144.6 145.818 144.06 146.078 143.4C146.338 142.74 146.528 142.04 146.648 141.3C146.788 140.56 146.868 139.86 146.888 139.2C146.908 138.62 146.878 137.99 146.798 137.31C146.738 136.63 146.608 135.99 146.408 135.39C146.228 134.79 145.948 134.31 145.568 133.95C145.208 133.57 144.738 133.37 144.158 133.35ZM160.106 131.67C161.226 131.67 162.226 131.93 163.106 132.45C164.006 132.97 164.716 133.73 165.236 134.73C165.776 135.71 166.046 136.91 166.046 138.33C166.046 139.91 165.746 141.39 165.146 142.77C164.546 144.15 163.686 145.26 162.566 146.1C161.466 146.92 160.136 147.33 158.576 147.33C157.236 147.33 156.126 147.03 155.246 146.43C154.366 145.81 153.706 144.99 153.266 143.97C152.846 142.93 152.636 141.79 152.636 140.55C152.636 138.95 152.936 137.48 153.536 136.14C154.136 134.78 154.996 133.7 156.116 132.9C157.236 132.08 158.566 131.67 160.106 131.67ZM159.656 133.35C158.976 133.33 158.376 133.61 157.856 134.19C157.336 134.75 156.936 135.51 156.656 136.47C156.376 137.43 156.236 138.49 156.236 139.65C156.216 140.29 156.246 140.96 156.326 141.66C156.406 142.34 156.546 142.98 156.746 143.58C156.966 144.18 157.256 144.67 157.616 145.05C157.976 145.43 158.426 145.62 158.966 145.62C159.586 145.64 160.106 145.44 160.526 145.02C160.966 144.6 161.316 144.06 161.576 143.4C161.836 142.74 162.026 142.04 162.146 141.3C162.286 140.56 162.366 139.86 162.386 139.2C162.406 138.62 162.376 137.99 162.296 137.31C162.236 136.63 162.106 135.99 161.906 135.39C161.726 134.79 161.446 134.31 161.066 133.95C160.706 133.57 160.236 133.37 159.656 133.35ZM178.424 147.33C177.584 147.33 176.884 147.04 176.324 146.46C175.784 145.88 175.254 144.87 174.734 143.43C174.474 142.75 174.234 142.2 174.014 141.78C173.814 141.34 173.544 141.07 173.204 140.97C173.104 140.93 173.004 140.9 172.904 140.88C172.804 140.86 172.694 140.87 172.574 140.91C172.434 141.55 172.314 142.27 172.214 143.07C172.134 143.85 172.094 144.54 172.094 145.14C172.094 145.4 172.104 145.71 172.124 146.07C172.144 146.41 172.164 146.72 172.184 147H168.764C168.724 146.68 168.704 146.44 168.704 146.28C168.704 146.12 168.704 145.95 168.704 145.77C168.704 145.43 168.724 144.85 168.764 144.03C168.804 143.19 168.854 142.2 168.914 141.06C168.994 139.9 169.084 138.65 169.184 137.31C169.304 135.97 169.424 134.63 169.544 133.29C169.684 131.93 169.844 130.64 170.024 129.42C170.064 128.98 170.114 128.57 170.174 128.19C170.254 127.81 170.334 127.43 170.414 127.05C170.074 127.07 169.694 127.09 169.274 127.11C168.854 127.11 168.514 127.12 168.254 127.14L168.374 125.22C169.294 125.22 170.044 125.18 170.624 125.1C171.204 125 171.654 124.88 171.974 124.74C172.314 124.6 172.554 124.47 172.694 124.35H174.074C173.974 124.99 173.864 125.67 173.744 126.39C173.644 127.11 173.544 127.84 173.444 128.58C173.364 129.3 173.284 130.02 173.204 130.74C173.084 131.74 172.964 132.7 172.844 133.62C172.724 134.54 172.614 135.43 172.514 136.29H172.544C173.044 135.11 173.584 134.19 174.164 133.53C174.744 132.85 175.334 132.37 175.934 132.09C176.534 131.81 177.124 131.67 177.704 131.67C178.444 131.67 179.044 131.81 179.504 132.09C179.964 132.37 180.304 132.75 180.524 133.23C180.744 133.71 180.854 134.26 180.854 134.88C180.854 135.5 180.664 136.19 180.284 136.95C179.904 137.69 179.294 138.37 178.454 138.99C177.634 139.61 176.524 140.06 175.124 140.34V140.37C175.904 140.39 176.474 140.59 176.834 140.97C177.214 141.35 177.514 141.81 177.734 142.35C177.934 142.77 178.114 143.17 178.274 143.55C178.454 143.93 178.634 144.23 178.814 144.45C178.994 144.67 179.184 144.78 179.384 144.78C179.644 144.8 179.884 144.67 180.104 144.39C180.324 144.09 180.544 143.56 180.764 142.8L182.114 143.19C181.974 143.85 181.744 144.5 181.424 145.14C181.104 145.76 180.694 146.28 180.194 146.7C179.694 147.12 179.104 147.33 178.424 147.33ZM172.814 139.32C174.434 139.32 175.644 138.94 176.444 138.18C177.244 137.4 177.644 136.33 177.644 134.97C177.644 134.71 177.614 134.47 177.554 134.25C177.494 134.01 177.394 133.82 177.254 133.68C177.114 133.52 176.914 133.45 176.654 133.47C176.254 133.47 175.804 133.72 175.304 134.22C174.804 134.7 174.334 135.38 173.894 136.26C173.454 137.14 173.094 138.16 172.814 139.32ZM187.17 131.67C188.15 131.67 188.84 131.98 189.24 132.6C189.66 133.2 189.87 134.01 189.87 135.03C189.87 135.55 189.82 136.21 189.72 137.01C189.62 137.81 189.5 138.66 189.36 139.56C189.24 140.46 189.12 141.31 189 142.11C188.9 142.89 188.85 143.53 188.85 144.03C188.85 144.37 188.91 144.61 189.03 144.75C189.15 144.89 189.3 144.96 189.48 144.96C189.74 144.96 190.02 144.78 190.32 144.42C190.62 144.04 190.91 143.37 191.19 142.41L192.54 142.8C192.46 143.22 192.31 143.69 192.09 144.21C191.87 144.73 191.58 145.23 191.22 145.71C190.88 146.17 190.46 146.56 189.96 146.88C189.46 147.18 188.89 147.33 188.25 147.33C187.21 147.33 186.48 147.05 186.06 146.49C185.64 145.93 185.43 145.14 185.43 144.12C185.43 143.44 185.48 142.7 185.58 141.9C185.7 141.08 185.83 140.26 185.97 139.44C186.11 138.6 186.23 137.8 186.33 137.04C186.43 136.28 186.48 135.6 186.48 135C186.48 134.68 186.43 134.44 186.33 134.28C186.23 134.12 186.08 134.04 185.88 134.04C185.64 134.04 185.37 134.23 185.07 134.61C184.77 134.97 184.48 135.63 184.2 136.59L182.85 136.2C182.91 135.8 183.05 135.34 183.27 134.82C183.49 134.3 183.78 133.8 184.14 133.32C184.52 132.84 184.96 132.45 185.46 132.15C185.96 131.83 186.53 131.67 187.17 131.67ZM188.46 124.47C189.04 124.47 189.52 124.68 189.9 125.1C190.28 125.52 190.45 126.05 190.41 126.69C190.41 127.31 190.21 127.83 189.81 128.25C189.41 128.67 188.91 128.88 188.31 128.88C187.71 128.88 187.22 128.67 186.84 128.25C186.48 127.83 186.3 127.31 186.3 126.69C186.34 126.05 186.57 125.52 186.99 125.1C187.41 124.68 187.9 124.47 188.46 124.47ZM206.638 147.33C205.578 147.33 204.858 147.05 204.478 146.49C204.118 145.91 203.938 145.12 203.938 144.12C203.938 143.52 203.978 142.85 204.058 142.11C204.138 141.35 204.228 140.57 204.328 139.77C204.448 138.95 204.548 138.17 204.628 137.43C204.708 136.67 204.748 136 204.748 135.42C204.748 135.14 204.718 134.89 204.658 134.67C204.598 134.45 204.488 134.28 204.328 134.16C204.188 134.04 203.988 133.98 203.728 133.98C203.288 133.98 202.848 134.22 202.408 134.7C201.968 135.16 201.538 135.79 201.118 136.59C200.718 137.37 200.358 138.24 200.038 139.2C199.718 140.16 199.458 141.15 199.258 142.17C199.078 143.17 198.988 144.12 198.988 145.02C198.988 145.3 198.998 145.64 199.018 146.04C199.038 146.44 199.058 146.76 199.078 147H195.658C195.618 146.68 195.588 146.45 195.568 146.31C195.568 146.15 195.568 145.97 195.568 145.77C195.568 145.39 195.588 144.94 195.628 144.42C195.688 143.88 195.758 143.26 195.838 142.56C195.918 141.86 196.008 141.08 196.108 140.22C196.208 139.46 196.288 138.8 196.348 138.24C196.428 137.68 196.488 137.2 196.528 136.8C196.588 136.38 196.628 136.03 196.648 135.75C196.668 135.45 196.678 135.2 196.678 135C196.678 134.66 196.628 134.42 196.528 134.28C196.448 134.12 196.318 134.04 196.138 134.04C195.878 134.04 195.598 134.23 195.298 134.61C194.998 134.97 194.718 135.63 194.458 136.59L193.078 136.2C193.158 135.8 193.288 135.34 193.468 134.82C193.648 134.3 193.898 133.8 194.218 133.32C194.538 132.84 194.928 132.45 195.388 132.15C195.848 131.83 196.398 131.67 197.038 131.67C197.558 131.67 197.998 131.79 198.358 132.03C198.738 132.25 199.018 132.59 199.198 133.05C199.398 133.49 199.488 134.06 199.468 134.76C199.448 135.2 199.408 135.59 199.348 135.93C199.308 136.27 199.258 136.62 199.198 136.98H199.258C199.798 135.56 200.368 134.47 200.968 133.71C201.568 132.93 202.178 132.4 202.798 132.12C203.418 131.82 204.028 131.67 204.628 131.67C205.468 131.67 206.138 131.86 206.638 132.24C207.158 132.6 207.538 133.11 207.778 133.77C208.018 134.43 208.138 135.19 208.138 136.05C208.138 136.89 208.068 137.8 207.928 138.78C207.808 139.74 207.678 140.68 207.538 141.6C207.398 142.5 207.328 143.3 207.328 144C207.328 144.32 207.378 144.56 207.478 144.72C207.578 144.88 207.718 144.96 207.898 144.96C208.158 144.96 208.438 144.78 208.738 144.42C209.038 144.04 209.318 143.37 209.578 142.41L210.958 142.8C210.878 143.2 210.728 143.66 210.508 144.18C210.288 144.7 209.998 145.2 209.638 145.68C209.278 146.16 208.848 146.56 208.348 146.88C207.848 147.18 207.278 147.33 206.638 147.33ZM216.457 155.13C215.857 155.13 215.267 155.07 214.687 154.95C214.127 154.85 213.627 154.68 213.187 154.44C212.747 154.2 212.397 153.89 212.137 153.51C211.877 153.15 211.737 152.72 211.717 152.22C211.717 151.94 211.787 151.64 211.927 151.32C212.067 151.02 212.267 150.77 212.527 150.57C212.787 150.37 213.127 150.27 213.547 150.27C214.027 150.27 214.427 150.42 214.747 150.72C215.087 151.02 215.257 151.44 215.257 151.98C215.257 152.28 215.197 152.57 215.077 152.85C215.197 153.03 215.427 153.17 215.767 153.27C216.127 153.39 216.447 153.45 216.727 153.45C217.627 153.45 218.337 153.2 218.857 152.7C219.377 152.2 219.767 151.52 220.027 150.66C220.287 149.82 220.487 148.88 220.627 147.84C220.767 146.74 220.897 145.73 221.017 144.81C221.157 143.87 221.327 142.97 221.527 142.11H221.497C221.097 143.17 220.687 144.05 220.267 144.75C219.847 145.43 219.407 145.96 218.947 146.34C218.507 146.7 218.057 146.95 217.597 147.09C217.157 147.25 216.707 147.33 216.247 147.33C215.447 147.33 214.737 147.12 214.117 146.7C213.497 146.26 213.007 145.63 212.647 144.81C212.307 143.97 212.137 142.95 212.137 141.75C212.137 140.39 212.297 139.11 212.617 137.91C212.957 136.69 213.477 135.62 214.177 134.7C214.897 133.76 215.807 133.02 216.907 132.48C218.027 131.94 219.337 131.67 220.837 131.67C221.437 131.67 222.137 131.72 222.937 131.82C223.737 131.92 224.487 132.07 225.187 132.27C225.127 133.15 225.057 134.18 224.977 135.36C224.897 136.54 224.807 137.77 224.707 139.05C224.627 140.33 224.537 141.58 224.437 142.8C224.337 144.02 224.237 145.11 224.137 146.07C223.977 147.97 223.607 149.59 223.027 150.93C222.447 152.29 221.617 153.33 220.537 154.05C219.457 154.77 218.097 155.13 216.457 155.13ZM217.267 145.08C217.747 145.08 218.197 144.84 218.617 144.36C219.057 143.88 219.457 143.23 219.817 142.41C220.177 141.59 220.487 140.68 220.747 139.68C221.027 138.66 221.257 137.63 221.437 136.59C221.617 135.53 221.737 134.53 221.797 133.59C221.617 133.53 221.377 133.48 221.077 133.44C220.797 133.38 220.507 133.35 220.207 133.35C219.387 133.35 218.687 133.56 218.107 133.98C217.527 134.4 217.057 135 216.697 135.78C216.357 136.54 216.097 137.42 215.917 138.42C215.757 139.42 215.677 140.51 215.677 141.69C215.677 142.35 215.737 142.94 215.857 143.46C215.977 143.96 216.157 144.36 216.397 144.66C216.637 144.94 216.927 145.08 217.267 145.08ZM244.395 124.2C245.235 124.2 245.885 124.39 246.345 124.77C246.805 125.13 247.035 125.61 247.035 126.21C247.035 126.39 246.985 126.61 246.885 126.87C246.785 127.13 246.615 127.36 246.375 127.56C246.135 127.74 245.805 127.83 245.385 127.83C244.965 127.81 244.615 127.64 244.335 127.32C244.055 126.98 243.945 126.57 244.005 126.09C243.985 126.05 243.915 126.03 243.795 126.03C243.695 126.01 243.585 126 243.465 126C243.085 126.02 242.765 126.21 242.505 126.57C242.265 126.91 242.065 127.38 241.905 127.98C241.745 128.56 241.625 129.2 241.545 129.9C241.465 130.6 241.385 131.3 241.305 132H245.325L245.145 133.77L241.215 133.83C241.155 134.57 241.095 135.42 241.035 136.38C240.975 137.32 240.905 138.3 240.825 139.32C240.745 140.34 240.665 141.33 240.585 142.29C240.505 143.25 240.425 144.11 240.345 144.87C240.225 145.97 240.065 147.02 239.865 148.02C239.685 149.04 239.445 149.98 239.145 150.84C238.845 151.7 238.455 152.45 237.975 153.09C237.495 153.75 236.905 154.25 236.205 154.59C235.525 154.95 234.715 155.13 233.775 155.13C232.915 155.13 232.255 154.95 231.795 154.59C231.335 154.25 231.105 153.78 231.105 153.18C231.105 152.96 231.155 152.72 231.255 152.46C231.355 152.2 231.535 151.97 231.795 151.77C232.035 151.57 232.355 151.48 232.755 151.5C233.175 151.52 233.525 151.69 233.805 152.01C234.065 152.33 234.165 152.73 234.105 153.21C234.265 153.29 234.455 153.33 234.675 153.33C235.135 153.33 235.495 153.08 235.755 152.58C236.035 152.1 236.245 151.45 236.385 150.63C236.525 149.81 236.635 148.89 236.715 147.87C236.815 146.85 236.915 145.82 237.015 144.78C237.075 144.02 237.135 143.17 237.195 142.23C237.275 141.27 237.345 140.29 237.405 139.29C237.485 138.27 237.565 137.29 237.645 136.35C237.725 135.41 237.795 134.58 237.855 133.86L235.365 133.89L235.605 132H238.065C238.265 130.48 238.595 129.14 239.055 127.98C239.535 126.82 240.205 125.9 241.065 125.22C241.925 124.54 243.035 124.2 244.395 124.2ZM253.123 131.67C254.243 131.67 255.243 131.93 256.123 132.45C257.023 132.97 257.733 133.73 258.253 134.73C258.793 135.71 259.063 136.91 259.063 138.33C259.063 139.91 258.763 141.39 258.163 142.77C257.563 144.15 256.703 145.26 255.583 146.1C254.483 146.92 253.153 147.33 251.593 147.33C250.253 147.33 249.143 147.03 248.263 146.43C247.383 145.81 246.723 144.99 246.283 143.97C245.863 142.93 245.653 141.79 245.653 140.55C245.653 138.95 245.953 137.48 246.553 136.14C247.153 134.78 248.013 133.7 249.133 132.9C250.253 132.08 251.583 131.67 253.123 131.67ZM252.673 133.35C251.993 133.33 251.393 133.61 250.873 134.19C250.353 134.75 249.953 135.51 249.673 136.47C249.393 137.43 249.253 138.49 249.253 139.65C249.233 140.29 249.263 140.96 249.343 141.66C249.423 142.34 249.563 142.98 249.763 143.58C249.983 144.18 250.273 144.67 250.633 145.05C250.993 145.43 251.443 145.62 251.983 145.62C252.603 145.64 253.123 145.44 253.543 145.02C253.983 144.6 254.333 144.06 254.593 143.4C254.853 142.74 255.043 142.04 255.163 141.3C255.303 140.56 255.383 139.86 255.403 139.2C255.423 138.62 255.393 137.99 255.313 137.31C255.253 136.63 255.123 135.99 254.923 135.39C254.743 134.79 254.463 134.31 254.083 133.95C253.723 133.57 253.253 133.37 252.673 133.35ZM263.041 147C263.001 146.68 262.981 146.45 262.981 146.31C262.981 146.15 262.981 145.97 262.981 145.77C262.981 145.39 263.001 144.93 263.041 144.39C263.081 143.83 263.131 143.19 263.191 142.47C263.271 141.75 263.361 140.96 263.461 140.1C263.581 139.2 263.681 138.42 263.761 137.76C263.861 137.1 263.931 136.56 263.971 136.14C264.011 135.7 264.031 135.36 264.031 135.12C264.051 134.76 264.011 134.49 263.911 134.31C263.831 134.13 263.691 134.04 263.491 134.04C263.231 134.04 262.951 134.23 262.651 134.61C262.351 134.97 262.071 135.63 261.811 136.59L260.431 136.2C260.511 135.8 260.641 135.34 260.821 134.82C261.001 134.3 261.251 133.8 261.571 133.32C261.891 132.84 262.281 132.45 262.741 132.15C263.201 131.83 263.751 131.67 264.391 131.67C265.131 131.67 265.721 131.9 266.161 132.36C266.601 132.82 266.821 133.58 266.821 134.64C266.801 135 266.761 135.42 266.701 135.9C266.641 136.36 266.561 136.88 266.461 137.46H266.521C267.061 135.86 267.621 134.65 268.201 133.83C268.801 132.99 269.391 132.42 269.971 132.12C270.571 131.82 271.141 131.67 271.681 131.67C272.381 131.67 272.951 131.86 273.391 132.24C273.831 132.62 274.051 133.13 274.051 133.77C274.051 134.23 273.881 134.65 273.541 135.03C273.221 135.41 272.791 135.6 272.251 135.6C271.851 135.6 271.491 135.47 271.171 135.21C270.851 134.95 270.691 134.6 270.691 134.16C270.291 134.08 269.881 134.27 269.461 134.73C269.061 135.17 268.671 135.79 268.291 136.59C267.931 137.39 267.611 138.28 267.331 139.26C267.051 140.24 266.821 141.24 266.641 142.26C266.481 143.28 266.401 144.24 266.401 145.14C266.401 145.4 266.411 145.72 266.431 146.1C266.451 146.46 266.471 146.76 266.491 147H263.041ZM287.723 147.33C286.803 147.33 285.953 147.2 285.173 146.94C284.393 146.66 283.753 146.27 283.253 145.77C282.773 145.25 282.533 144.64 282.533 143.94C282.533 143.38 282.693 142.93 283.013 142.59C283.353 142.23 283.763 142.05 284.243 142.05C284.743 142.05 285.133 142.22 285.413 142.56C285.713 142.88 285.863 143.26 285.863 143.7C285.863 143.84 285.843 143.99 285.803 144.15C285.782 144.31 285.733 144.47 285.653 144.63C285.773 144.91 286.053 145.15 286.493 145.35C286.953 145.55 287.373 145.65 287.753 145.65C288.693 145.65 289.373 145.44 289.793 145.02C290.213 144.6 290.423 144.08 290.423 143.46C290.423 143.02 290.263 142.64 289.943 142.32C289.623 141.98 289.213 141.66 288.713 141.36C288.213 141.04 287.683 140.72 287.123 140.4C286.303 139.92 285.593 139.46 284.993 139.02C284.413 138.58 283.973 138.12 283.673 137.64C283.373 137.14 283.223 136.56 283.223 135.9C283.223 135.18 283.443 134.5 283.883 133.86C284.323 133.22 284.953 132.7 285.772 132.3C286.593 131.88 287.583 131.67 288.743 131.67C289.523 131.67 290.283 131.8 291.023 132.06C291.763 132.3 292.373 132.66 292.853 133.14C293.333 133.62 293.573 134.19 293.573 134.85C293.573 135.33 293.423 135.75 293.123 136.11C292.823 136.45 292.413 136.62 291.893 136.62C291.413 136.62 291.023 136.46 290.723 136.14C290.443 135.82 290.303 135.44 290.303 135C290.303 134.84 290.313 134.69 290.333 134.55C290.373 134.41 290.433 134.27 290.513 134.13C290.373 133.87 290.123 133.67 289.763 133.53C289.423 133.39 289.043 133.32 288.623 133.32C288.303 133.32 287.963 133.4 287.603 133.56C287.263 133.7 286.973 133.91 286.733 134.19C286.493 134.45 286.373 134.77 286.373 135.15C286.373 135.47 286.453 135.75 286.613 135.99C286.773 136.23 287.053 136.49 287.453 136.77C287.853 137.05 288.393 137.39 289.073 137.79C289.753 138.19 290.443 138.62 291.143 139.08C291.863 139.52 292.463 140.04 292.943 140.64C293.423 141.22 293.663 141.94 293.663 142.8C293.663 143.68 293.403 144.46 292.883 145.14C292.383 145.82 291.683 146.36 290.783 146.76C289.883 147.14 288.863 147.33 287.723 147.33ZM303.455 131.67C304.575 131.67 305.575 131.93 306.455 132.45C307.355 132.97 308.065 133.73 308.585 134.73C309.125 135.71 309.395 136.91 309.395 138.33C309.395 139.91 309.095 141.39 308.495 142.77C307.895 144.15 307.035 145.26 305.915 146.1C304.815 146.92 303.485 147.33 301.925 147.33C300.585 147.33 299.475 147.03 298.595 146.43C297.715 145.81 297.055 144.99 296.615 143.97C296.195 142.93 295.985 141.79 295.985 140.55C295.985 138.95 296.285 137.48 296.885 136.14C297.485 134.78 298.345 133.7 299.465 132.9C300.585 132.08 301.915 131.67 303.455 131.67ZM303.005 133.35C302.325 133.33 301.725 133.61 301.205 134.19C300.685 134.75 300.285 135.51 300.005 136.47C299.725 137.43 299.585 138.49 299.585 139.65C299.565 140.29 299.595 140.96 299.675 141.66C299.755 142.34 299.895 142.98 300.095 143.58C300.315 144.18 300.605 144.67 300.965 145.05C301.325 145.43 301.775 145.62 302.315 145.62C302.935 145.64 303.455 145.44 303.875 145.02C304.315 144.6 304.665 144.06 304.925 143.4C305.185 142.74 305.375 142.04 305.495 141.3C305.635 140.56 305.715 139.86 305.735 139.2C305.755 138.62 305.725 137.99 305.645 137.31C305.585 136.63 305.455 135.99 305.255 135.39C305.075 134.79 304.795 134.31 304.415 133.95C304.055 133.57 303.585 133.37 303.005 133.35ZM332.273 147.33C331.233 147.33 330.523 147.05 330.143 146.49C329.783 145.91 329.603 145.12 329.603 144.12C329.603 143.52 329.643 142.85 329.723 142.11C329.823 141.35 329.923 140.57 330.023 139.77C330.123 138.95 330.213 138.17 330.293 137.43C330.393 136.67 330.443 136 330.443 135.42C330.443 135.14 330.413 134.89 330.353 134.67C330.293 134.45 330.193 134.28 330.053 134.16C329.913 134.04 329.703 133.98 329.423 133.98C328.983 133.98 328.543 134.21 328.103 134.67C327.683 135.13 327.273 135.75 326.873 136.53C326.493 137.31 326.153 138.18 325.853 139.14C325.573 140.1 325.343 141.08 325.163 142.08C324.983 143.08 324.893 144.03 324.893 144.93C324.893 145.21 324.903 145.54 324.923 145.92C324.943 146.3 324.963 146.66 324.983 147H321.563C321.523 146.68 321.503 146.38 321.503 146.1C321.503 145.8 321.503 145.57 321.503 145.41C321.503 144.57 321.543 143.68 321.623 142.74C321.703 141.8 321.793 140.87 321.893 139.95C322.013 139.01 322.113 138.15 322.193 137.37C322.273 136.57 322.313 135.91 322.313 135.39C322.313 134.97 322.233 134.63 322.073 134.37C321.933 134.11 321.663 133.98 321.263 133.98C320.843 133.98 320.413 134.22 319.973 134.7C319.533 135.16 319.113 135.79 318.713 136.59C318.333 137.37 317.983 138.24 317.663 139.2C317.363 140.16 317.123 141.15 316.943 142.17C316.763 143.17 316.673 144.12 316.673 145.02C316.673 145.3 316.673 145.64 316.673 146.04C316.693 146.44 316.713 146.76 316.733 147H313.343C313.303 146.68 313.283 146.45 313.283 146.31C313.283 146.15 313.283 145.97 313.283 145.77C313.283 145.39 313.293 144.95 313.313 144.45C313.353 143.95 313.413 143.37 313.493 142.71C313.593 142.03 313.693 141.27 313.793 140.43C313.873 139.65 313.943 138.97 314.003 138.39C314.083 137.81 314.153 137.31 314.213 136.89C314.273 136.45 314.313 136.08 314.333 135.78C314.373 135.46 314.393 135.2 314.393 135C314.393 134.66 314.343 134.42 314.243 134.28C314.143 134.12 314.003 134.04 313.823 134.04C313.583 134.04 313.313 134.23 313.013 134.61C312.713 134.97 312.423 135.63 312.143 136.59L310.763 136.2C310.843 135.8 310.973 135.34 311.153 134.82C311.353 134.3 311.613 133.8 311.933 133.32C312.253 132.84 312.643 132.45 313.103 132.15C313.563 131.83 314.113 131.67 314.753 131.67C315.253 131.67 315.683 131.78 316.043 132C316.403 132.22 316.683 132.55 316.883 132.99C317.083 133.41 317.173 133.97 317.153 134.67C317.153 135.11 317.123 135.51 317.063 135.87C317.003 136.21 316.943 136.56 316.883 136.92H316.943C317.483 135.52 318.053 134.44 318.653 133.68C319.253 132.92 319.863 132.4 320.483 132.12C321.103 131.82 321.693 131.67 322.253 131.67C322.953 131.67 323.523 131.82 323.963 132.12C324.423 132.42 324.753 132.83 324.953 133.35C325.173 133.87 325.283 134.46 325.283 135.12C325.283 135.4 325.263 135.67 325.223 135.93C325.203 136.19 325.153 136.51 325.073 136.89H325.133C325.673 135.49 326.233 134.41 326.813 133.65C327.393 132.89 327.983 132.37 328.583 132.09C329.203 131.81 329.783 131.67 330.323 131.67C331.163 131.67 331.833 131.86 332.333 132.24C332.853 132.6 333.223 133.11 333.443 133.77C333.683 134.43 333.803 135.19 333.803 136.05C333.803 136.89 333.733 137.8 333.593 138.78C333.473 139.74 333.333 140.68 333.173 141.6C333.033 142.5 332.963 143.3 332.963 144C332.963 144.32 333.013 144.56 333.113 144.72C333.213 144.88 333.353 144.96 333.533 144.96C333.793 144.96 334.073 144.78 334.373 144.42C334.673 144.04 334.963 143.37 335.243 142.41L336.623 142.8C336.543 143.2 336.393 143.66 336.173 144.18C335.953 144.7 335.663 145.2 335.303 145.68C334.943 146.16 334.513 146.56 334.013 146.88C333.513 147.18 332.933 147.33 332.273 147.33ZM345.262 131.67C346.082 131.67 346.822 131.8 347.482 132.06C348.162 132.3 348.692 132.69 349.072 133.23C349.452 133.77 349.642 134.47 349.642 135.33C349.642 136.15 349.382 136.85 348.862 137.43C348.362 138.01 347.692 138.49 346.852 138.87C346.032 139.23 345.142 139.53 344.182 139.77C343.222 140.01 342.292 140.18 341.392 140.28C341.392 141.46 341.522 142.4 341.782 143.1C342.042 143.78 342.392 144.27 342.832 144.57C343.292 144.85 343.792 144.99 344.332 144.99C344.752 144.99 345.212 144.91 345.712 144.75C346.232 144.57 346.742 144.25 347.242 143.79C347.742 143.33 348.182 142.69 348.562 141.87L350.002 142.59C349.442 143.81 348.822 144.77 348.142 145.47C347.462 146.15 346.742 146.63 345.982 146.91C345.222 147.19 344.432 147.33 343.612 147.33C341.752 147.35 340.312 146.8 339.292 145.68C338.272 144.56 337.762 142.94 337.762 140.82C337.762 139.78 337.912 138.73 338.212 137.67C338.512 136.59 338.962 135.6 339.562 134.7C340.182 133.8 340.962 133.07 341.902 132.51C342.842 131.95 343.962 131.67 345.262 131.67ZM344.902 133.32C344.142 133.32 343.522 133.59 343.042 134.13C342.562 134.65 342.192 135.32 341.932 136.14C341.692 136.94 341.532 137.77 341.452 138.63C342.532 138.45 343.442 138.19 344.182 137.85C344.922 137.49 345.492 137.07 345.892 136.59C346.292 136.11 346.492 135.58 346.492 135C346.472 134.46 346.312 134.05 346.012 133.77C345.712 133.47 345.342 133.32 344.902 133.32ZM359.412 131.67C360.532 131.67 361.532 131.93 362.412 132.45C363.312 132.97 364.022 133.73 364.542 134.73C365.082 135.71 365.352 136.91 365.352 138.33C365.352 139.91 365.052 141.39 364.452 142.77C363.852 144.15 362.992 145.26 361.872 146.1C360.772 146.92 359.442 147.33 357.882 147.33C356.542 147.33 355.432 147.03 354.552 146.43C353.672 145.81 353.012 144.99 352.572 143.97C352.152 142.93 351.942 141.79 351.942 140.55C351.942 138.95 352.242 137.48 352.842 136.14C353.442 134.78 354.302 133.7 355.422 132.9C356.542 132.08 357.872 131.67 359.412 131.67ZM358.962 133.35C358.282 133.33 357.682 133.61 357.162 134.19C356.642 134.75 356.242 135.51 355.962 136.47C355.682 137.43 355.542 138.49 355.542 139.65C355.522 140.29 355.552 140.96 355.632 141.66C355.712 142.34 355.852 142.98 356.052 143.58C356.272 144.18 356.562 144.67 356.922 145.05C357.282 145.43 357.732 145.62 358.272 145.62C358.892 145.64 359.412 145.44 359.832 145.02C360.272 144.6 360.622 144.06 360.882 143.4C361.142 142.74 361.332 142.04 361.452 141.3C361.592 140.56 361.672 139.86 361.692 139.2C361.712 138.62 361.682 137.99 361.602 137.31C361.542 136.63 361.412 135.99 361.212 135.39C361.032 134.79 360.752 134.31 360.372 133.95C360.012 133.57 359.542 133.37 358.962 133.35ZM380.28 147.33C379.22 147.33 378.5 147.05 378.12 146.49C377.76 145.91 377.58 145.12 377.58 144.12C377.58 143.52 377.62 142.85 377.7 142.11C377.78 141.35 377.87 140.57 377.97 139.77C378.09 138.95 378.19 138.17 378.27 137.43C378.35 136.67 378.39 136 378.39 135.42C378.39 135.14 378.36 134.89 378.3 134.67C378.24 134.45 378.13 134.28 377.97 134.16C377.83 134.04 377.63 133.98 377.37 133.98C376.93 133.98 376.49 134.22 376.05 134.7C375.61 135.16 375.18 135.79 374.76 136.59C374.36 137.37 374 138.24 373.68 139.2C373.36 140.16 373.1 141.15 372.9 142.17C372.72 143.17 372.63 144.12 372.63 145.02C372.63 145.3 372.64 145.64 372.66 146.04C372.68 146.44 372.7 146.76 372.72 147H369.3C369.26 146.68 369.23 146.45 369.21 146.31C369.21 146.15 369.21 145.97 369.21 145.77C369.21 145.39 369.23 144.94 369.27 144.42C369.33 143.88 369.4 143.26 369.48 142.56C369.56 141.86 369.65 141.08 369.75 140.22C369.85 139.46 369.93 138.8 369.99 138.24C370.07 137.68 370.13 137.2 370.17 136.8C370.23 136.38 370.27 136.03 370.29 135.75C370.31 135.45 370.32 135.2 370.32 135C370.32 134.66 370.27 134.42 370.17 134.28C370.09 134.12 369.96 134.04 369.78 134.04C369.52 134.04 369.24 134.23 368.94 134.61C368.64 134.97 368.36 135.63 368.1 136.59L366.72 136.2C366.8 135.8 366.93 135.34 367.11 134.82C367.29 134.3 367.54 133.8 367.86 133.32C368.18 132.84 368.57 132.45 369.03 132.15C369.49 131.83 370.04 131.67 370.68 131.67C371.2 131.67 371.64 131.79 372 132.03C372.38 132.25 372.66 132.59 372.84 133.05C373.04 133.49 373.13 134.06 373.11 134.76C373.09 135.2 373.05 135.59 372.99 135.93C372.95 136.27 372.9 136.62 372.84 136.98H372.9C373.44 135.56 374.01 134.47 374.61 133.71C375.21 132.93 375.82 132.4 376.44 132.12C377.06 131.82 377.67 131.67 378.27 131.67C379.11 131.67 379.78 131.86 380.28 132.24C380.8 132.6 381.18 133.11 381.42 133.77C381.66 134.43 381.78 135.19 381.78 136.05C381.78 136.89 381.71 137.8 381.57 138.78C381.45 139.74 381.32 140.68 381.18 141.6C381.04 142.5 380.97 143.3 380.97 144C380.97 144.32 381.02 144.56 381.12 144.72C381.22 144.88 381.36 144.96 381.54 144.96C381.8 144.96 382.08 144.78 382.38 144.42C382.68 144.04 382.96 143.37 383.22 142.41L384.6 142.8C384.52 143.2 384.37 143.66 384.15 144.18C383.93 144.7 383.64 145.2 383.28 145.68C382.92 146.16 382.49 146.56 381.99 146.88C381.49 147.18 380.92 147.33 380.28 147.33ZM393.28 131.67C394.1 131.67 394.84 131.8 395.5 132.06C396.18 132.3 396.71 132.69 397.09 133.23C397.47 133.77 397.66 134.47 397.66 135.33C397.66 136.15 397.4 136.85 396.88 137.43C396.38 138.01 395.71 138.49 394.87 138.87C394.05 139.23 393.16 139.53 392.2 139.77C391.24 140.01 390.31 140.18 389.41 140.28C389.41 141.46 389.54 142.4 389.8 143.1C390.06 143.78 390.41 144.27 390.85 144.57C391.31 144.85 391.81 144.99 392.35 144.99C392.77 144.99 393.23 144.91 393.73 144.75C394.25 144.57 394.76 144.25 395.26 143.79C395.76 143.33 396.2 142.69 396.58 141.87L398.02 142.59C397.46 143.81 396.84 144.77 396.16 145.47C395.48 146.15 394.76 146.63 394 146.91C393.24 147.19 392.45 147.33 391.63 147.33C389.77 147.35 388.33 146.8 387.31 145.68C386.29 144.56 385.78 142.94 385.78 140.82C385.78 139.78 385.93 138.73 386.23 137.67C386.53 136.59 386.98 135.6 387.58 134.7C388.2 133.8 388.98 133.07 389.92 132.51C390.86 131.95 391.98 131.67 393.28 131.67ZM392.92 133.32C392.16 133.32 391.54 133.59 391.06 134.13C390.58 134.65 390.21 135.32 389.95 136.14C389.71 136.94 389.55 137.77 389.47 138.63C390.55 138.45 391.46 138.19 392.2 137.85C392.94 137.49 393.51 137.07 393.91 136.59C394.31 136.11 394.51 135.58 394.51 135C394.49 134.46 394.33 134.05 394.03 133.77C393.73 133.47 393.36 133.32 392.92 133.32ZM107.973 171.67C108.693 171.67 109.303 171.86 109.803 172.24C110.323 172.62 110.733 173.14 111.033 173.8C111.333 174.44 111.523 175.16 111.603 175.96C111.683 176.76 111.663 177.58 111.543 178.42C111.443 179.42 111.163 180.44 110.703 181.48C110.263 182.52 109.673 183.49 108.933 184.39C108.213 185.27 107.383 185.98 106.443 186.52C105.503 187.06 104.493 187.33 103.413 187.33C102.653 187.33 102.023 187.16 101.523 186.82C101.043 186.46 100.703 185.95 100.503 185.29C100.323 184.61 100.283 183.81 100.383 182.89C100.083 183.89 99.6626 184.72 99.1226 185.38C98.5826 186.04 97.9726 186.53 97.2926 186.85C96.6326 187.17 95.9626 187.33 95.2826 187.33C94.0426 187.33 93.1526 186.93 92.6126 186.13C92.0726 185.31 91.8026 184.24 91.8026 182.92C91.8026 182.3 91.8426 181.62 91.9226 180.88C92.0026 180.14 92.0826 179.4 92.1626 178.66C92.2626 177.9 92.3426 177.2 92.4026 176.56C92.4826 175.92 92.5226 175.41 92.5226 175.03C92.5226 174.67 92.4726 174.42 92.3726 174.28C92.2726 174.12 92.1326 174.04 91.9526 174.04C91.6726 174.04 91.3826 174.23 91.0826 174.61C90.8026 174.97 90.5326 175.63 90.2726 176.59L88.8926 176.2C88.9726 175.8 89.1126 175.34 89.3126 174.82C89.5326 174.3 89.8226 173.8 90.1826 173.32C90.5426 172.84 90.9726 172.45 91.4726 172.15C91.9726 171.83 92.5426 171.67 93.1826 171.67C93.8826 171.67 94.4326 171.82 94.8326 172.12C95.2326 172.4 95.5126 172.79 95.6726 173.29C95.8526 173.77 95.9426 174.33 95.9426 174.97C95.9426 175.61 95.9026 176.33 95.8226 177.13C95.7626 177.93 95.6726 178.74 95.5526 179.56C95.4526 180.38 95.3626 181.14 95.2826 181.84C95.2226 182.54 95.1926 183.11 95.1926 183.55C95.1926 183.79 95.2126 184.05 95.2526 184.33C95.2926 184.59 95.3826 184.82 95.5226 185.02C95.6826 185.2 95.9026 185.29 96.1826 185.29C96.7426 185.29 97.2426 185.07 97.6826 184.63C98.1426 184.19 98.5426 183.6 98.8826 182.86C99.2226 182.1 99.5026 181.26 99.7226 180.34C99.9426 179.4 100.113 178.43 100.233 177.43C100.353 176.43 100.413 175.47 100.413 174.55C100.413 174.19 100.393 173.77 100.353 173.29C100.333 172.79 100.303 172.36 100.263 172H103.713C103.753 172.34 103.773 172.62 103.773 172.84C103.793 173.04 103.803 173.23 103.803 173.41C103.803 174.17 103.763 175.02 103.683 175.96C103.603 176.88 103.503 177.81 103.383 178.75C103.283 179.69 103.193 180.57 103.113 181.39C103.033 182.19 102.993 182.86 102.993 183.4C102.993 183.8 103.083 184.22 103.263 184.66C103.443 185.08 103.803 185.3 104.343 185.32C104.883 185.32 105.443 185.14 106.023 184.78C106.603 184.4 107.153 183.89 107.673 183.25C108.193 182.61 108.633 181.87 108.993 181.03C109.353 180.19 109.583 179.3 109.683 178.36C109.723 178.08 109.743 177.76 109.743 177.4C109.743 177.02 109.713 176.65 109.653 176.29C109.613 175.91 109.523 175.57 109.383 175.27C109.263 174.97 109.083 174.75 108.843 174.61C108.683 174.79 108.483 174.94 108.243 175.06C108.023 175.18 107.783 175.24 107.523 175.24C107.163 175.24 106.793 175.11 106.413 174.85C106.033 174.57 105.843 174.14 105.843 173.56C105.843 173.3 105.903 173.02 106.023 172.72C106.163 172.42 106.393 172.17 106.713 171.97C107.033 171.77 107.453 171.67 107.973 171.67ZM117.239 171.67C118.219 171.67 118.909 171.98 119.309 172.6C119.729 173.2 119.939 174.01 119.939 175.03C119.939 175.55 119.889 176.21 119.789 177.01C119.689 177.81 119.569 178.66 119.429 179.56C119.309 180.46 119.189 181.31 119.069 182.11C118.969 182.89 118.919 183.53 118.919 184.03C118.919 184.37 118.979 184.61 119.099 184.75C119.219 184.89 119.369 184.96 119.549 184.96C119.809 184.96 120.089 184.78 120.389 184.42C120.689 184.04 120.979 183.37 121.259 182.41L122.609 182.8C122.529 183.22 122.379 183.69 122.159 184.21C121.939 184.73 121.649 185.23 121.289 185.71C120.949 186.17 120.529 186.56 120.029 186.88C119.529 187.18 118.959 187.33 118.319 187.33C117.279 187.33 116.549 187.05 116.129 186.49C115.709 185.93 115.499 185.14 115.499 184.12C115.499 183.44 115.549 182.7 115.649 181.9C115.769 181.08 115.899 180.26 116.039 179.44C116.179 178.6 116.299 177.8 116.399 177.04C116.499 176.28 116.549 175.6 116.549 175C116.549 174.68 116.499 174.44 116.399 174.28C116.299 174.12 116.149 174.04 115.949 174.04C115.709 174.04 115.439 174.23 115.139 174.61C114.839 174.97 114.549 175.63 114.269 176.59L112.919 176.2C112.979 175.8 113.119 175.34 113.339 174.82C113.559 174.3 113.849 173.8 114.209 173.32C114.589 172.84 115.029 172.45 115.529 172.15C116.029 171.83 116.599 171.67 117.239 171.67ZM118.529 164.47C119.109 164.47 119.589 164.68 119.969 165.1C120.349 165.52 120.519 166.05 120.479 166.69C120.479 167.31 120.279 167.83 119.879 168.25C119.479 168.67 118.979 168.88 118.379 168.88C117.779 168.88 117.289 168.67 116.909 168.25C116.549 167.83 116.369 167.31 116.369 166.69C116.409 166.05 116.639 165.52 117.059 165.1C117.479 164.68 117.969 164.47 118.529 164.47ZM130.136 167.56L129.566 172H133.646L133.496 173.77L129.386 173.83C129.306 174.59 129.216 175.4 129.116 176.26C129.016 177.1 128.926 177.93 128.846 178.75C128.786 179.57 128.726 180.33 128.666 181.03C128.606 181.71 128.576 182.27 128.576 182.71C128.576 183.01 128.606 183.33 128.666 183.67C128.726 184.01 128.856 184.3 129.056 184.54C129.256 184.78 129.576 184.9 130.016 184.9C130.196 184.9 130.436 184.86 130.736 184.78C131.036 184.68 131.366 184.5 131.726 184.24C132.086 183.96 132.426 183.53 132.746 182.95L134.036 183.76C133.396 184.94 132.636 185.83 131.756 186.43C130.876 187.03 129.906 187.33 128.846 187.33C127.846 187.33 127.086 187.12 126.566 186.7C126.046 186.28 125.696 185.73 125.516 185.05C125.336 184.37 125.246 183.66 125.246 182.92C125.286 182.2 125.336 181.35 125.396 180.37C125.456 179.39 125.536 178.34 125.636 177.22C125.736 176.08 125.846 174.96 125.966 173.86L123.476 173.89L123.686 172C125.146 172 126.216 171.62 126.896 170.86C127.596 170.08 128.106 168.98 128.426 167.56H130.136ZM147.109 187.33C146.069 187.33 145.359 187.05 144.979 186.49C144.599 185.91 144.409 185.12 144.409 184.12C144.409 183.52 144.449 182.85 144.529 182.11C144.609 181.35 144.699 180.57 144.799 179.77C144.899 178.95 144.989 178.17 145.069 177.43C145.149 176.67 145.189 176 145.189 175.42C145.189 175.14 145.149 174.89 145.069 174.67C145.009 174.45 144.909 174.28 144.769 174.16C144.629 174.04 144.419 173.98 144.139 173.98C143.719 173.98 143.289 174.21 142.849 174.67C142.409 175.13 141.979 175.75 141.559 176.53C141.159 177.31 140.799 178.18 140.479 179.14C140.159 180.1 139.899 181.09 139.699 182.11C139.519 183.13 139.429 184.1 139.429 185.02C139.429 185.3 139.439 185.64 139.459 186.04C139.479 186.44 139.499 186.76 139.519 187H136.129C136.109 186.68 136.089 186.45 136.069 186.31C136.069 186.15 136.069 185.97 136.069 185.77C136.069 184.95 136.089 183.98 136.129 182.86C136.189 181.74 136.249 180.57 136.309 179.35C136.389 178.11 136.479 176.88 136.579 175.66C136.679 174.44 136.779 173.3 136.879 172.24C136.979 171.16 137.079 170.22 137.179 169.42C137.239 169.02 137.299 168.61 137.359 168.19C137.419 167.77 137.479 167.39 137.539 167.05L135.439 167.14L135.559 165.22C136.479 165.22 137.229 165.18 137.809 165.1C138.389 165 138.839 164.88 139.159 164.74C139.479 164.6 139.719 164.47 139.879 164.35H141.229C141.169 164.91 141.089 165.56 140.989 166.3C140.889 167.04 140.789 167.76 140.689 168.46C140.609 169.16 140.539 169.72 140.479 170.14C140.439 170.4 140.389 170.8 140.329 171.34C140.269 171.88 140.199 172.48 140.119 173.14C140.039 173.8 139.959 174.46 139.879 175.12C139.799 175.78 139.709 176.38 139.609 176.92H139.669C140.189 175.52 140.749 174.44 141.349 173.68C141.969 172.92 142.589 172.4 143.209 172.12C143.849 171.82 144.459 171.67 145.039 171.67C146.299 171.67 147.199 172.08 147.739 172.9C148.299 173.7 148.579 174.75 148.579 176.05C148.579 176.89 148.519 177.8 148.399 178.78C148.279 179.74 148.149 180.68 148.009 181.6C147.869 182.5 147.799 183.3 147.799 184C147.799 184.32 147.839 184.56 147.919 184.72C148.019 184.88 148.169 184.96 148.369 184.96C148.629 184.96 148.909 184.78 149.209 184.42C149.509 184.04 149.799 183.37 150.079 182.41L151.399 182.8C151.319 183.2 151.169 183.66 150.949 184.18C150.749 184.7 150.469 185.2 150.109 185.68C149.749 186.16 149.319 186.56 148.819 186.88C148.339 187.18 147.769 187.33 147.109 187.33ZM181.277 187.33C180.237 187.33 179.527 187.05 179.147 186.49C178.787 185.91 178.607 185.12 178.607 184.12C178.607 183.52 178.647 182.85 178.727 182.11C178.827 181.35 178.927 180.57 179.027 179.77C179.127 178.95 179.217 178.17 179.297 177.43C179.397 176.67 179.447 176 179.447 175.42C179.447 175.14 179.417 174.89 179.357 174.67C179.297 174.45 179.197 174.28 179.057 174.16C178.917 174.04 178.707 173.98 178.427 173.98C177.987 173.98 177.547 174.21 177.107 174.67C176.687 175.13 176.277 175.75 175.877 176.53C175.497 177.31 175.157 178.18 174.857 179.14C174.577 180.1 174.347 181.08 174.167 182.08C173.987 183.08 173.897 184.03 173.897 184.93C173.897 185.21 173.907 185.54 173.927 185.92C173.947 186.3 173.967 186.66 173.987 187H170.567C170.527 186.68 170.507 186.38 170.507 186.1C170.507 185.8 170.507 185.57 170.507 185.41C170.507 184.57 170.547 183.68 170.627 182.74C170.707 181.8 170.797 180.87 170.897 179.95C171.017 179.01 171.117 178.15 171.197 177.37C171.277 176.57 171.317 175.91 171.317 175.39C171.317 174.97 171.237 174.63 171.077 174.37C170.937 174.11 170.667 173.98 170.267 173.98C169.847 173.98 169.417 174.22 168.977 174.7C168.537 175.16 168.117 175.79 167.717 176.59C167.337 177.37 166.987 178.24 166.667 179.2C166.367 180.16 166.127 181.15 165.947 182.17C165.767 183.17 165.677 184.12 165.677 185.02C165.677 185.3 165.677 185.64 165.677 186.04C165.697 186.44 165.717 186.76 165.737 187H162.347C162.307 186.68 162.287 186.45 162.287 186.31C162.287 186.15 162.287 185.97 162.287 185.77C162.287 185.39 162.297 184.95 162.317 184.45C162.357 183.95 162.417 183.37 162.497 182.71C162.597 182.03 162.697 181.27 162.797 180.43C162.877 179.65 162.947 178.97 163.007 178.39C163.087 177.81 163.157 177.31 163.217 176.89C163.277 176.45 163.317 176.08 163.337 175.78C163.377 175.46 163.397 175.2 163.397 175C163.397 174.66 163.347 174.42 163.247 174.28C163.147 174.12 163.007 174.04 162.827 174.04C162.587 174.04 162.317 174.23 162.017 174.61C161.717 174.97 161.427 175.63 161.147 176.59L159.767 176.2C159.847 175.8 159.977 175.34 160.157 174.82C160.357 174.3 160.617 173.8 160.937 173.32C161.257 172.84 161.647 172.45 162.107 172.15C162.567 171.83 163.117 171.67 163.757 171.67C164.257 171.67 164.687 171.78 165.047 172C165.407 172.22 165.687 172.55 165.887 172.99C166.087 173.41 166.177 173.97 166.157 174.67C166.157 175.11 166.127 175.51 166.067 175.87C166.007 176.21 165.947 176.56 165.887 176.92H165.947C166.487 175.52 167.057 174.44 167.657 173.68C168.257 172.92 168.867 172.4 169.487 172.12C170.107 171.82 170.697 171.67 171.257 171.67C171.957 171.67 172.527 171.82 172.967 172.12C173.427 172.42 173.757 172.83 173.957 173.35C174.177 173.87 174.287 174.46 174.287 175.12C174.287 175.4 174.267 175.67 174.227 175.93C174.207 176.19 174.157 176.51 174.077 176.89H174.137C174.677 175.49 175.237 174.41 175.817 173.65C176.397 172.89 176.987 172.37 177.587 172.09C178.207 171.81 178.787 171.67 179.327 171.67C180.167 171.67 180.837 171.86 181.337 172.24C181.857 172.6 182.227 173.11 182.447 173.77C182.687 174.43 182.807 175.19 182.807 176.05C182.807 176.89 182.737 177.8 182.597 178.78C182.477 179.74 182.337 180.68 182.177 181.6C182.037 182.5 181.967 183.3 181.967 184C181.967 184.32 182.017 184.56 182.117 184.72C182.217 184.88 182.357 184.96 182.537 184.96C182.797 184.96 183.077 184.78 183.377 184.42C183.677 184.04 183.967 183.37 184.247 182.41L185.627 182.8C185.547 183.2 185.397 183.66 185.177 184.18C184.957 184.7 184.667 185.2 184.307 185.68C183.947 186.16 183.517 186.56 183.017 186.88C182.517 187.18 181.937 187.33 181.277 187.33ZM194.266 171.67C195.386 171.67 196.386 171.93 197.266 172.45C198.166 172.97 198.876 173.73 199.396 174.73C199.936 175.71 200.206 176.91 200.206 178.33C200.206 179.91 199.906 181.39 199.306 182.77C198.706 184.15 197.846 185.26 196.726 186.1C195.626 186.92 194.296 187.33 192.736 187.33C191.396 187.33 190.286 187.03 189.406 186.43C188.526 185.81 187.866 184.99 187.426 183.97C187.006 182.93 186.796 181.79 186.796 180.55C186.796 178.95 187.096 177.48 187.696 176.14C188.296 174.78 189.156 173.7 190.276 172.9C191.396 172.08 192.726 171.67 194.266 171.67ZM193.816 173.35C193.136 173.33 192.536 173.61 192.016 174.19C191.496 174.75 191.096 175.51 190.816 176.47C190.536 177.43 190.396 178.49 190.396 179.65C190.376 180.29 190.406 180.96 190.486 181.66C190.566 182.34 190.706 182.98 190.906 183.58C191.126 184.18 191.416 184.67 191.776 185.05C192.136 185.43 192.586 185.62 193.126 185.62C193.746 185.64 194.266 185.44 194.686 185.02C195.126 184.6 195.476 184.06 195.736 183.4C195.996 182.74 196.186 182.04 196.306 181.3C196.446 180.56 196.526 179.86 196.546 179.2C196.566 178.62 196.536 177.99 196.456 177.31C196.396 176.63 196.266 175.99 196.066 175.39C195.886 174.79 195.606 174.31 195.226 173.95C194.866 173.57 194.396 173.37 193.816 173.35ZM204.184 187C204.144 186.68 204.124 186.45 204.124 186.31C204.124 186.15 204.124 185.97 204.124 185.77C204.124 185.39 204.144 184.93 204.184 184.39C204.224 183.83 204.274 183.19 204.334 182.47C204.414 181.75 204.504 180.96 204.604 180.1C204.724 179.2 204.824 178.42 204.904 177.76C205.004 177.1 205.074 176.56 205.114 176.14C205.154 175.7 205.174 175.36 205.174 175.12C205.194 174.76 205.154 174.49 205.054 174.31C204.974 174.13 204.834 174.04 204.634 174.04C204.374 174.04 204.094 174.23 203.794 174.61C203.494 174.97 203.214 175.63 202.954 176.59L201.574 176.2C201.654 175.8 201.784 175.34 201.964 174.82C202.144 174.3 202.394 173.8 202.714 173.32C203.034 172.84 203.424 172.45 203.884 172.15C204.344 171.83 204.894 171.67 205.534 171.67C206.274 171.67 206.864 171.9 207.304 172.36C207.744 172.82 207.964 173.58 207.964 174.64C207.944 175 207.904 175.42 207.844 175.9C207.784 176.36 207.704 176.88 207.604 177.46H207.664C208.204 175.86 208.764 174.65 209.344 173.83C209.944 172.99 210.534 172.42 211.114 172.12C211.714 171.82 212.284 171.67 212.824 171.67C213.524 171.67 214.094 171.86 214.534 172.24C214.974 172.62 215.194 173.13 215.194 173.77C215.194 174.23 215.024 174.65 214.684 175.03C214.364 175.41 213.934 175.6 213.394 175.6C212.994 175.6 212.634 175.47 212.314 175.21C211.994 174.95 211.834 174.6 211.834 174.16C211.434 174.08 211.024 174.27 210.604 174.73C210.204 175.17 209.814 175.79 209.434 176.59C209.074 177.39 208.754 178.28 208.474 179.26C208.194 180.24 207.964 181.24 207.784 182.26C207.624 183.28 207.544 184.24 207.544 185.14C207.544 185.4 207.554 185.72 207.574 186.1C207.594 186.46 207.614 186.76 207.634 187H204.184ZM223.299 171.67C224.119 171.67 224.859 171.8 225.519 172.06C226.199 172.3 226.729 172.69 227.109 173.23C227.489 173.77 227.679 174.47 227.679 175.33C227.679 176.15 227.419 176.85 226.899 177.43C226.399 178.01 225.729 178.49 224.889 178.87C224.069 179.23 223.179 179.53 222.219 179.77C221.259 180.01 220.329 180.18 219.429 180.28C219.429 181.46 219.559 182.4 219.819 183.1C220.079 183.78 220.429 184.27 220.869 184.57C221.329 184.85 221.829 184.99 222.369 184.99C222.789 184.99 223.249 184.91 223.749 184.75C224.269 184.57 224.779 184.25 225.279 183.79C225.779 183.33 226.219 182.69 226.599 181.87L228.039 182.59C227.479 183.81 226.859 184.77 226.179 185.47C225.499 186.15 224.779 186.63 224.019 186.91C223.259 187.19 222.469 187.33 221.649 187.33C219.789 187.35 218.349 186.8 217.329 185.68C216.309 184.56 215.799 182.94 215.799 180.82C215.799 179.78 215.949 178.73 216.249 177.67C216.549 176.59 216.999 175.6 217.599 174.7C218.219 173.8 218.999 173.07 219.939 172.51C220.879 171.95 221.999 171.67 223.299 171.67ZM222.939 173.32C222.179 173.32 221.559 173.59 221.079 174.13C220.599 174.65 220.229 175.32 219.969 176.14C219.729 176.94 219.569 177.77 219.489 178.63C220.569 178.45 221.479 178.19 222.219 177.85C222.959 177.49 223.529 177.07 223.929 176.59C224.329 176.11 224.529 175.58 224.529 175C224.509 174.46 224.349 174.05 224.049 173.77C223.749 173.47 223.379 173.32 222.939 173.32ZM245.33 171.67C246.15 171.67 246.89 171.8 247.55 172.06C248.23 172.3 248.76 172.69 249.14 173.23C249.52 173.77 249.71 174.47 249.71 175.33C249.71 176.15 249.45 176.85 248.93 177.43C248.43 178.01 247.76 178.49 246.92 178.87C246.1 179.23 245.21 179.53 244.25 179.77C243.29 180.01 242.36 180.18 241.46 180.28C241.46 181.46 241.59 182.4 241.85 183.1C242.11 183.78 242.46 184.27 242.9 184.57C243.36 184.85 243.86 184.99 244.4 184.99C244.82 184.99 245.28 184.91 245.78 184.75C246.3 184.57 246.81 184.25 247.31 183.79C247.81 183.33 248.25 182.69 248.63 181.87L250.07 182.59C249.51 183.81 248.89 184.77 248.21 185.47C247.53 186.15 246.81 186.63 246.05 186.91C245.29 187.19 244.5 187.33 243.68 187.33C241.82 187.35 240.38 186.8 239.36 185.68C238.34 184.56 237.83 182.94 237.83 180.82C237.83 179.78 237.98 178.73 238.28 177.67C238.58 176.59 239.03 175.6 239.63 174.7C240.25 173.8 241.03 173.07 241.97 172.51C242.91 171.95 244.03 171.67 245.33 171.67ZM244.97 173.32C244.21 173.32 243.59 173.59 243.11 174.13C242.63 174.65 242.26 175.32 242 176.14C241.76 176.94 241.6 177.77 241.52 178.63C242.6 178.45 243.51 178.19 244.25 177.85C244.99 177.49 245.56 177.07 245.96 176.59C246.36 176.11 246.56 175.58 246.56 175C246.54 174.46 246.38 174.05 246.08 173.77C245.78 173.47 245.41 173.32 244.97 173.32ZM253.546 187.33C252.866 187.33 252.326 187.16 251.926 186.82C251.526 186.46 251.326 186 251.326 185.44C251.326 184.88 251.486 184.43 251.806 184.09C252.146 183.75 252.536 183.58 252.976 183.58C253.456 183.58 253.806 183.71 254.026 183.97C254.266 184.21 254.416 184.46 254.476 184.72C254.876 184.64 255.296 184.19 255.736 183.37C256.176 182.55 256.696 181.25 257.296 179.47C256.956 178.55 256.676 177.76 256.456 177.1C256.236 176.42 256.006 175.81 255.766 175.27C255.566 174.83 255.386 174.54 255.226 174.4C255.066 174.24 254.866 174.15 254.626 174.13C254.346 174.13 254.066 174.3 253.786 174.64C253.526 174.96 253.356 175.62 253.276 176.62L251.866 176.47C251.886 176.05 251.966 175.57 252.106 175.03C252.246 174.49 252.456 173.96 252.736 173.44C253.036 172.92 253.436 172.5 253.936 172.18C254.456 171.84 255.096 171.67 255.856 171.67C256.636 171.67 257.226 171.9 257.626 172.36C258.046 172.8 258.406 173.41 258.706 174.19C258.846 174.55 258.976 174.91 259.096 175.27C259.216 175.63 259.366 176.12 259.546 176.74C260.006 175.58 260.446 174.67 260.866 174.01C261.306 173.33 261.716 172.82 262.096 172.48C262.496 172.14 262.856 171.92 263.176 171.82C263.516 171.72 263.826 171.67 264.106 171.67C264.746 171.67 265.226 171.85 265.546 172.21C265.866 172.55 266.026 172.99 266.026 173.53C266.026 173.97 265.866 174.36 265.546 174.7C265.226 175.04 264.836 175.21 264.376 175.21C263.976 175.21 263.666 175.13 263.446 174.97C263.246 174.81 263.076 174.65 262.936 174.49C262.736 174.59 262.506 174.79 262.246 175.09C262.006 175.37 261.726 175.81 261.406 176.41C261.106 177.01 260.736 177.83 260.296 178.87C260.596 179.65 260.886 180.4 261.166 181.12C261.466 181.82 261.756 182.46 262.036 183.04C262.336 183.6 262.616 184.05 262.876 184.39C263.156 184.71 263.416 184.87 263.656 184.87C263.976 184.87 264.236 184.71 264.436 184.39C264.656 184.05 264.826 183.44 264.946 182.56L266.326 182.77C266.286 183.23 266.196 183.72 266.056 184.24C265.916 184.76 265.706 185.26 265.426 185.74C265.146 186.2 264.776 186.58 264.316 186.88C263.856 187.18 263.276 187.33 262.576 187.33C262.076 187.33 261.646 187.25 261.286 187.09C260.926 186.93 260.586 186.65 260.266 186.25C259.966 185.85 259.646 185.29 259.306 184.57C258.986 183.83 258.586 182.89 258.106 181.75H258.076C257.656 182.99 257.246 183.99 256.846 184.75C256.466 185.49 256.086 186.05 255.706 186.43C255.346 186.79 254.976 187.03 254.596 187.15C254.236 187.27 253.886 187.33 253.546 187.33ZM268.154 194.65V193.06C268.674 193.06 269.054 192.92 269.294 192.64C269.534 192.36 269.704 191.97 269.804 191.47C269.904 190.99 269.974 190.45 270.014 189.85C270.214 187.71 270.384 185.81 270.524 184.15C270.664 182.47 270.774 181.02 270.854 179.8C270.954 178.58 271.024 177.59 271.064 176.83C271.124 176.05 271.154 175.49 271.154 175.15C271.154 174.77 271.104 174.49 271.004 174.31C270.924 174.13 270.784 174.04 270.584 174.04C270.324 174.04 270.044 174.23 269.744 174.61C269.444 174.97 269.164 175.63 268.904 176.59L267.524 176.2C267.604 175.8 267.734 175.34 267.914 174.82C268.094 174.3 268.344 173.8 268.664 173.32C268.984 172.84 269.374 172.45 269.834 172.15C270.314 171.83 270.874 171.67 271.514 171.67C272.234 171.67 272.814 171.9 273.254 172.36C273.694 172.82 273.914 173.55 273.914 174.55C273.914 174.99 273.884 175.4 273.824 175.78C273.784 176.14 273.734 176.51 273.674 176.89H273.734C274.234 175.47 274.774 174.39 275.354 173.65C275.954 172.89 276.564 172.37 277.184 172.09C277.804 171.81 278.384 171.67 278.924 171.67C279.884 171.67 280.684 171.92 281.324 172.42C281.964 172.92 282.444 173.6 282.764 174.46C283.084 175.32 283.244 176.31 283.244 177.43C283.244 179.35 282.924 181.06 282.284 182.56C281.664 184.04 280.714 185.21 279.434 186.07C278.174 186.91 276.584 187.33 274.664 187.33C274.504 187.33 274.324 187.32 274.124 187.3C273.924 187.3 273.734 187.29 273.554 187.27C273.494 188.43 273.434 189.36 273.374 190.06C273.334 190.78 273.294 191.34 273.254 191.74C273.234 192.16 273.194 192.52 273.134 192.82C273.454 192.78 273.794 192.75 274.154 192.73C274.534 192.73 274.844 192.73 275.084 192.73V194.65H268.154ZM275.054 185.68C275.794 185.68 276.424 185.49 276.944 185.11C277.484 184.73 277.924 184.24 278.264 183.64C278.624 183.04 278.904 182.38 279.104 181.66C279.304 180.94 279.444 180.23 279.524 179.53C279.624 178.83 279.674 178.2 279.674 177.64C279.674 176.84 279.614 176.17 279.494 175.63C279.374 175.07 279.184 174.65 278.924 174.37C278.684 174.09 278.374 173.95 277.994 173.95C277.534 173.95 277.094 174.16 276.674 174.58C276.274 174.98 275.894 175.56 275.534 176.32C275.194 177.06 274.894 177.94 274.634 178.96C274.374 179.98 274.154 181.11 273.974 182.35C273.914 182.83 273.854 183.33 273.794 183.85C273.734 184.35 273.684 184.88 273.644 185.44C273.904 185.5 274.154 185.56 274.394 185.62C274.654 185.66 274.874 185.68 275.054 185.68ZM292.821 171.67C293.641 171.67 294.381 171.8 295.041 172.06C295.721 172.3 296.251 172.69 296.631 173.23C297.011 173.77 297.201 174.47 297.201 175.33C297.201 176.15 296.941 176.85 296.421 177.43C295.921 178.01 295.251 178.49 294.411 178.87C293.591 179.23 292.701 179.53 291.741 179.77C290.781 180.01 289.851 180.18 288.951 180.28C288.951 181.46 289.081 182.4 289.341 183.1C289.601 183.78 289.951 184.27 290.391 184.57C290.851 184.85 291.351 184.99 291.891 184.99C292.311 184.99 292.771 184.91 293.271 184.75C293.791 184.57 294.301 184.25 294.801 183.79C295.301 183.33 295.741 182.69 296.121 181.87L297.561 182.59C297.001 183.81 296.381 184.77 295.701 185.47C295.021 186.15 294.301 186.63 293.541 186.91C292.781 187.19 291.991 187.33 291.171 187.33C289.311 187.35 287.871 186.8 286.851 185.68C285.831 184.56 285.321 182.94 285.321 180.82C285.321 179.78 285.471 178.73 285.771 177.67C286.071 176.59 286.521 175.6 287.121 174.7C287.741 173.8 288.521 173.07 289.461 172.51C290.401 171.95 291.521 171.67 292.821 171.67ZM292.461 173.32C291.701 173.32 291.081 173.59 290.601 174.13C290.121 174.65 289.751 175.32 289.491 176.14C289.251 176.94 289.091 177.77 289.011 178.63C290.091 178.45 291.001 178.19 291.741 177.85C292.481 177.49 293.051 177.07 293.451 176.59C293.851 176.11 294.051 175.58 294.051 175C294.031 174.46 293.871 174.05 293.571 173.77C293.271 173.47 292.901 173.32 292.461 173.32ZM301.391 187C301.351 186.68 301.331 186.45 301.331 186.31C301.331 186.15 301.331 185.97 301.331 185.77C301.331 185.39 301.351 184.93 301.391 184.39C301.431 183.83 301.481 183.19 301.541 182.47C301.621 181.75 301.711 180.96 301.811 180.1C301.931 179.2 302.031 178.42 302.111 177.76C302.211 177.1 302.281 176.56 302.321 176.14C302.361 175.7 302.381 175.36 302.381 175.12C302.401 174.76 302.361 174.49 302.261 174.31C302.181 174.13 302.041 174.04 301.841 174.04C301.581 174.04 301.301 174.23 301.001 174.61C300.701 174.97 300.421 175.63 300.161 176.59L298.781 176.2C298.861 175.8 298.991 175.34 299.171 174.82C299.351 174.3 299.601 173.8 299.921 173.32C300.241 172.84 300.631 172.45 301.091 172.15C301.551 171.83 302.101 171.67 302.741 171.67C303.481 171.67 304.071 171.9 304.511 172.36C304.951 172.82 305.171 173.58 305.171 174.64C305.151 175 305.111 175.42 305.051 175.9C304.991 176.36 304.911 176.88 304.811 177.46H304.871C305.411 175.86 305.971 174.65 306.551 173.83C307.151 172.99 307.741 172.42 308.321 172.12C308.921 171.82 309.491 171.67 310.031 171.67C310.731 171.67 311.301 171.86 311.741 172.24C312.181 172.62 312.401 173.13 312.401 173.77C312.401 174.23 312.231 174.65 311.891 175.03C311.571 175.41 311.141 175.6 310.601 175.6C310.201 175.6 309.841 175.47 309.521 175.21C309.201 174.95 309.041 174.6 309.041 174.16C308.641 174.08 308.231 174.27 307.811 174.73C307.411 175.17 307.021 175.79 306.641 176.59C306.281 177.39 305.961 178.28 305.681 179.26C305.401 180.24 305.171 181.24 304.991 182.26C304.831 183.28 304.751 184.24 304.751 185.14C304.751 185.4 304.761 185.72 304.781 186.1C304.801 186.46 304.821 186.76 304.841 187H301.391ZM316.721 171.67C317.701 171.67 318.391 171.98 318.791 172.6C319.211 173.2 319.421 174.01 319.421 175.03C319.421 175.55 319.371 176.21 319.271 177.01C319.171 177.81 319.051 178.66 318.911 179.56C318.791 180.46 318.671 181.31 318.551 182.11C318.451 182.89 318.401 183.53 318.401 184.03C318.401 184.37 318.461 184.61 318.581 184.75C318.701 184.89 318.851 184.96 319.031 184.96C319.291 184.96 319.571 184.78 319.871 184.42C320.171 184.04 320.461 183.37 320.741 182.41L322.091 182.8C322.011 183.22 321.861 183.69 321.641 184.21C321.421 184.73 321.131 185.23 320.771 185.71C320.431 186.17 320.011 186.56 319.511 186.88C319.011 187.18 318.441 187.33 317.801 187.33C316.761 187.33 316.031 187.05 315.611 186.49C315.191 185.93 314.981 185.14 314.981 184.12C314.981 183.44 315.031 182.7 315.131 181.9C315.251 181.08 315.381 180.26 315.521 179.44C315.661 178.6 315.781 177.8 315.881 177.04C315.981 176.28 316.031 175.6 316.031 175C316.031 174.68 315.981 174.44 315.881 174.28C315.781 174.12 315.631 174.04 315.431 174.04C315.191 174.04 314.921 174.23 314.621 174.61C314.321 174.97 314.031 175.63 313.751 176.59L312.401 176.2C312.461 175.8 312.601 175.34 312.821 174.82C313.041 174.3 313.331 173.8 313.691 173.32C314.071 172.84 314.511 172.45 315.011 172.15C315.511 171.83 316.081 171.67 316.721 171.67ZM318.011 164.47C318.591 164.47 319.071 164.68 319.451 165.1C319.831 165.52 320.001 166.05 319.961 166.69C319.961 167.31 319.761 167.83 319.361 168.25C318.961 168.67 318.461 168.88 317.861 168.88C317.261 168.88 316.771 168.67 316.391 168.25C316.031 167.83 315.851 167.31 315.851 166.69C315.891 166.05 316.121 165.52 316.541 165.1C316.961 164.68 317.451 164.47 318.011 164.47ZM330.819 171.67C331.639 171.67 332.379 171.8 333.039 172.06C333.719 172.3 334.249 172.69 334.629 173.23C335.009 173.77 335.199 174.47 335.199 175.33C335.199 176.15 334.939 176.85 334.419 177.43C333.919 178.01 333.249 178.49 332.409 178.87C331.589 179.23 330.699 179.53 329.739 179.77C328.779 180.01 327.849 180.18 326.949 180.28C326.949 181.46 327.079 182.4 327.339 183.1C327.599 183.78 327.949 184.27 328.389 184.57C328.849 184.85 329.349 184.99 329.889 184.99C330.309 184.99 330.769 184.91 331.269 184.75C331.789 184.57 332.299 184.25 332.799 183.79C333.299 183.33 333.739 182.69 334.119 181.87L335.559 182.59C334.999 183.81 334.379 184.77 333.699 185.47C333.019 186.15 332.299 186.63 331.539 186.91C330.779 187.19 329.989 187.33 329.169 187.33C327.309 187.35 325.869 186.8 324.849 185.68C323.829 184.56 323.319 182.94 323.319 180.82C323.319 179.78 323.469 178.73 323.769 177.67C324.069 176.59 324.519 175.6 325.119 174.7C325.739 173.8 326.519 173.07 327.459 172.51C328.399 171.95 329.519 171.67 330.819 171.67ZM330.459 173.32C329.699 173.32 329.079 173.59 328.599 174.13C328.119 174.65 327.749 175.32 327.489 176.14C327.249 176.94 327.089 177.77 327.009 178.63C328.089 178.45 328.999 178.19 329.739 177.85C330.479 177.49 331.049 177.07 331.449 176.59C331.849 176.11 332.049 175.58 332.049 175C332.029 174.46 331.869 174.05 331.569 173.77C331.269 173.47 330.899 173.32 330.459 173.32ZM350.339 187.33C349.279 187.33 348.559 187.05 348.179 186.49C347.819 185.91 347.639 185.12 347.639 184.12C347.639 183.52 347.679 182.85 347.759 182.11C347.839 181.35 347.929 180.57 348.029 179.77C348.149 178.95 348.249 178.17 348.329 177.43C348.409 176.67 348.449 176 348.449 175.42C348.449 175.14 348.419 174.89 348.359 174.67C348.299 174.45 348.189 174.28 348.029 174.16C347.889 174.04 347.689 173.98 347.429 173.98C346.989 173.98 346.549 174.22 346.109 174.7C345.669 175.16 345.239 175.79 344.819 176.59C344.419 177.37 344.059 178.24 343.739 179.2C343.419 180.16 343.159 181.15 342.959 182.17C342.779 183.17 342.689 184.12 342.689 185.02C342.689 185.3 342.699 185.64 342.719 186.04C342.739 186.44 342.759 186.76 342.779 187H339.359C339.319 186.68 339.289 186.45 339.269 186.31C339.269 186.15 339.269 185.97 339.269 185.77C339.269 185.39 339.289 184.94 339.329 184.42C339.389 183.88 339.459 183.26 339.539 182.56C339.619 181.86 339.709 181.08 339.809 180.22C339.909 179.46 339.989 178.8 340.049 178.24C340.129 177.68 340.189 177.2 340.229 176.8C340.289 176.38 340.329 176.03 340.349 175.75C340.369 175.45 340.379 175.2 340.379 175C340.379 174.66 340.329 174.42 340.229 174.28C340.149 174.12 340.019 174.04 339.839 174.04C339.579 174.04 339.299 174.23 338.999 174.61C338.699 174.97 338.419 175.63 338.159 176.59L336.779 176.2C336.859 175.8 336.989 175.34 337.169 174.82C337.349 174.3 337.599 173.8 337.919 173.32C338.239 172.84 338.629 172.45 339.089 172.15C339.549 171.83 340.099 171.67 340.739 171.67C341.259 171.67 341.699 171.79 342.059 172.03C342.439 172.25 342.719 172.59 342.899 173.05C343.099 173.49 343.189 174.06 343.169 174.76C343.149 175.2 343.109 175.59 343.049 175.93C343.009 176.27 342.959 176.62 342.899 176.98H342.959C343.499 175.56 344.069 174.47 344.669 173.71C345.269 172.93 345.879 172.4 346.499 172.12C347.119 171.82 347.729 171.67 348.329 171.67C349.169 171.67 349.839 171.86 350.339 172.24C350.859 172.6 351.239 173.11 351.479 173.77C351.719 174.43 351.839 175.19 351.839 176.05C351.839 176.89 351.769 177.8 351.629 178.78C351.509 179.74 351.379 180.68 351.239 181.6C351.099 182.5 351.029 183.3 351.029 184C351.029 184.32 351.079 184.56 351.179 184.72C351.279 184.88 351.419 184.96 351.599 184.96C351.859 184.96 352.139 184.78 352.439 184.42C352.739 184.04 353.019 183.37 353.279 182.41L354.659 182.8C354.579 183.2 354.429 183.66 354.209 184.18C353.989 184.7 353.699 185.2 353.339 185.68C352.979 186.16 352.549 186.56 352.049 186.88C351.549 187.18 350.979 187.33 350.339 187.33ZM363.158 171.67C364.058 171.67 364.858 171.82 365.558 172.12C366.278 172.42 366.848 172.84 367.268 173.38C367.688 173.9 367.898 174.52 367.898 175.24C367.898 175.78 367.738 176.23 367.418 176.59C367.118 176.93 366.708 177.1 366.188 177.1C365.568 177.12 365.128 176.94 364.868 176.56C364.628 176.18 364.508 175.84 364.508 175.54C364.508 175.36 364.528 175.16 364.568 174.94C364.628 174.72 364.718 174.51 364.838 174.31C364.758 174.01 364.558 173.78 364.238 173.62C363.918 173.44 363.538 173.35 363.098 173.35C362.378 173.35 361.788 173.57 361.328 174.01C360.868 174.45 360.498 175.01 360.218 175.69C359.958 176.37 359.768 177.1 359.648 177.88C359.528 178.64 359.468 179.36 359.468 180.04C359.428 181.22 359.538 182.17 359.798 182.89C360.078 183.61 360.438 184.14 360.878 184.48C361.338 184.8 361.828 184.97 362.348 184.99C362.768 185.01 363.228 184.94 363.728 184.78C364.248 184.62 364.758 184.3 365.258 183.82C365.758 183.32 366.208 182.6 366.608 181.66L368.108 182.38C367.568 183.64 366.948 184.63 366.248 185.35C365.568 186.07 364.838 186.58 364.058 186.88C363.298 187.16 362.508 187.31 361.688 187.33C359.928 187.31 358.508 186.77 357.428 185.71C356.368 184.65 355.838 183.01 355.838 180.79C355.838 179.81 355.978 178.79 356.258 177.73C356.558 176.67 357.008 175.69 357.608 174.79C358.208 173.87 358.968 173.12 359.888 172.54C360.808 171.96 361.898 171.67 363.158 171.67ZM377.401 171.67C378.221 171.67 378.961 171.8 379.621 172.06C380.301 172.3 380.831 172.69 381.211 173.23C381.591 173.77 381.781 174.47 381.781 175.33C381.781 176.15 381.521 176.85 381.001 177.43C380.501 178.01 379.831 178.49 378.991 178.87C378.171 179.23 377.281 179.53 376.321 179.77C375.361 180.01 374.431 180.18 373.531 180.28C373.531 181.46 373.661 182.4 373.921 183.1C374.181 183.78 374.531 184.27 374.971 184.57C375.431 184.85 375.931 184.99 376.471 184.99C376.891 184.99 377.351 184.91 377.851 184.75C378.371 184.57 378.881 184.25 379.381 183.79C379.881 183.33 380.321 182.69 380.701 181.87L382.141 182.59C381.581 183.81 380.961 184.77 380.281 185.47C379.601 186.15 378.881 186.63 378.121 186.91C377.361 187.19 376.571 187.33 375.751 187.33C373.891 187.35 372.451 186.8 371.431 185.68C370.411 184.56 369.901 182.94 369.901 180.82C369.901 179.78 370.051 178.73 370.351 177.67C370.651 176.59 371.101 175.6 371.701 174.7C372.321 173.8 373.101 173.07 374.041 172.51C374.981 171.95 376.101 171.67 377.401 171.67ZM377.041 173.32C376.281 173.32 375.661 173.59 375.181 174.13C374.701 174.65 374.331 175.32 374.071 176.14C373.831 176.94 373.671 177.77 373.591 178.63C374.671 178.45 375.581 178.19 376.321 177.85C377.061 177.49 377.631 177.07 378.031 176.59C378.431 176.11 378.631 175.58 378.631 175C378.611 174.46 378.451 174.05 378.151 173.77C377.851 173.47 377.481 173.32 377.041 173.32ZM386.271 183.1C386.851 183.1 387.321 183.32 387.681 183.76C388.041 184.18 388.201 184.69 388.161 185.29C388.141 185.89 387.931 186.41 387.531 186.85C387.131 187.27 386.641 187.48 386.061 187.48C385.461 187.48 384.981 187.27 384.621 186.85C384.261 186.41 384.091 185.89 384.111 185.29C384.151 184.69 384.381 184.18 384.801 183.76C385.241 183.32 385.731 183.1 386.271 183.1ZM398.341 165.52L397.741 172.27H395.521L395.671 165.52H398.341ZM393.871 165.52L393.241 172.27H391.051L391.171 165.52H393.871ZM267.875 217.454H272.195L272.555 215.834H268.235L267.875 217.454ZM281.588 221H283.694L286.34 208.994H284.234L283.154 213.908H276.908L277.988 208.994H275.882L273.236 221H275.342L276.494 215.762H282.74L281.588 221ZM288.422 209.858C288.422 210.416 288.872 210.866 289.484 210.866C290.078 210.866 290.798 210.38 290.798 209.534C290.798 208.994 290.348 208.526 289.736 208.526C289.142 208.526 288.422 209.012 288.422 209.858ZM286.19 221H288.08L290.006 212.306H288.116L286.19 221ZM290.531 221H292.421L293.717 215.114C294.239 214.466 295.121 213.908 296.021 213.908C296.363 213.908 296.669 213.962 296.795 213.998L297.209 212.108C295.787 212.108 294.869 212.63 294.059 213.53L294.347 212.306H292.457L290.531 221ZM299.004 209.858C299.004 210.416 299.454 210.866 300.066 210.866C300.66 210.866 301.38 210.38 301.38 209.534C301.38 208.994 300.93 208.526 300.318 208.526C299.724 208.526 299.004 209.012 299.004 209.858ZM296.772 221H298.662L300.588 212.306H298.698L296.772 221ZM306.981 221H308.871L310.203 215.006C310.239 214.826 310.293 214.448 310.293 214.286C310.293 212.918 309.249 212.09 307.629 212.09C306.369 212.09 305.379 212.81 304.659 213.494L304.929 212.306H303.039L301.113 221H303.003L304.335 214.934C304.911 214.358 305.775 213.764 306.819 213.764C307.575 213.764 308.277 214.124 308.277 215.006C308.277 215.186 308.223 215.384 308.187 215.546L306.981 221ZM310.822 223.034C311.812 224.15 313.198 224.528 314.89 224.528C316.762 224.528 318.742 223.664 319.408 220.55L321.244 212.306H319.354L319.066 213.548C318.436 212.684 317.266 212.09 316.168 212.09C313.342 212.09 311.65 214.754 311.65 217.436C311.65 219.938 313.162 221 314.944 221C316.078 221 317.05 220.46 317.734 219.614L317.518 220.55C317.104 222.422 316.024 222.98 314.854 222.98C313.648 222.98 312.532 222.584 311.956 221.774L310.822 223.034ZM318.058 218.156C317.518 218.804 316.654 219.326 315.79 219.326C314.476 219.326 313.612 218.462 313.612 217.094C313.612 215.348 314.728 213.764 316.384 213.764C317.41 213.764 318.31 214.232 318.76 215.006L318.058 218.156ZM336.813 221H338.919L341.565 208.994H338.505L333.375 217.436L331.971 208.994H329.091L326.445 221H328.551L330.621 211.55L332.223 221H333.123L338.883 211.55L336.813 221ZM349.196 213.548C348.62 212.648 347.558 212.09 346.316 212.09C343.418 212.09 341.744 214.916 341.744 217.634C341.744 219.92 343.094 221.216 345.074 221.216C346.172 221.216 347.072 220.73 347.792 219.848L347.54 221H349.43L351.356 212.306H349.466L349.196 213.548ZM343.724 217.256C343.724 215.438 344.894 213.764 346.604 213.764C347.666 213.764 348.494 214.286 348.89 214.952L348.134 218.318C347.63 219.002 346.784 219.542 345.866 219.542C344.606 219.542 343.724 218.66 343.724 217.256ZM357.747 221H359.637L360.969 215.006C361.005 214.826 361.059 214.448 361.059 214.286C361.059 212.918 360.015 212.09 358.395 212.09C357.135 212.09 356.145 212.81 355.425 213.494L355.695 212.306H353.805L351.879 221H353.769L355.101 214.934C355.677 214.358 356.541 213.764 357.585 213.764C358.341 213.764 359.043 214.124 359.043 215.006C359.043 215.186 358.989 215.384 358.953 215.546L357.747 221ZM369.868 213.548C369.292 212.648 368.23 212.09 366.988 212.09C364.09 212.09 362.416 214.916 362.416 217.634C362.416 219.92 363.766 221.216 365.746 221.216C366.844 221.216 367.744 220.73 368.464 219.848L368.212 221H370.102L372.028 212.306H370.138L369.868 213.548ZM364.396 217.256C364.396 215.438 365.566 213.764 367.276 213.764C368.338 213.764 369.166 214.286 369.562 214.952L368.806 218.318C368.302 219.002 367.456 219.542 366.538 219.542C365.278 219.542 364.396 218.66 364.396 217.256ZM372.047 223.034C373.037 224.15 374.423 224.528 376.115 224.528C377.987 224.528 379.967 223.664 380.633 220.55L382.469 212.306H380.579L380.291 213.548C379.661 212.684 378.491 212.09 377.393 212.09C374.567 212.09 372.875 214.754 372.875 217.436C372.875 219.938 374.387 221 376.169 221C377.303 221 378.275 220.46 378.959 219.614L378.743 220.55C378.329 222.422 377.249 222.98 376.079 222.98C374.873 222.98 373.757 222.584 373.181 221.774L372.047 223.034ZM379.283 218.156C378.743 218.804 377.879 219.326 377.015 219.326C375.701 219.326 374.837 218.462 374.837 217.094C374.837 215.348 375.953 213.764 377.609 213.764C378.635 213.764 379.535 214.232 379.985 215.006L379.283 218.156ZM383.334 217.328C383.334 219.722 385.026 221.216 387.726 221.216C388.824 221.216 389.976 220.856 390.786 220.262L390.192 218.948C389.58 219.416 388.662 219.668 387.87 219.668C386.106 219.668 385.224 218.57 385.224 217.58L385.242 217.274H391.974C392.046 217.004 392.136 216.41 392.136 215.942C392.136 213.602 390.552 212.09 388.302 212.09C385.458 212.09 383.334 214.484 383.334 217.328ZM390.426 215.942H385.44C385.674 214.736 386.772 213.638 388.158 213.638C389.688 213.638 390.444 214.574 390.444 215.69C390.444 215.762 390.444 215.888 390.426 215.942ZM393.012 221H394.902L396.198 215.114C396.72 214.466 397.602 213.908 398.502 213.908C398.844 213.908 399.15 213.962 399.276 213.998L399.69 212.108C398.268 212.108 397.35 212.63 396.54 213.53L396.828 212.306H394.938L393.012 221Z" fill="#F25187"/>
</svg>
