<svg width="338" height="453" viewBox="0 0 338 453" fill="none" xmlns="http://www.w3.org/2000/svg">
<rect width="338" height="453" rx="10" fill="#1F1216" fill-opacity="0.8"/>
<path d="M85.1277 340.624C86.2257 340.624 87.1257 339.724 87.1257 338.644C87.1257 337.546 86.2257 336.646 85.1277 336.646C84.0297 336.646 83.1297 337.546 83.1297 338.644C83.1297 339.724 84.0297 340.624 85.1277 340.624ZM94.3115 343H98.5955C102.339 343 104.823 340.48 104.823 337.006C104.823 333.55 102.339 330.994 98.5955 330.994H94.3115V343ZM96.1115 341.416V332.578H98.5955C101.421 332.578 102.969 334.54 102.969 337.006C102.969 339.436 101.367 341.416 98.5955 341.416H96.1115ZM112.331 343H113.951V337.132C113.951 334.918 112.349 334.09 110.459 334.09C109.055 334.09 107.867 334.558 106.895 335.512L107.597 336.628C108.371 335.854 109.217 335.476 110.207 335.476C111.449 335.476 112.331 336.124 112.331 337.204V338.644C111.665 337.87 110.657 337.492 109.487 337.492C108.029 337.492 106.463 338.356 106.463 340.336C106.463 342.244 108.047 343.216 109.487 343.216C110.657 343.216 111.647 342.802 112.331 342.046V343ZM112.331 341.092C111.845 341.74 110.999 342.082 110.099 342.082C108.929 342.082 108.101 341.38 108.101 340.354C108.101 339.328 108.929 338.626 110.099 338.626C110.999 338.626 111.845 338.968 112.331 339.616V341.092ZM117.339 332.848C117.915 332.848 118.383 332.398 118.383 331.822C118.383 331.246 117.915 330.778 117.339 330.778C116.781 330.778 116.295 331.246 116.295 331.822C116.295 332.398 116.781 332.848 117.339 332.848ZM116.547 343H118.167V334.306H116.547V343ZM120.748 343H122.368V330.994H120.748V343ZM124.769 344.944L124.517 346.402C124.769 346.474 125.255 346.528 125.525 346.528C126.785 346.51 127.739 346.024 128.297 344.656L132.581 334.306H130.835L128.117 341.128L125.399 334.306H123.671L127.253 343.09L126.749 344.242C126.479 344.89 126.083 345.088 125.489 345.088C125.273 345.088 124.967 345.034 124.769 344.944ZM138.573 343H142.857C146.601 343 149.085 340.48 149.085 337.006C149.085 333.55 146.601 330.994 142.857 330.994H138.573V343ZM140.373 341.416V332.578H142.857C145.683 332.578 147.231 334.54 147.231 337.006C147.231 339.436 145.629 341.416 142.857 341.416H140.373ZM152.021 332.848C152.597 332.848 153.065 332.398 153.065 331.822C153.065 331.246 152.597 330.778 152.021 330.778C151.463 330.778 150.977 331.246 150.977 331.822C150.977 332.398 151.463 332.848 152.021 332.848ZM151.229 343H152.849V334.306H151.229V343ZM154.674 341.866C155.556 342.766 156.834 343.216 158.292 343.216C160.578 343.216 161.802 342.046 161.802 340.552C161.802 338.554 160.002 338.14 158.49 337.798C157.41 337.546 156.474 337.294 156.474 336.538C156.474 335.836 157.158 335.404 158.256 335.404C159.354 335.404 160.326 335.854 160.83 336.466L161.55 335.332C160.812 334.63 159.732 334.09 158.238 334.09C156.114 334.09 154.926 335.278 154.926 336.664C154.926 338.536 156.654 338.932 158.13 339.274C159.246 339.526 160.236 339.814 160.236 340.678C160.236 341.416 159.588 341.92 158.364 341.92C157.194 341.92 156.042 341.326 155.448 340.678L154.674 341.866ZM163.31 338.644C163.31 341.254 165.11 343.216 167.738 343.216C169.376 343.216 170.366 342.532 170.996 341.686L169.916 340.696C169.394 341.416 168.692 341.776 167.81 341.776C166.1 341.776 165.002 340.444 165.002 338.644C165.002 336.844 166.1 335.53 167.81 335.53C168.692 335.53 169.394 335.872 169.916 336.61L170.996 335.62C170.366 334.774 169.376 334.09 167.738 334.09C165.11 334.09 163.31 336.034 163.31 338.644ZM176.631 343.216C179.349 343.216 181.023 341.164 181.023 338.644C181.023 336.142 179.349 334.09 176.631 334.09C173.931 334.09 172.239 336.142 172.239 338.644C172.239 341.164 173.931 343.216 176.631 343.216ZM176.631 341.776C174.903 341.776 173.931 340.3 173.931 338.644C173.931 337.006 174.903 335.53 176.631 335.53C178.377 335.53 179.331 337.006 179.331 338.644C179.331 340.3 178.377 341.776 176.631 341.776ZM185.384 343H187.13L190.712 334.306H188.966L186.248 341.128L183.53 334.306H181.802L185.384 343ZM191.487 338.644C191.487 341.38 193.395 343.216 195.987 343.216C197.391 343.216 198.615 342.766 199.479 341.92L198.723 340.858C198.075 341.524 197.067 341.884 196.149 341.884C194.403 341.884 193.323 340.66 193.197 339.184H200.073V338.788C200.073 336.124 198.453 334.09 195.843 334.09C193.305 334.09 191.487 336.124 191.487 338.644ZM195.843 335.422C197.679 335.422 198.453 336.862 198.489 338.014H193.179C193.269 336.826 194.097 335.422 195.843 335.422ZM202.1 343H203.72V336.952C204.098 336.304 205.196 335.692 206.006 335.692C206.222 335.692 206.402 335.71 206.564 335.746V334.108C205.412 334.108 204.386 334.774 203.72 335.638V334.306H202.1V343ZM208.002 344.944L207.75 346.402C208.002 346.474 208.488 346.528 208.758 346.528C210.018 346.51 210.972 346.024 211.53 344.656L215.814 334.306H214.068L211.35 341.128L208.632 334.306H206.904L210.486 343.09L209.982 344.242C209.712 344.89 209.316 345.088 208.722 345.088C208.506 345.088 208.2 345.034 208.002 344.944ZM224.74 343H226.54V332.578H230.248V330.994H221.014V332.578H224.74V343ZM232.88 332.848C233.456 332.848 233.924 332.398 233.924 331.822C233.924 331.246 233.456 330.778 232.88 330.778C232.322 330.778 231.836 331.246 231.836 331.822C231.836 332.398 232.322 332.848 232.88 332.848ZM232.088 343H233.708V334.306H232.088V343ZM246.855 343H248.475V336.718C248.475 334.972 247.611 334.09 246.009 334.09C244.731 334.09 243.579 334.9 243.075 335.71C242.805 334.774 242.031 334.09 240.717 334.09C239.421 334.09 238.269 334.99 237.909 335.53V334.306H236.289V343H237.909V336.79C238.341 336.16 239.187 335.53 240.033 335.53C241.131 335.53 241.563 336.196 241.563 337.204V343H243.183V336.772C243.597 336.142 244.461 335.53 245.343 335.53C246.405 335.53 246.855 336.196 246.855 337.204V343ZM250.515 338.644C250.515 341.38 252.423 343.216 255.015 343.216C256.419 343.216 257.643 342.766 258.507 341.92L257.751 340.858C257.103 341.524 256.095 341.884 255.177 341.884C253.431 341.884 252.351 340.66 252.225 339.184H259.101V338.788C259.101 336.124 257.481 334.09 254.871 334.09C252.333 334.09 250.515 336.124 250.515 338.644ZM254.871 335.422C256.707 335.422 257.481 336.862 257.517 338.014H252.207C252.297 336.826 253.125 335.422 254.871 335.422ZM113.771 368.624C114.869 368.624 115.769 367.724 115.769 366.644C115.769 365.546 114.869 364.646 113.771 364.646C112.673 364.646 111.773 365.546 111.773 366.644C111.773 367.724 112.673 368.624 113.771 368.624ZM122.955 371H130.209V369.416H124.755V358.994H122.955V371ZM132.94 360.848C133.516 360.848 133.984 360.398 133.984 359.822C133.984 359.246 133.516 358.778 132.94 358.778C132.382 358.778 131.896 359.246 131.896 359.822C131.896 360.398 132.382 360.848 132.94 360.848ZM132.148 371H133.768V362.306H132.148V371ZM136.277 373.232C137.321 374.222 138.383 374.528 139.841 374.528C141.983 374.528 144.161 373.646 144.161 370.658V362.306H142.541V363.566C141.839 362.63 140.813 362.09 139.679 362.09C137.429 362.09 135.809 363.782 135.809 366.572C135.809 369.416 137.429 371.072 139.679 371.072C140.849 371.072 141.875 370.442 142.541 369.578V370.712C142.541 372.548 141.191 373.196 139.841 373.196C138.653 373.196 137.771 372.872 137.051 372.044L136.277 373.232ZM142.541 368.336C142.091 369.038 141.101 369.632 140.129 369.632C138.509 369.632 137.501 368.372 137.501 366.572C137.501 364.79 138.509 363.53 140.129 363.53C141.101 363.53 142.091 364.106 142.541 364.808V368.336ZM152.605 371H154.225V364.862C154.225 363.026 153.289 362.09 151.435 362.09C150.103 362.09 148.933 362.828 148.357 363.53V358.994H146.737V371H148.357V364.79C148.825 364.142 149.743 363.53 150.751 363.53C151.867 363.53 152.605 363.962 152.605 365.402V371ZM159.204 371.216C160.05 371.216 160.554 370.982 160.896 370.658L160.482 369.434C160.32 369.614 159.978 369.776 159.6 369.776C159.042 369.776 158.754 369.326 158.754 368.714V363.728H160.518V362.306H158.754V359.93H157.134V362.306H155.694V363.728H157.134V369.074C157.134 370.442 157.836 371.216 159.204 371.216ZM168.18 371H169.8V364.898C169.8 363.062 168.846 362.09 167.01 362.09C165.66 362.09 164.508 362.828 163.932 363.53V362.306H162.312V371H163.932V364.79C164.4 364.142 165.318 363.53 166.326 363.53C167.442 363.53 168.18 363.998 168.18 365.438V371ZM173.158 360.848C173.734 360.848 174.202 360.398 174.202 359.822C174.202 359.246 173.734 358.778 173.158 358.778C172.6 358.778 172.114 359.246 172.114 359.822C172.114 360.398 172.6 360.848 173.158 360.848ZM172.366 371H173.986V362.306H172.366V371ZM182.435 371H184.055V364.898C184.055 363.062 183.101 362.09 181.265 362.09C179.915 362.09 178.763 362.828 178.187 363.53V362.306H176.567V371H178.187V364.79C178.655 364.142 179.573 363.53 180.581 363.53C181.697 363.53 182.435 363.998 182.435 365.438V371ZM186.55 373.232C187.594 374.222 188.656 374.528 190.114 374.528C192.256 374.528 194.434 373.646 194.434 370.658V362.306H192.814V363.566C192.112 362.63 191.086 362.09 189.952 362.09C187.702 362.09 186.082 363.782 186.082 366.572C186.082 369.416 187.702 371.072 189.952 371.072C191.122 371.072 192.148 370.442 192.814 369.578V370.712C192.814 372.548 191.464 373.196 190.114 373.196C188.926 373.196 188.044 372.872 187.324 372.044L186.55 373.232ZM192.814 368.336C192.364 369.038 191.374 369.632 190.402 369.632C188.782 369.632 187.774 368.372 187.774 366.572C187.774 364.79 188.782 363.53 190.402 363.53C191.374 363.53 192.364 364.106 192.814 364.808V368.336ZM204.621 371H206.421V360.578H210.129V358.994H200.895V360.578H204.621V371ZM215.717 371H217.337V365.132C217.337 362.918 215.735 362.09 213.845 362.09C212.441 362.09 211.253 362.558 210.281 363.512L210.983 364.628C211.757 363.854 212.603 363.476 213.593 363.476C214.835 363.476 215.717 364.124 215.717 365.204V366.644C215.051 365.87 214.043 365.492 212.873 365.492C211.415 365.492 209.849 366.356 209.849 368.336C209.849 370.244 211.433 371.216 212.873 371.216C214.043 371.216 215.033 370.802 215.717 370.046V371ZM215.717 369.092C215.231 369.74 214.385 370.082 213.485 370.082C212.315 370.082 211.487 369.38 211.487 368.354C211.487 367.328 212.315 366.626 213.485 366.626C214.385 366.626 215.231 366.968 215.717 367.616V369.092ZM219.933 371H221.553V358.994H219.933V371ZM229.966 371H232.018L228.238 366.248L231.982 362.306H229.948L225.754 366.716V358.994H224.134V371H225.754V368.588L227.068 367.256L229.966 371ZM232.589 369.866C233.471 370.766 234.749 371.216 236.207 371.216C238.493 371.216 239.717 370.046 239.717 368.552C239.717 366.554 237.917 366.14 236.405 365.798C235.325 365.546 234.389 365.294 234.389 364.538C234.389 363.836 235.073 363.404 236.171 363.404C237.269 363.404 238.241 363.854 238.745 364.466L239.465 363.332C238.727 362.63 237.647 362.09 236.153 362.09C234.029 362.09 232.841 363.278 232.841 364.664C232.841 366.536 234.569 366.932 236.045 367.274C237.161 367.526 238.151 367.814 238.151 368.678C238.151 369.416 237.503 369.92 236.279 369.92C235.109 369.92 233.957 369.326 233.363 368.678L232.589 369.866ZM99.9285 396.624C101.026 396.624 101.926 395.724 101.926 394.644C101.926 393.546 101.026 392.646 99.9285 392.646C98.8305 392.646 97.9305 393.546 97.9305 394.644C97.9305 395.724 98.8305 396.624 99.9285 396.624ZM109.112 399H116.366V397.416H110.912V386.994H109.112V399ZM119.097 388.848C119.673 388.848 120.141 388.398 120.141 387.822C120.141 387.246 119.673 386.778 119.097 386.778C118.539 386.778 118.053 387.246 118.053 387.822C118.053 388.398 118.539 388.848 119.097 388.848ZM118.305 399H119.925V390.306H118.305V399ZM128.374 399H129.994V392.898C129.994 391.062 129.04 390.09 127.204 390.09C125.854 390.09 124.702 390.828 124.126 391.53V390.306H122.506V399H124.126V392.79C124.594 392.142 125.512 391.53 126.52 391.53C127.636 391.53 128.374 391.998 128.374 393.438V399ZM138.393 399H140.445L136.665 394.248L140.409 390.306H138.375L134.181 394.716V386.994H132.561V399H134.181V396.588L135.495 395.256L138.393 399ZM140.933 394.644C140.933 397.38 142.841 399.216 145.433 399.216C146.837 399.216 148.061 398.766 148.925 397.92L148.169 396.858C147.521 397.524 146.513 397.884 145.595 397.884C143.849 397.884 142.769 396.66 142.643 395.184H149.519V394.788C149.519 392.124 147.899 390.09 145.289 390.09C142.751 390.09 140.933 392.124 140.933 394.644ZM145.289 391.422C147.125 391.422 147.899 392.862 147.935 394.014H142.625C142.715 392.826 143.543 391.422 145.289 391.422ZM157.737 399H159.357V386.994H157.737V391.566C157.035 390.63 156.009 390.09 154.893 390.09C152.625 390.09 151.005 391.872 151.005 394.662C151.005 397.506 152.625 399.216 154.893 399.216C156.045 399.216 157.089 398.622 157.737 397.758V399ZM157.737 396.516C157.287 397.218 156.315 397.776 155.325 397.776C153.705 397.776 152.697 396.462 152.697 394.662C152.697 392.844 153.705 391.53 155.325 391.53C156.315 391.53 157.287 392.106 157.737 392.808V396.516ZM161.987 399H163.787V386.994H161.987V399ZM172.302 399H173.922V392.898C173.922 391.062 172.968 390.09 171.132 390.09C169.782 390.09 168.63 390.828 168.054 391.53V390.306H166.434V399H168.054V392.79C168.522 392.142 169.44 391.53 170.448 391.53C171.564 391.53 172.302 391.998 172.302 393.438V399ZM181.165 399H189.229V397.416H182.965V393.672H189.103V392.088H182.965V388.578H189.229V386.994H181.165V399ZM197.009 399H198.845L195.569 394.536L198.647 390.306H196.811L194.579 393.438L192.329 390.306H190.493L193.553 394.536L190.295 399H192.131L194.579 395.616L197.009 399ZM201.909 402.312V397.74C202.611 398.694 203.619 399.216 204.753 399.216C207.021 399.216 208.623 397.488 208.623 394.644C208.623 391.8 207.021 390.09 204.753 390.09C203.583 390.09 202.539 390.684 201.909 391.548V390.306H200.289V402.312H201.909ZM206.931 394.644C206.931 396.462 205.941 397.776 204.321 397.776C203.331 397.776 202.341 397.182 201.909 396.498V392.808C202.341 392.106 203.331 391.53 204.321 391.53C205.941 391.53 206.931 392.844 206.931 394.644ZM214.53 399.216C217.248 399.216 218.922 397.164 218.922 394.644C218.922 392.142 217.248 390.09 214.53 390.09C211.83 390.09 210.138 392.142 210.138 394.644C210.138 397.164 211.83 399.216 214.53 399.216ZM214.53 397.776C212.802 397.776 211.83 396.3 211.83 394.644C211.83 393.006 212.802 391.53 214.53 391.53C216.276 391.53 217.23 393.006 217.23 394.644C217.23 396.3 216.276 397.776 214.53 397.776ZM220.223 397.866C221.105 398.766 222.383 399.216 223.841 399.216C226.127 399.216 227.351 398.046 227.351 396.552C227.351 394.554 225.551 394.14 224.039 393.798C222.959 393.546 222.023 393.294 222.023 392.538C222.023 391.836 222.707 391.404 223.805 391.404C224.903 391.404 225.875 391.854 226.379 392.466L227.099 391.332C226.361 390.63 225.281 390.09 223.787 390.09C221.663 390.09 220.475 391.278 220.475 392.664C220.475 394.536 222.203 394.932 223.679 395.274C224.795 395.526 225.785 395.814 225.785 396.678C225.785 397.416 225.137 397.92 223.913 397.92C222.743 397.92 221.591 397.326 220.997 396.678L220.223 397.866ZM235.267 399H236.887V390.306H235.267V396.552C234.781 397.2 233.863 397.776 232.855 397.776C231.739 397.776 231.019 397.344 231.019 395.904V390.306H229.399V396.444C229.399 398.28 230.317 399.216 232.171 399.216C233.503 399.216 234.601 398.532 235.267 397.812V399ZM239.453 399H241.073V392.952C241.451 392.304 242.549 391.692 243.359 391.692C243.575 391.692 243.755 391.71 243.917 391.746V390.108C242.765 390.108 241.739 390.774 241.073 391.638V390.306H239.453V399ZM244.995 394.644C244.995 397.38 246.903 399.216 249.495 399.216C250.899 399.216 252.123 398.766 252.987 397.92L252.231 396.858C251.583 397.524 250.575 397.884 249.657 397.884C247.911 397.884 246.831 396.66 246.705 395.184H253.581V394.788C253.581 392.124 251.961 390.09 249.351 390.09C246.813 390.09 244.995 392.124 244.995 394.644ZM249.351 391.422C251.187 391.422 251.961 392.862 251.997 394.014H246.687C246.777 392.826 247.605 391.422 249.351 391.422Z" fill="#FEFEFE"/>
<path d="M64.9426 287.288C68.5906 287.288 70.6066 285.344 71.7586 283.352L68.8306 281.936C68.1586 283.256 66.7186 284.264 64.9426 284.264C62.1586 284.264 60.0466 282.032 60.0466 279.008C60.0466 275.984 62.1586 273.752 64.9426 273.752C66.7186 273.752 68.1586 274.784 68.8306 276.08L71.7586 274.64C70.6306 272.648 68.5906 270.728 64.9426 270.728C60.2626 270.728 56.5426 274.088 56.5426 279.008C56.5426 283.928 60.2626 287.288 64.9426 287.288ZM79.0911 287.288C82.9311 287.288 85.2351 284.504 85.2351 281.192C85.2351 277.904 82.9311 275.12 79.0911 275.12C75.2751 275.12 72.9711 277.904 72.9711 281.192C72.9711 284.504 75.2751 287.288 79.0911 287.288ZM79.0911 284.576C77.1951 284.576 76.1391 283.016 76.1391 281.192C76.1391 279.392 77.1951 277.832 79.0911 277.832C80.9871 277.832 82.0671 279.392 82.0671 281.192C82.0671 283.016 80.9871 284.576 79.0911 284.576ZM95.3204 287H98.3684V278.816C98.3684 276.56 97.1444 275.12 94.6004 275.12C92.7044 275.12 91.2884 276.032 90.5444 276.92V275.408H87.4964V287H90.5444V279.2C91.0484 278.504 91.9844 277.832 93.1844 277.832C94.4804 277.832 95.3204 278.384 95.3204 279.992V287ZM105.283 287.288C106.555 287.288 107.371 286.952 107.827 286.544L107.179 284.24C107.011 284.408 106.579 284.576 106.123 284.576C105.451 284.576 105.067 284.024 105.067 283.304V278.072H107.419V275.408H105.067V272.24H101.995V275.408H100.075V278.072H101.995V284.12C101.995 286.184 103.147 287.288 105.283 287.288ZM111.016 273.704C112.024 273.704 112.84 272.888 112.84 271.88C112.84 270.872 112.024 270.056 111.016 270.056C110.032 270.056 109.192 270.872 109.192 271.88C109.192 272.888 110.032 273.704 111.016 273.704ZM109.504 287H112.552V275.408H109.504V287ZM123.399 287H126.447V278.816C126.447 276.56 125.223 275.12 122.679 275.12C120.783 275.12 119.367 276.032 118.623 276.92V275.408H115.575V287H118.623V279.2C119.127 278.504 120.062 277.832 121.263 277.832C122.559 277.832 123.399 278.384 123.399 279.992V287ZM137.297 287H140.345V275.408H137.297V283.256C136.769 283.928 135.833 284.576 134.657 284.576C133.361 284.576 132.521 284.048 132.521 282.44V275.408H129.473V283.64C129.473 285.896 130.673 287.288 133.217 287.288C135.113 287.288 136.505 286.424 137.297 285.536V287ZM148.747 287.288C152.587 287.288 154.891 284.504 154.891 281.192C154.891 277.904 152.587 275.12 148.747 275.12C144.931 275.12 142.627 277.904 142.627 281.192C142.627 284.504 144.931 287.288 148.747 287.288ZM148.747 284.576C146.851 284.576 145.795 283.016 145.795 281.192C145.795 279.392 146.851 277.832 148.747 277.832C150.643 277.832 151.723 279.392 151.723 281.192C151.723 283.016 150.643 284.576 148.747 284.576ZM164.977 287H168.025V275.408H164.977V283.256C164.449 283.928 163.513 284.576 162.337 284.576C161.041 284.576 160.201 284.048 160.201 282.44V275.408H157.153V283.64C157.153 285.896 158.353 287.288 160.897 287.288C162.793 287.288 164.185 286.424 164.977 285.536V287ZM170.043 285.488C171.267 286.616 173.211 287.288 175.227 287.288C178.443 287.288 180.243 285.704 180.243 283.568C180.243 280.688 177.579 280.16 175.587 279.776C174.291 279.512 173.379 279.248 173.379 278.528C173.379 277.856 174.099 277.448 175.203 277.448C176.619 277.448 177.939 278.048 178.635 278.792L179.835 276.704C178.707 275.792 177.147 275.12 175.179 275.12C172.131 275.12 170.427 276.824 170.427 278.768C170.427 281.528 172.995 282.008 174.987 282.392C176.307 282.656 177.315 282.944 177.315 283.76C177.315 284.48 176.691 284.936 175.371 284.936C173.931 284.936 172.203 284.144 171.363 283.352L170.043 285.488ZM188.701 287H198.877V284H192.109V270.992H188.701V287ZM200.19 281.192C200.19 284.912 202.854 287.288 206.382 287.288C208.182 287.288 209.982 286.76 211.158 285.68L209.814 283.712C209.07 284.432 207.798 284.864 206.718 284.864C204.75 284.864 203.574 283.64 203.382 282.176H211.998V281.504C211.998 277.712 209.646 275.12 206.19 275.12C202.662 275.12 200.19 277.832 200.19 281.192ZM206.19 277.544C208.206 277.544 208.974 279.008 209.046 280.112H203.334C203.478 278.96 204.294 277.544 206.19 277.544ZM221.16 287H224.208V279.512C224.208 276.176 221.784 275.12 219.144 275.12C217.32 275.12 215.496 275.696 214.08 276.944L215.232 278.984C216.215 278.072 217.368 277.616 218.616 277.616C220.152 277.616 221.16 278.384 221.16 279.56V281.168C220.392 280.232 219.023 279.752 217.488 279.752C215.64 279.752 213.456 280.736 213.456 283.448C213.456 286.04 215.64 287.288 217.488 287.288C219 287.288 220.368 286.736 221.16 285.8V287ZM221.16 284.216C220.656 284.888 219.696 285.224 218.712 285.224C217.512 285.224 216.528 284.6 216.528 283.52C216.528 282.416 217.512 281.768 218.712 281.768C219.696 281.768 220.656 282.104 221.16 282.776V284.216ZM227.231 287H230.279V279.344C230.783 278.6 232.127 278.048 233.135 278.048C233.471 278.048 233.759 278.072 233.975 278.12V275.144C232.535 275.144 231.095 275.96 230.279 276.992V275.408H227.231V287ZM243.703 287H246.751V278.816C246.751 276.56 245.527 275.12 242.983 275.12C241.087 275.12 239.671 276.032 238.927 276.92V275.408H235.879V287H238.927V279.2C239.431 278.504 240.367 277.832 241.567 277.832C242.863 277.832 243.703 278.384 243.703 279.992V287ZM251.29 273.704C252.298 273.704 253.114 272.888 253.114 271.88C253.114 270.872 252.298 270.056 251.29 270.056C250.306 270.056 249.466 270.872 249.466 271.88C249.466 272.888 250.306 273.704 251.29 273.704ZM249.778 287H252.826V275.408H249.778V287ZM263.672 287H266.72V278.816C266.72 276.56 265.496 275.12 262.952 275.12C261.056 275.12 259.64 276.032 258.896 276.92V275.408H255.848V287H258.896V279.2C259.4 278.504 260.336 277.832 261.536 277.832C262.832 277.832 263.672 278.384 263.672 279.992V287ZM269.506 289.976C270.946 291.248 272.506 291.704 274.498 291.704C277.354 291.704 280.762 290.624 280.762 286.208V275.408H277.69V276.896C276.754 275.72 275.506 275.12 274.114 275.12C271.186 275.12 269.002 277.232 269.002 281.024C269.002 284.888 271.21 286.928 274.114 286.928C275.53 286.928 276.778 286.256 277.69 285.104V286.28C277.69 288.56 275.962 289.208 274.498 289.208C273.034 289.208 271.81 288.8 270.874 287.768L269.506 289.976ZM277.69 282.896C277.186 283.64 276.082 284.216 275.074 284.216C273.346 284.216 272.146 283.016 272.146 281.024C272.146 279.032 273.346 277.832 275.074 277.832C276.082 277.832 277.186 278.384 277.69 279.152V282.896Z" fill="#FEFEFE"/>
<line x1="0.5" y1="-0.5" x2="167.855" y2="-0.5" transform="matrix(0.999929 -0.0119506 0.00420858 0.999991 84 309.572)" stroke="#FEFEFE" stroke-linecap="square" stroke-dasharray="6 12"/>
<g clip-path="url(#clip0)">
<path d="M139.853 197H213.377C214.508 197 215.356 196.139 215.356 194.991C215.356 176.762 217.477 158.676 221.86 140.878C222.85 136.859 223.274 132.696 223.274 128.534C222.992 99.6833 200.086 76.2871 171.666 76C147.064 76 125.997 93.5113 120.907 117.912C120.341 121.07 112.14 159.824 111.999 160.255C111.716 161.403 112.423 162.408 113.554 162.695C113.696 162.695 113.837 162.695 113.978 162.695H125.855V182.79C125.855 190.684 132.077 196.856 139.853 197ZM116.382 158.676C118.22 150.064 124.3 121.501 124.866 118.773C129.39 96.2384 148.902 80.1625 171.525 80.019C197.824 80.019 219.174 101.693 219.174 128.534C219.174 132.409 218.75 136.141 217.76 139.873C213.518 157.241 211.397 175.039 211.256 192.837H187.644C189.623 190.972 190.896 188.531 191.461 185.804L197.4 158.963L193.582 158.102L187.644 184.943C186.654 189.536 182.554 192.837 177.888 192.837H139.853C134.339 192.837 129.956 188.388 129.956 182.79V174.752H131.087C136.601 174.609 141.691 172.168 145.367 168.006L142.398 165.279C139.57 168.58 135.47 170.59 131.087 170.59H129.956V160.542C129.956 159.394 129.107 158.533 127.976 158.533H116.382V158.676Z" fill="#FEFEFE"/>
<path d="M139.854 132.409H180.575L191.886 147.767C192.31 148.342 192.876 148.629 193.442 148.629H197.401C205.036 148.629 211.257 142.313 211.257 134.562V124.515C211.257 103.272 194.431 86.0474 173.505 86.0474H169.546C148.762 86.0474 131.936 103.272 131.795 124.371C131.795 128.821 135.471 132.409 139.854 132.409ZM197.401 144.466H194.431L191.462 140.447H205.319C203.339 143.031 200.511 144.466 197.401 144.466ZM207.298 134.419C207.298 135.136 207.298 135.71 207.157 136.428H188.493L185.524 132.409H207.298V134.419ZM138.299 111.453C140.42 114.467 143.954 116.333 147.631 116.333V112.314C144.661 112.314 142.116 110.592 140.844 108.008L140.42 107.147C144.237 100.544 150.034 95.5207 156.963 92.65C158.659 95.3771 159.649 98.5349 159.649 101.836V102.267H163.608V101.836C163.608 98.1043 162.618 94.5159 160.922 91.3582C163.749 90.6405 166.719 90.2099 169.546 90.2099H173.505C176.333 90.2099 179.302 90.6405 181.989 91.3582C179.868 94.6595 179.02 98.5349 179.444 102.554L183.403 102.123C182.979 98.822 183.827 95.3771 185.948 92.65C195.704 96.669 203.056 104.85 205.884 115.041L205.743 114.898C203.622 117.051 200.653 118.343 197.542 118.343H197.259V122.362H197.542C200.794 122.362 204.046 121.213 206.732 119.347C207.015 121.07 207.157 122.792 207.157 124.371V128.39H185.382C184.958 124.802 183.403 121.5 180.858 118.917L178.03 121.788C179.727 123.654 180.999 125.95 181.282 128.39H173.505C169.122 128.39 165.587 124.802 165.587 120.352C165.587 115.903 169.122 112.314 173.505 112.314H187.503C187.786 114.18 188.634 116.046 189.765 117.625L193.017 115.185C190.897 112.314 190.897 108.295 193.017 105.425L189.765 102.984C188.634 104.563 187.927 106.286 187.503 108.295H175.343C174.919 104.707 173.364 101.406 170.819 98.822L167.991 101.693C169.829 103.559 170.96 105.999 171.243 108.582C167.85 109.156 164.88 111.31 163.184 114.324C159.79 113.175 157.528 110.018 157.528 106.429H153.569C153.569 111.74 156.821 116.333 161.77 118.056C160.922 121.788 162.053 125.807 164.598 128.534H155.549C155.124 124.945 153.569 121.644 151.024 119.06L148.196 121.931C149.893 123.797 151.165 126.094 151.448 128.534H139.713C137.45 128.534 135.754 126.668 135.754 124.515C135.895 119.922 136.744 115.472 138.299 111.453Z" fill="#FEFEFE"/>
<path d="M145.464 136C141.081 136 137.546 139.588 137.546 144.038C137.546 148.488 141.081 152.076 145.464 152.076C149.847 152.076 153.382 148.488 153.382 144.038C153.382 139.588 149.847 136 145.464 136ZM145.464 148.2C143.202 148.2 141.505 146.335 141.505 144.181C141.505 142.028 143.343 140.163 145.464 140.163C147.727 140.163 149.423 142.028 149.423 144.181C149.423 146.335 147.585 148.2 145.464 148.2Z" fill="#FEFEFE"/>
</g>
<defs>
<clipPath id="clip0">
<rect width="111.134" height="121" fill="white" transform="translate(112 76)"/>
</clipPath>
</defs>
</svg>
